<svg xmlns="http://www.w3.org/2000/svg" width="729" height="600" fill="none" viewBox="0 0 729 600">
  <g filter="url(#filter0_d_9_138)">
    <rect width="399.576" height="660.533" x="701.866" y="112.878" fill="#3093A8" stroke="#fff" stroke-linejoin="round" stroke-width="20.269" rx="46.167" transform="rotate(90 701.866 112.878)"/>
    <ellipse fill="#fff" rx="138.028" ry="287.785" transform="rotate(-52.545 511.062 -231.643) skewX(.086)"/>
  </g>
  <g filter="url(#filter1_d_9_138)">
    <rect width="399.576" height="660.533" x="-10.112" y="10.157" fill="#3093A8" stroke="#fff" stroke-linejoin="round" stroke-width="20.269" rx="46.167" transform="rotate(89.873 294.921 388.212)"/>
    <ellipse fill="#fff" rx="138.028" ry="287.785" transform="rotate(-52.672 465.48 -216.062) skewX(.086)"/>
    <path fill="#264653" d="M79.928 442.257l-3.063.007-5.974-12.981.028 12.994-2.162.005-.035-15.764 3.063-.007 5.975 13.004-.03-13.017 2.163-.005.035 15.764zm3.821-5.976c-.002-1.036.131-1.945.4-2.726.283-.796.665-1.458 1.144-1.984a4.37 4.37 0 011.709-1.198 5.767 5.767 0 012.16-.41 5.586 5.586 0 012.141.401c.676.253 1.255.65 1.737 1.189.496.525.88 1.184 1.153 1.98.287.78.431 1.688.434 2.724.002 1.036-.138 1.952-.422 2.748-.269.781-.65 1.443-1.144 1.984a4.662 4.662 0 01-1.732 1.198 5.864 5.864 0 01-2.138.387 6.054 6.054 0 01-2.163-.378 4.698 4.698 0 01-1.714-1.189c-.482-.54-.866-1.2-1.153-1.98-.272-.795-.41-1.71-.412-2.746zm2.252-.005c.004 1.546.3 2.694.886 3.443.603.735 1.37 1.101 2.3 1.099.946-.002 1.71-.372 2.295-1.109.599-.752.896-1.901.893-3.447-.004-1.547-.306-2.687-.909-3.421-.587-.75-1.353-1.124-2.3-1.121-.93.002-1.695.379-2.294 1.131-.584.737-.874 1.878-.87 3.425zm11.429-5.994l1.711-.003-.005-2.478 1.71-.454.451-.001.006 2.928 3.153-.007.004 1.576-3.153.007.017 7.792c.002.721.355 1.081 1.061 1.079.465-.001 1.043-.212 1.733-.634l.588 1.35c-.45.346-.959.617-1.529.814a4.776 4.776 0 01-1.576.296c-.796.002-1.405-.26-1.826-.784-.407-.54-.611-1.32-.613-2.341l-.017-7.567-1.712.004-.003-1.577zm15.021-.033l1.711-.004-.005-2.477 1.71-.454.451-.001.006 2.928 3.153-.007.004 1.576-3.153.007.017 7.792c.002.721.355 1.08 1.061 1.079.465-.001 1.043-.213 1.733-.635l.588 1.35a5.294 5.294 0 01-1.529.814 4.748 4.748 0 01-1.576.297c-.796.001-1.405-.26-1.826-.785-.407-.539-.611-1.319-.613-2.34l-.017-7.567-1.712.004-.003-1.577zm12.017 1.595a4.942 4.942 0 011.618-1.445 4.148 4.148 0 012.026-.522c.706-.002 1.307.079 1.802.243.496.164.895.426 1.196.786.316.345.542.802.678 1.372.152.57.228 1.261.23 2.072l.018 7.792-2.162.004-.018-8.017c-.004-1.666-.749-2.498-2.235-2.495-1.247.003-2.259.531-3.037 1.583l.02 8.941-2.162.005-.038-16.89 2.05-.005.014 6.576zm16.758 8.858c.765-.001 1.425-.145 1.98-.432.57-.301 1.027-.618 1.372-.949l.971 1.169c-.464.527-1.071.986-1.821 1.378-.75.392-1.605.589-2.566.591a6.184 6.184 0 01-2.208-.378 4.86 4.86 0 01-1.759-1.189c-.482-.54-.866-1.2-1.153-1.98-.272-.795-.409-1.71-.412-2.746-.002-1.036.131-1.945.4-2.726.268-.796.642-1.458 1.121-1.984a4.405 4.405 0 011.687-1.198 5.592 5.592 0 012.138-.41 5.365 5.365 0 011.938.334 3.749 3.749 0 011.533.987c.422.45.746 1.012.972 1.687.242.66.364 1.441.366 2.341l.003 1.577-7.882.017c.093 1.336.441 2.326 1.043 2.971.617.629 1.376.942 2.277.94zm-.223-9.097c-.811.001-1.501.303-2.07.905-.554.587-.89 1.488-1.008 2.705l5.721-.013c-.003-1.156-.238-2.041-.705-2.656-.451-.629-1.098-.943-1.938-.941zm13.652-1.449l1.711-.004-.003-1.374c-.003-1.411.295-2.418.894-3.02.615-.602 1.5-.904 2.656-.906.766-.002 1.404.154 1.915.468.526.314.956.914 1.288 1.799l-1.8.612c-.136-.36-.31-.637-.52-.832-.211-.195-.511-.292-.902-.291-.45.001-.795.16-1.035.475-.224.301-.336.789-.334 1.465l.003 1.599 2.928-.007.004 1.577-2.928.006.023 10.36-2.162.005-.023-10.36-1.712.004-.003-1.576zm11.757 11.909l-2.162.005-.027-11.936 2.162-.004.027 11.935zm-2.49-15.691c-.001-.48.126-.834.381-1.059.27-.241.6-.362.99-.363.405-.001.736.119.992.358.27.225.406.577.407 1.058.001.48-.133.841-.403 1.082-.254.226-.584.339-.99.34-.39.001-.721-.111-.991-.336-.256-.239-.385-.6-.386-1.08zm8.789 3.742l.116 1.463a5.341 5.341 0 011.664-1.265 4.915 4.915 0 012.048-.545l.116 1.621-.269.249c-.706.016-1.344.145-1.914.387a4.048 4.048 0 00-1.416.949l.02 9.076-2.162.004-.027-11.935 1.824-.004zm9.918 1.284c-.571.001-1.051.13-1.441.386-.39.256-.584.647-.583 1.172.001.421.152.773.453 1.058.301.269.677.516 1.128.74.451.224.932.449 1.443.673a8.128 8.128 0 011.465.807c.451.299.827.674 1.129 1.124.301.434.452.99.454 1.665.002 1.006-.364 1.818-1.098 2.435-.735.602-1.755.905-3.061.908-1.291.002-2.283-.296-2.975-.895-.677-.614-1.144-1.461-1.402-2.541l1.868-.635c.076.495.197.9.363 1.215.181.315.392.562.632.742.241.18.504.307.789.381.286.059.579.089.879.088.51-.001.961-.122 1.35-.363.39-.256.584-.647.583-1.173a1.216 1.216 0 00-.452-.967 5.629 5.629 0 00-1.128-.718 27.67 27.67 0 00-1.465-.672 8.761 8.761 0 01-1.443-.853 4.457 4.457 0 01-1.129-1.191c-.302-.48-.453-1.073-.455-1.778 0-.346.066-.706.201-1.082.134-.39.358-.744.673-1.06.33-.316.757-.579 1.282-.791.54-.211 1.2-.318 1.981-.319 1.036-.003 1.892.228 2.569.692.692.449 1.189 1.214 1.491 2.294l-1.867.635c-.167-.616-.438-1.095-.814-1.44-.376-.359-.85-.539-1.42-.537zm6.423-1.321l1.711-.004-.005-2.477 1.71-.454.451-.001.006 2.928 3.153-.007.003 1.576-3.152.007.017 7.792c.001.721.355 1.08 1.061 1.079.465-.001 1.043-.213 1.732-.635l.589 1.35a5.34 5.34 0 01-1.53.815 4.766 4.766 0 01-1.575.296c-.796.002-1.405-.26-1.826-.784-.407-.54-.611-1.32-.614-2.341l-.016-7.567-1.712.004-.003-1.577zm9.587 12.883c0-.24-.038-.442-.114-.607a3.19 3.19 0 00-.248-.45 4.508 4.508 0 01-.249-.473 1.51 1.51 0 01-.114-.63c-.001-.525.133-.909.403-1.149.284-.256.644-.385 1.08-.386.435-.001.796.126 1.082.381.285.239.429.622.43 1.147a4.91 4.91 0 01-.177 1.262 9.297 9.297 0 01-.47 1.375 7.94 7.94 0 01-.65 1.285c-.24.406-.487.759-.741 1.06l-1.015-.673c.209-.301.389-.647.538-1.038.164-.375.246-.743.245-1.104zm17.378-13.28c.69-.002 1.314.132 1.87.401a3.558 3.558 0 011.444 1.19c.406.525.716 1.185.928 1.98.226.78.341 1.688.343 2.724.003 1.036-.13 1.952-.399 2.749-.268.781-.635 1.442-1.099 1.984a4.583 4.583 0 01-1.641 1.197 5.354 5.354 0 01-2.026.388 4.744 4.744 0 01-1.915-.379 6.05 6.05 0 01-1.557-.965l-.56 1.015-1.036.002-.038-16.89 2.162-.005.014 6.125c.419-.406.914-.76 1.484-1.061.585-.302 1.26-.454 2.026-.455zm-.469 1.757a3.88 3.88 0 00-1.666.364 5.327 5.327 0 00-1.372.972l.016 6.824c.345.269.759.493 1.24.672.48.179 1.006.268 1.577.267.885-.002 1.605-.371 2.159-1.108.569-.752.852-1.901.848-3.448-.003-1.546-.268-2.687-.795-3.421-.513-.75-1.182-1.124-2.007-1.122zm18.148 8.563c0 .24.053.405.159.495.12.075.263.112.428.112.12-.001.247-.016.383-.046.135-.045.262-.098.382-.159l.363 1.396c-.24.12-.502.226-.787.317-.285.091-.6.136-.946.137-.525.001-.968-.118-1.329-.357-.361-.24-.587-.69-.679-1.35a7.036 7.036 0 01-1.709 1.197c-.66.347-1.44.522-2.341.524-1.186.002-2.05-.349-2.592-1.053-.542-.72-.815-1.763-.818-3.129l-.018-8.085 2.162-.004.018 8.107c.002.811.146 1.418.432 1.823.286.39.767.584 1.443.583a4.387 4.387 0 001.801-.365 5.615 5.615 0 001.484-.971l-.02-9.189 2.162-.005.022 10.022zm3.608-10.03l1.711-.004-.005-2.477 1.71-.454.451-.001.006 2.928 3.153-.007.004 1.576-3.153.007.017 7.792c.002.721.355 1.08 1.061 1.079.465-.001 1.043-.213 1.733-.635l.588 1.35c-.45.347-.959.618-1.53.815a4.766 4.766 0 01-1.575.296c-.796.002-1.405-.26-1.826-.784-.407-.54-.611-1.32-.613-2.341l-.017-7.567-1.712.004-.003-1.577zm15.021-.033l1.711-.004-.005-2.477 1.71-.454.451-.001.006 2.927 3.153-.007.004 1.577-3.153.007.017 7.792c.002.721.355 1.08 1.061 1.079.465-.001 1.043-.213 1.733-.635l.588 1.35c-.45.346-.959.618-1.529.814a4.75 4.75 0 01-1.576.296c-.796.002-1.405-.259-1.826-.784-.407-.539-.611-1.32-.613-2.34l-.017-7.567-1.712.003-.003-1.576zm12.017 1.595a4.942 4.942 0 011.618-1.445 4.157 4.157 0 012.026-.523c.706-.001 1.306.08 1.802.244.496.164.895.426 1.196.786.316.344.542.802.678 1.372.152.57.228 1.261.23 2.071l.017 7.793-2.162.004-.017-8.017c-.004-1.667-.749-2.498-2.235-2.495-1.247.003-2.259.531-3.037 1.583l.02 8.941-2.162.005-.038-16.891 2.05-.004.014 6.576zm16.757 8.858c.766-.001 1.426-.145 1.981-.432.57-.302 1.027-.618 1.372-.949l.971 1.169c-.464.527-1.071.986-1.821 1.378-.75.392-1.605.589-2.566.591a6.184 6.184 0 01-2.208-.378 4.863 4.863 0 01-1.759-1.19c-.482-.539-.866-1.199-1.153-1.979-.272-.795-.409-1.711-.412-2.746-.002-1.036.131-1.945.4-2.726.268-.797.642-1.458 1.121-1.985a4.414 4.414 0 011.687-1.197 5.592 5.592 0 012.138-.41 5.365 5.365 0 011.938.333 3.75 3.75 0 011.533.988c.422.449.746 1.012.972 1.687.242.66.364 1.44.366 2.341l.003 1.577-7.882.017c.093 1.336.441 2.326 1.043 2.97.617.63 1.376.943 2.276.941zm-.222-9.098c-.811.002-1.501.304-2.07.906-.555.587-.89 1.488-1.008 2.705l5.72-.013c-.002-1.156-.237-2.041-.704-2.656-.451-.63-1.098-.943-1.938-.942zm20.34-1.801c.69-.002 1.314.132 1.87.401a3.558 3.558 0 011.444 1.19c.406.525.716 1.185.927 1.98.227.78.342 1.688.344 2.724.003 1.036-.13 1.952-.399 2.749-.268.781-.635 1.443-1.099 1.984a4.571 4.571 0 01-1.641 1.197 5.354 5.354 0 01-2.026.388 4.744 4.744 0 01-1.915-.379 6.05 6.05 0 01-1.557-.965l-.56 1.015-1.036.002-.038-16.89 2.162-.005.014 6.125c.419-.406.914-.76 1.484-1.061.585-.302 1.26-.454 2.026-.455zm-.469 1.757a3.88 3.88 0 00-1.666.364 5.351 5.351 0 00-1.372.972l.015 6.824c.346.269.76.493 1.241.672.48.18 1.006.268 1.577.267.885-.002 1.605-.371 2.159-1.108.569-.752.852-1.901.848-3.448-.003-1.546-.268-2.687-.796-3.421-.512-.75-1.181-1.123-2.006-1.122zm13.802 9.068c.766-.002 1.426-.146 1.981-.432.57-.302 1.027-.618 1.372-.949l.971 1.169c-.464.526-1.071.986-1.821 1.378-.75.392-1.605.589-2.566.591a6.184 6.184 0 01-2.208-.378 4.863 4.863 0 01-1.759-1.19c-.482-.539-.866-1.199-1.153-1.979-.272-.795-.409-1.711-.412-2.747-.002-1.036.131-1.944.4-2.726.268-.796.642-1.457 1.121-1.984a4.403 4.403 0 011.687-1.197 5.573 5.573 0 012.138-.41 5.344 5.344 0 011.938.333 3.75 3.75 0 011.533.988c.422.449.746 1.012.972 1.687.242.66.364 1.44.366 2.341l.003 1.576-7.882.018c.093 1.336.441 2.326 1.043 2.97.617.63 1.376.943 2.276.941zm-.222-9.098c-.811.002-1.501.304-2.07.906-.555.586-.89 1.488-1.008 2.704l5.72-.012c-.002-1.156-.237-2.042-.704-2.656-.451-.63-1.098-.944-1.938-.942zm12.111-.139c-.57.001-1.05.13-1.44.386-.39.256-.584.647-.583 1.172.001.421.152.773.453 1.058.301.269.676.516 1.127.74.451.225.932.449 1.443.673a8.137 8.137 0 011.466.807c.451.3.827.674 1.128 1.124.302.435.453.99.454 1.665.003 1.006-.363 1.818-1.098 2.435-.734.602-1.754.905-3.06.908-1.292.003-2.283-.296-2.975-.895-.677-.614-1.144-1.461-1.402-2.541l1.868-.635c.076.495.197.9.363 1.215.181.315.391.562.632.742.241.18.504.307.789.381.285.06.578.089.879.088.51-.001.96-.122 1.35-.363.39-.256.584-.647.583-1.172a1.218 1.218 0 00-.453-.968 5.59 5.59 0 00-1.127-.718c-.451-.224-.94-.448-1.466-.672a8.692 8.692 0 01-1.443-.853 4.489 4.489 0 01-1.129-1.191c-.301-.48-.452-1.072-.454-1.778a3.194 3.194 0 01.2-1.082 2.78 2.78 0 01.674-1.06c.329-.316.757-.579 1.282-.791.54-.211 1.2-.318 1.981-.319 1.036-.003 1.892.228 2.569.692.691.449 1.188 1.214 1.491 2.294l-1.868.635c-.166-.616-.438-1.095-.814-1.44-.376-.359-.849-.538-1.42-.537zm6.423-1.321l1.712-.003-.006-2.478 1.711-.454.45-.001.007 2.928 3.153-.007.003 1.576-3.153.007.018 7.792c.001.721.355 1.081 1.06 1.079.466-.001 1.043-.213 1.733-.634l.589 1.349a5.34 5.34 0 01-1.53.815 4.767 4.767 0 01-1.576.296c-.796.002-1.404-.26-1.826-.784-.406-.54-.611-1.32-.613-2.341l-.017-7.567-1.711.004-.004-1.577zm15.372 5.934c-.002-1.036.131-1.944.4-2.726.283-.796.664-1.457 1.144-1.984a4.355 4.355 0 011.709-1.197 5.767 5.767 0 012.161-.411 5.605 5.605 0 012.14.401 4.34 4.34 0 011.737 1.19c.496.524.881 1.184 1.153 1.979.287.78.431 1.688.434 2.724.002 1.036-.139 1.952-.422 2.749-.269.781-.65 1.442-1.144 1.984a4.648 4.648 0 01-1.732 1.197 5.885 5.885 0 01-2.138.388 6.053 6.053 0 01-2.163-.378 4.696 4.696 0 01-1.714-1.19c-.482-.539-.866-1.199-1.153-1.979-.272-.795-.409-1.711-.412-2.747zm2.252-.005c.004 1.547.299 2.695.886 3.444.602.734 1.369 1.1 2.3 1.098.946-.002 1.711-.371 2.294-1.108.599-.752.897-1.901.894-3.448-.004-1.546-.307-2.687-.909-3.421-.587-.749-1.354-1.123-2.299-1.121-.931.002-1.696.379-2.295 1.131-.584.737-.874 1.879-.871 3.425zm14.266-5.999l.116 1.441a7.71 7.71 0 011.641-1.243 4.201 4.201 0 012.116-.545c.706-.001 1.306.08 1.802.244.496.164.894.426 1.196.786.316.344.542.802.678 1.372.152.57.228 1.26.23 2.071l.017 7.792-2.162.005-.017-8.017c-.004-1.667-.764-2.498-2.281-2.495a3.606 3.606 0 00-1.553.364c-.51.241-.989.573-1.439.994l.021 9.166-2.162.005-.027-11.936 1.824-.004zm14.238 9.99c0 .24.046.405.136.495.105.075.24.112.406.112.12-.001.255-.016.405-.046a2.63 2.63 0 00.405-.159l.363 1.396c-.24.12-.502.226-.787.317-.285.09-.6.136-.946.137-.3.001-.578-.036-.833-.111a1.475 1.475 0 01-.677-.359 1.945 1.945 0 01-.474-.719c-.106-.3-.159-.676-.16-1.126l-.034-14.909 2.162-.004.034 14.976zm6.668 1.899l-2.162.005-.027-11.936 2.162-.005.027 11.936zm-2.49-15.691c-.001-.481.126-.834.381-1.059.269-.241.599-.362.99-.363.405-.001.736.118.991.358.271.225.407.577.408 1.058.001.48-.133.841-.403 1.082-.255.225-.585.339-.99.34-.39 0-.721-.111-.992-.336-.255-.24-.384-.6-.385-1.08zm8.789 3.741l.116 1.441a7.765 7.765 0 011.641-1.242c.63-.362 1.335-.543 2.116-.545.706-.002 1.306.08 1.802.244.496.164.895.426 1.196.785.316.345.542.802.678 1.372.152.571.228 1.261.23 2.072l.017 7.792-2.162.005-.017-8.018c-.004-1.666-.764-2.498-2.281-2.494a3.606 3.606 0 00-1.553.364c-.51.241-.989.572-1.439.994l.021 9.165-2.162.005-.027-11.936 1.824-.004zm16.986 10.48c.766-.002 1.426-.146 1.981-.432.57-.302 1.027-.618 1.372-.949l.971 1.169c-.464.526-1.071.985-1.821 1.377s-1.605.589-2.566.592a6.228 6.228 0 01-2.208-.378 4.876 4.876 0 01-1.759-1.19c-.482-.54-.866-1.199-1.153-1.979-.272-.795-.41-1.711-.412-2.747-.002-1.036.131-1.945.399-2.726.269-.796.643-1.458 1.122-1.984a4.389 4.389 0 011.686-1.197 5.598 5.598 0 012.139-.411 5.365 5.365 0 011.938.334 3.759 3.759 0 011.533.987c.422.45.746 1.012.972 1.687.242.66.364 1.441.366 2.342l.003 1.576-7.882.018c.093 1.336.441 2.326 1.043 2.97.617.629 1.376.943 2.276.941zm-.223-9.098c-.81.002-1.5.304-2.069.905-.555.587-.89 1.489-1.008 2.705l5.72-.013c-.002-1.156-.237-2.041-.704-2.655-.451-.63-1.098-.944-1.939-.942zm23.944 8.55c.001.24.054.405.159.495.12.075.263.112.428.112a1.84 1.84 0 00.383-.046c.135-.046.263-.099.382-.159l.364 1.396c-.24.12-.503.226-.788.317-.285.09-.6.136-.945.137-.526.001-.969-.118-1.33-.358-.361-.239-.587-.689-.678-1.349a7.083 7.083 0 01-1.709 1.197c-.66.347-1.44.521-2.341.523-1.186.003-2.05-.348-2.592-1.052-.543-.72-.815-1.763-.818-3.129l-.018-8.085 2.162-.005.018 8.108c.002.81.146 1.418.432 1.823.286.39.767.584 1.442.582a4.386 4.386 0 001.801-.364 5.615 5.615 0 001.485-.972l-.021-9.188 2.162-.005.022 10.022zm6.446-10.036l.116 1.441a7.674 7.674 0 011.641-1.242c.63-.362 1.335-.544 2.116-.546.705-.001 1.306.08 1.802.244.496.164.894.426 1.195.786.316.344.542.802.679 1.372.151.57.228 1.261.23 2.071l.017 7.792-2.162.005-.018-8.017c-.004-1.667-.764-2.498-2.28-2.495a3.617 3.617 0 00-1.553.364 5.61 5.61 0 00-1.439.994l.02 9.166-2.162.005-.026-11.936 1.824-.004zm11.391 5.942c-.003-1.035.13-1.944.399-2.725.283-.797.665-1.458 1.144-1.985a4.376 4.376 0 011.709-1.197 5.746 5.746 0 012.161-.41 5.6 5.6 0 012.14.4 4.337 4.337 0 011.737 1.19c.497.524.881 1.184 1.153 1.979.287.78.432 1.688.434 2.724.002 1.036-.138 1.952-.422 2.749-.268.781-.65 1.443-1.144 1.984a4.659 4.659 0 01-1.731 1.198 5.886 5.886 0 01-2.139.387 6.053 6.053 0 01-2.163-.378 4.705 4.705 0 01-1.714-1.19c-.482-.539-.866-1.199-1.153-1.979-.272-.795-.409-1.711-.411-2.747zm2.252-.005c.003 1.547.298 2.695.886 3.444.602.735 1.368 1.101 2.299 1.099.946-.002 1.711-.372 2.295-1.109.599-.752.896-1.901.893-3.448-.003-1.546-.306-2.686-.908-3.421-.588-.749-1.354-1.123-2.3-1.121-.931.002-1.696.379-2.295 1.131-.584.737-.874 1.879-.87 3.425zm23.444 4.498c.766-.002 1.426-.146 1.981-.433.57-.301 1.027-.617 1.372-.949l.971 1.169c-.465.527-1.072.986-1.821 1.378-.75.392-1.606.589-2.566.591a6.184 6.184 0 01-2.208-.378 4.865 4.865 0 01-1.76-1.189c-.481-.54-.866-1.199-1.153-1.979-.272-.796-.409-1.711-.411-2.747-.002-1.036.131-1.945.399-2.726.269-.796.643-1.458 1.122-1.984a4.402 4.402 0 011.686-1.198 5.616 5.616 0 012.139-.41 5.36 5.36 0 011.937.334 3.762 3.762 0 011.534.987c.421.45.745 1.012.972 1.687.242.66.364 1.441.366 2.342l.003 1.576-7.882.017c.093 1.336.441 2.327 1.043 2.971.617.629 1.375.943 2.276.941zm-.223-9.098c-.81.002-1.5.303-2.07.905-.554.587-.89 1.489-1.007 2.705l5.72-.013c-.002-1.156-.237-2.041-.704-2.656-.452-.629-1.098-.943-1.939-.941zm12.141 2.743l2.693-4.195 2.117-.005-3.748 5.864 3.887 6.072-2.364.005-2.78-4.34-2.783 4.353-2.117.004 3.86-6.021-3.774-5.915 2.365-.005 2.644 4.183zm7.847-4.206l1.824-.004.116 1.396a6.957 6.957 0 011.551-1.197c.615-.362 1.343-.544 2.184-.546.69-.001 1.314.133 1.87.402.571.253 1.052.65 1.444 1.19.406.524.716 1.184.927 1.98.227.78.342 1.688.344 2.724.003 1.036-.13 1.952-.399 2.748-.268.782-.635 1.443-1.099 1.985a4.595 4.595 0 01-1.641 1.197 5.353 5.353 0 01-2.026.387 4.955 4.955 0 01-1.577-.244 5.255 5.255 0 01-1.331-.673l.013 5.878-2.162.005-.038-17.228zm5.206 1.407a3.865 3.865 0 00-1.666.364 5.323 5.323 0 00-1.372.971l.015 6.824c.346.27.76.494 1.241.673.48.179 1.006.268 1.577.267.885-.002 1.605-.372 2.159-1.109.569-.751.852-1.901.848-3.447-.003-1.546-.268-2.687-.796-3.421-.512-.75-1.181-1.124-2.006-1.122zm13.802 9.068c.766-.002 1.426-.146 1.981-.433.57-.301 1.027-.617 1.372-.948l.971 1.168c-.464.527-1.071.986-1.821 1.378-.75.392-1.605.589-2.566.591a6.206 6.206 0 01-2.208-.377 4.876 4.876 0 01-1.759-1.19c-.482-.54-.866-1.199-1.153-1.979-.272-.796-.409-1.711-.412-2.747-.002-1.036.131-1.945.4-2.726.268-.796.642-1.458 1.121-1.984a4.405 4.405 0 011.687-1.198 5.61 5.61 0 012.138-.41 5.365 5.365 0 011.938.334 3.759 3.759 0 011.533.987c.422.45.746 1.012.972 1.687.242.66.364 1.441.366 2.342l.003 1.576-7.882.017c.093 1.336.441 2.327 1.043 2.971.617.629 1.376.943 2.276.941zm-.222-9.098c-.811.002-1.501.303-2.07.905-.555.587-.89 1.489-1.008 2.705l5.72-.013c-.002-1.156-.237-2.041-.704-2.656-.451-.629-1.098-.943-1.938-.941zm10.419-1.442l.116 1.464a5.311 5.311 0 011.664-1.265 4.885 4.885 0 012.048-.545l.116 1.621-.269.248c-.706.017-1.344.146-1.914.387a4.061 4.061 0 00-1.416.949l.02 9.076-2.162.005-.027-11.936 1.824-.004zm8.59 11.917l-2.162.005-.026-11.936 2.161-.005.027 11.936zm-2.49-15.692c-.001-.48.126-.833.381-1.059.27-.241.6-.362.99-.362.405-.001.736.118.992.358.27.224.406.577.407 1.057.001.481-.133.841-.403 1.082-.254.226-.584.339-.99.34-.39.001-.721-.111-.991-.335-.256-.24-.385-.6-.386-1.081zm11.898 14.252c.766-.002 1.426-.146 1.981-.432.57-.302 1.027-.618 1.372-.949l.971 1.169c-.465.526-1.072.986-1.821 1.378-.75.392-1.606.589-2.566.591a6.184 6.184 0 01-2.208-.378 4.867 4.867 0 01-1.76-1.19c-.481-.539-.866-1.199-1.153-1.979-.272-.795-.409-1.711-.411-2.747-.002-1.036.131-1.944.399-2.725.269-.797.643-1.458 1.122-1.985a4.41 4.41 0 011.686-1.197 5.578 5.578 0 012.139-.41 5.342 5.342 0 011.937.333 3.754 3.754 0 011.534.988c.421.449.745 1.012.972 1.687.242.66.364 1.44.366 2.341l.003 1.576-7.882.018c.093 1.336.441 2.326 1.042 2.97.617.63 1.376.943 2.277.941zm-.223-9.098c-.81.002-1.5.304-2.07.906-.554.586-.89 1.488-1.007 2.704l5.72-.012c-.002-1.156-.237-2.042-.704-2.656-.452-.63-1.098-.944-1.939-.942zm10.42-1.442l.116 1.441a7.74 7.74 0 011.641-1.242c.63-.362 1.335-.543 2.116-.545.706-.002 1.306.08 1.802.244.496.164.894.426 1.195.785.316.345.543.802.679 1.373.151.57.228 1.26.23 2.071l.017 7.792-2.162.005-.018-8.017c-.003-1.667-.763-2.499-2.28-2.495a3.606 3.606 0 00-1.553.364c-.51.241-.989.572-1.439.994l.02 9.166-2.162.004-.026-11.936 1.824-.004zm19.132 3.246c-.348-1.245-1.115-1.867-2.301-1.864-.931.002-1.696.379-2.295 1.131-.599.737-.896 1.879-.893 3.425.003 1.547.314 2.694.931 3.444.617.734 1.399 1.1 2.345 1.098.675-.001 1.283-.145 1.823-.432.54-.301.982-.618 1.326-.949l.971 1.169c-.464.527-1.063.986-1.798 1.378a5.064 5.064 0 01-2.409.591 6.004 6.004 0 01-2.185-.378 4.717 4.717 0 01-1.714-1.19c-.482-.539-.859-1.199-1.131-1.979-.272-.795-.409-1.711-.411-2.747-.002-1.036.131-1.944.399-2.726.284-.796.665-1.458 1.144-1.984a4.375 4.375 0 011.709-1.198 5.616 5.616 0 012.139-.41c1.021-.002 1.892.229 2.614.693.737.449 1.271 1.213 1.604 2.293l-1.868.635zm9.752 7.208c.766-.002 1.426-.146 1.981-.433.57-.301 1.027-.618 1.372-.949l.971 1.169c-.464.527-1.071.986-1.821 1.378-.75.392-1.605.589-2.566.591a6.184 6.184 0 01-2.208-.378 4.86 4.86 0 01-1.759-1.189c-.482-.54-.866-1.2-1.153-1.98-.272-.795-.41-1.71-.412-2.746-.002-1.036.131-1.945.399-2.726.269-.796.643-1.458 1.122-1.984a4.402 4.402 0 011.686-1.198 5.597 5.597 0 012.139-.41 5.369 5.369 0 011.938.334 3.749 3.749 0 011.533.987c.421.45.746 1.012.972 1.687.242.66.364 1.441.366 2.341l.003 1.577-7.882.017c.093 1.336.441 2.326 1.043 2.971.617.629 1.375.943 2.276.941zm-.223-9.098c-.81.001-1.5.303-2.069.905-.555.587-.89 1.488-1.008 2.705l5.72-.013c-.002-1.156-.237-2.041-.704-2.656-.452-.629-1.098-.943-1.939-.941zm19.599 9.055c.766-.002 1.426-.146 1.981-.433.57-.301 1.027-.618 1.371-.949l.971 1.169c-.464.527-1.071.986-1.821 1.378-.75.392-1.605.589-2.566.591a6.192 6.192 0 01-2.208-.378 4.87 4.87 0 01-1.759-1.189c-.482-.54-.866-1.2-1.153-1.98-.272-.795-.409-1.71-.411-2.746-.003-1.036.13-1.945.399-2.726.268-.796.642-1.458 1.122-1.984a4.402 4.402 0 011.686-1.198 5.616 5.616 0 012.139-.41 5.363 5.363 0 011.937.334 3.769 3.769 0 011.534.987c.421.45.745 1.012.972 1.687.242.66.363 1.441.365 2.341l.004 1.577-7.882.017c.093 1.336.44 2.326 1.042 2.971.617.629 1.376.943 2.277.941zm-.223-9.098c-.811.001-1.501.303-2.07.905-.554.587-.89 1.488-1.007 2.705l5.72-.013c-.003-1.156-.237-2.041-.704-2.656-.452-.629-1.098-.943-1.939-.941zm13.824 10.486l-2.837.006-3.855-11.927 2.229-.005 3.153 9.925 3.108-9.939 2.004-.004-3.802 11.944zm11.779-1.445c.765-.001 1.426-.146 1.98-.432.57-.302 1.027-.618 1.372-.949l.971 1.169c-.464.527-1.071.986-1.821 1.378-.75.392-1.605.589-2.566.591a6.184 6.184 0 01-2.208-.378 4.863 4.863 0 01-1.759-1.19c-.482-.539-.866-1.199-1.153-1.979-.272-.795-.409-1.711-.412-2.747-.002-1.035.131-1.944.4-2.725.268-.797.642-1.458 1.121-1.985a4.421 4.421 0 011.687-1.197 5.596 5.596 0 012.138-.41 5.344 5.344 0 011.938.333 3.75 3.75 0 011.533.988c.422.449.746 1.012.972 1.687.242.66.364 1.44.366 2.341l.004 1.577-7.883.017c.093 1.336.441 2.326 1.043 2.97.617.63 1.376.943 2.277.941zm-.223-9.098c-.811.002-1.501.304-2.07.906-.554.587-.89 1.488-1.008 2.705l5.721-.013c-.003-1.156-.238-2.041-.704-2.656-.452-.63-1.099-.943-1.939-.942zm10.419-1.442l.116 1.464a5.341 5.341 0 011.664-1.265 4.9 4.9 0 012.048-.545l.116 1.621-.269.249c-.706.016-1.344.145-1.914.387a4.048 4.048 0 00-1.416.949l.02 9.076-2.162.004-.027-11.935 1.824-.005zM154.926 201.067c.013 5.583-1.031 10.84-3.132 15.771-2.1 4.884-4.976 9.16-8.628 12.828-3.651 3.621-7.938 6.492-12.86 8.615-4.874 2.122-10.103 3.189-15.687 3.201-5.583.013-10.84-1.031-15.771-3.132-4.884-2.1-9.16-4.953-12.828-8.557-3.62-3.652-6.492-7.915-8.614-12.79-2.122-4.921-3.19-10.174-3.202-15.757l-.135-60.595 20.128-.044.135 60.594c.006 2.768.528 5.371 1.565 7.809 1.085 2.437 2.544 4.569 4.378 6.394 1.834 1.826 3.972 3.276 6.414 4.349 2.489 1.027 5.117 1.537 7.886 1.531 2.768-.006 5.371-.528 7.808-1.565 2.484-1.085 4.639-2.544 6.465-4.378a19.962 19.962 0 004.279-6.414c1.073-2.442 1.607-5.047 1.601-7.815l-.135-60.595 20.199-.045.134 60.595zm105.542 40.092l-21.605.048-39.066-66.35.147 66.436-20.198.045-.224-100.92 21.606-.048 39.066 66.419-.148-66.506 20.198-.044.224 100.92zm124.766-50.315c.011 4.786-.613 9.409-1.869 13.869a53 53 0 01-5.181 12.468 52.08 52.08 0 01-8.14 10.574 54.18 54.18 0 01-10.538 8.258c-3.842 2.261-7.991 4.006-12.445 5.235-4.455 1.277-9.075 1.921-13.86 1.931-4.786.011-9.409-.612-13.869-1.869a52.998 52.998 0 01-12.468-5.18 54.248 54.248 0 01-10.575-8.211 54.175 54.175 0 01-8.257-10.538 55.209 55.209 0 01-5.306-12.445c-1.23-4.455-1.85-9.075-1.861-13.86-.011-4.786.589-9.409 1.799-13.869 1.257-4.46 3.007-8.616 5.251-12.468a54.205 54.205 0 018.21-10.575 52.132 52.132 0 0110.539-8.187 52.98 52.98 0 0112.445-5.236c4.454-1.276 9.074-1.92 13.86-1.93 4.785-.011 9.408.612 13.868 1.869 4.46 1.21 8.616 2.937 12.469 5.18a52.085 52.085 0 0110.574 8.141 52.055 52.055 0 018.187 10.538c2.261 3.842 4.006 7.991 5.236 12.445 1.277 4.455 1.92 9.075 1.931 13.86zm-20.057.045c-.01-4.411-.864-8.561-2.562-12.451-1.698-3.938-4.004-7.334-6.919-10.19-2.869-2.902-6.275-5.194-10.22-6.874-3.898-1.681-8.052-2.516-12.463-2.506-4.457.01-8.631.864-12.521 2.561-3.89 1.698-7.287 4.004-10.189 6.92-2.903 2.868-5.194 6.275-6.875 10.22-1.68 3.898-2.515 8.052-2.506 12.462.01 4.41.864 8.561 2.562 12.451 1.697 3.844 4.004 7.217 6.919 10.119 2.916 2.903 6.322 5.194 10.22 6.874 3.898 1.681 8.076 2.516 12.533 2.506 4.41-.01 8.56-.863 12.451-2.561 3.937-1.698 7.334-4.004 10.189-6.92 2.903-2.915 5.194-6.298 6.875-10.149 1.68-3.898 2.515-8.052 2.506-12.462zM174.499 331.312c.011 4.785-.613 9.408-1.869 13.868a53 53 0 01-5.181 12.468 52.06 52.06 0 01-8.14 10.575 54.18 54.18 0 01-10.538 8.258c-3.842 2.26-7.991 4.005-12.445 5.235-4.455 1.277-9.075 1.92-13.86 1.931-4.786.011-9.409-.612-13.869-1.869a52.96 52.96 0 01-12.468-5.181 54.18 54.18 0 01-10.575-8.21 54.184 54.184 0 01-8.257-10.539 55.225 55.225 0 01-5.306-12.445c-1.23-4.454-1.85-9.074-1.86-13.86-.012-4.785.588-9.408 1.798-13.868 1.257-4.46 3.007-8.616 5.25-12.468a54.157 54.157 0 018.211-10.575 52.057 52.057 0 0110.539-8.187 52.987 52.987 0 0112.445-5.236c4.454-1.277 9.074-1.92 13.86-1.931 4.785-.01 9.408.613 13.868 1.87 4.46 1.21 8.616 2.936 12.469 5.18a52.08 52.08 0 0110.574 8.14 52.06 52.06 0 018.187 10.539c2.261 3.842 4.006 7.99 5.236 12.445 1.277 4.454 1.92 9.074 1.931 13.86zm-20.058.044c-.009-4.41-.863-8.56-2.561-12.451-1.698-3.937-4.004-7.334-6.919-10.189-2.869-2.903-6.275-5.194-10.22-6.874-3.898-1.681-8.052-2.516-12.463-2.506-4.457.009-8.631.863-12.521 2.561-3.891 1.698-7.287 4.004-10.19 6.919-2.902 2.869-5.193 6.276-6.874 10.22-1.68 3.898-2.515 8.052-2.505 12.463.01 4.41.863 8.56 2.56 12.451 1.698 3.843 4.005 7.216 6.92 10.119 2.916 2.902 6.322 5.194 10.22 6.874 3.898 1.681 8.076 2.516 12.533 2.506 4.41-.01 8.56-.864 12.451-2.561 3.937-1.698 7.334-4.005 10.189-6.92 2.903-2.915 5.194-6.298 6.875-10.149 1.68-3.898 2.515-8.052 2.505-12.463zm121.399 49.769l-21.606.048-39.066-66.349.148 66.435-20.198.045-.224-100.92 21.605-.048 39.066 66.42-.147-66.506 20.198-.045.224 100.92zm96.656-.214l-70.659.157-.224-100.921 20.198-.045.18 80.723 50.46-.112.045 20.198zm37.961-.084l-20.198.045-.224-100.921 20.198-.045.224 100.921zm106.719-.237l-21.605.048-39.066-66.349.147 66.435-20.198.045-.224-100.92 21.606-.048 39.066 66.42-.148-66.507 20.198-.044.224 100.92zm95.178-.211l-69.181.153-.224-100.92 69.181-.153.045 20.198-48.983.108.045 20.199 33.148-.074.045 20.198-33.148.074.045 20.127 48.982-.108.045 20.198z"/>
    <g>
      <mask id="a" width="488" height="414" x="111" y="78" maskUnits="userSpaceOnUse" style="mask-type:alpha">
        <ellipse fill="#fff" rx="138.028" ry="287.785" transform="rotate(-52.545 466.193 -217.37) skewX(.086)"/>
      </mask>
      <g mask="url(#a)">
        <path fill="#077187" d="M79.785 441.455h-3.063l-5.945-12.995v12.995h-2.162V425.69h3.063l5.945 13.017V425.69h2.162v15.765zm3.835-5.968c0-1.036.135-1.944.406-2.725.285-.796.668-1.456 1.148-1.982a4.371 4.371 0 011.712-1.193 5.752 5.752 0 012.162-.406c.766 0 1.479.135 2.14.406a4.34 4.34 0 011.733 1.193c.496.526.879 1.186 1.149 1.982.285.781.428 1.689.428 2.725s-.143 1.952-.428 2.747c-.27.781-.653 1.442-1.149 1.982a4.654 4.654 0 01-1.734 1.194 5.89 5.89 0 01-2.14.383 6.072 6.072 0 01-2.161-.383 4.697 4.697 0 01-1.712-1.194c-.48-.54-.863-1.201-1.148-1.982-.27-.795-.406-1.711-.406-2.747zm2.252 0c0 1.546.293 2.695.879 3.446.6.735 1.366 1.103 2.297 1.103.946 0 1.711-.368 2.297-1.103.6-.751.9-1.9.9-3.446 0-1.546-.3-2.688-.9-3.423-.586-.751-1.351-1.126-2.297-1.126-.931 0-1.697.375-2.297 1.126-.586.735-.879 1.877-.879 3.423zm11.442-5.968h1.712v-2.477l1.711-.451h.45v2.928h3.153v1.576h-3.153v7.793c0 .72.353 1.081 1.059 1.081.465 0 1.043-.211 1.734-.631l.586 1.351a5.317 5.317 0 01-1.532.811 4.764 4.764 0 01-1.576.293c-.796 0-1.404-.263-1.825-.789-.405-.54-.608-1.321-.608-2.342v-7.567h-1.711v-1.576zm15.021 0h1.712v-2.477l1.711-.451h.451v2.928h3.152v1.576h-3.152v7.793c0 .72.352 1.081 1.058 1.081.465 0 1.043-.211 1.734-.631l.586 1.351a5.317 5.317 0 01-1.532.811 4.764 4.764 0 01-1.576.293c-.796 0-1.404-.263-1.824-.789-.406-.54-.608-1.321-.608-2.342v-7.567h-1.712v-1.576zm12.014 1.621a4.938 4.938 0 011.621-1.441 4.162 4.162 0 012.027-.518c.706 0 1.306.083 1.802.248.495.165.893.428 1.193.788.316.345.541.803.676 1.374.15.57.225 1.261.225 2.072v7.792h-2.162v-8.017c0-1.667-.743-2.5-2.229-2.5-1.246 0-2.26.525-3.041 1.576v8.941h-2.162v-16.891h2.05v6.576zm16.737 8.896c.766 0 1.427-.143 1.982-.428.571-.3 1.029-.615 1.374-.946l.968 1.171c-.465.526-1.073.984-1.824 1.374-.75.391-1.606.586-2.567.586a6.198 6.198 0 01-2.207-.383 4.866 4.866 0 01-1.757-1.194c-.48-.54-.863-1.201-1.148-1.982-.271-.795-.406-1.711-.406-2.747 0-1.036.135-1.944.406-2.725.27-.796.645-1.456 1.126-1.982a4.4 4.4 0 011.689-1.193 5.58 5.58 0 012.139-.406 5.36 5.36 0 011.937.338c.601.21 1.111.54 1.531.991.421.45.744 1.013.969 1.689.24.661.36 1.441.36 2.342v1.577h-7.882c.09 1.336.435 2.327 1.036 2.972.615.631 1.374.946 2.274.946zm-.202-9.098c-.811 0-1.502.3-2.072.901-.556.585-.893 1.486-1.014 2.702h5.721c0-1.156-.233-2.042-.698-2.657-.451-.631-1.096-.946-1.937-.946zm13.655-1.419h1.712v-1.374c0-1.411.3-2.417.901-3.018.615-.6 1.501-.9 2.657-.9.766 0 1.404.157 1.914.473.526.315.954.915 1.284 1.801l-1.802.608c-.135-.36-.307-.638-.518-.833-.21-.195-.51-.293-.9-.293-.451 0-.796.158-1.036.473-.226.3-.338.788-.338 1.464v1.599h2.927v1.576h-2.927v10.36h-2.162v-10.36h-1.712v-1.576zm11.731 11.936h-2.162v-11.936h2.162v11.936zm-2.455-15.697c0-.48.128-.833.383-1.058.27-.241.6-.361.991-.361.405 0 .736.12.991.361.27.225.405.578.405 1.058 0 .48-.135.841-.405 1.081-.255.225-.586.338-.991.338-.391 0-.721-.113-.991-.338-.255-.24-.383-.601-.383-1.081zm8.781 3.761l.112 1.464a5.312 5.312 0 011.667-1.261 4.888 4.888 0 012.049-.541l.113 1.622-.27.247a5.185 5.185 0 00-1.915.383 4.058 4.058 0 00-1.418.946v9.076h-2.162v-11.936h1.824zm9.914 1.306c-.57 0-1.051.128-1.441.383-.39.255-.586.646-.586 1.171 0 .42.15.773.451 1.059.3.27.675.518 1.126.743.45.225.931.45 1.441.675a8.162 8.162 0 011.464.811c.45.3.826.676 1.126 1.126.3.436.45.991.45 1.667 0 1.006-.367 1.816-1.103 2.432-.736.6-1.757.901-3.063.901-1.291 0-2.282-.301-2.973-.901-.675-.616-1.141-1.464-1.396-2.545l1.869-.631c.075.496.195.901.361 1.217.18.315.39.563.63.743.24.18.503.308.788.383.286.06.578.09.879.09.51 0 .961-.12 1.351-.361.39-.255.585-.645.585-1.171 0-.39-.15-.713-.45-.968a5.612 5.612 0 00-1.126-.721c-.45-.225-.938-.45-1.464-.675a8.758 8.758 0 01-1.441-.856 4.457 4.457 0 01-1.126-1.194c-.3-.48-.451-1.073-.451-1.779 0-.345.068-.706.203-1.081.135-.39.36-.743.676-1.058.33-.316.758-.578 1.283-.789.541-.21 1.202-.315 1.982-.315 1.036 0 1.892.233 2.568.698.69.451 1.186 1.216 1.486 2.297l-1.869.631c-.165-.616-.436-1.096-.811-1.441-.375-.361-.848-.541-1.419-.541zm6.426-1.306h1.712v-2.477l1.711-.451h.451v2.928h3.152v1.576h-3.152v7.793c0 .72.352 1.081 1.058 1.081.465 0 1.043-.211 1.734-.631l.586 1.351a5.317 5.317 0 01-1.532.811 4.764 4.764 0 01-1.576.293c-.796 0-1.404-.263-1.824-.789-.406-.54-.608-1.321-.608-2.342v-7.567h-1.712v-1.576zm9.559 12.904c0-.24-.037-.443-.113-.608a3.187 3.187 0 00-.247-.45 4.699 4.699 0 01-.248-.473 1.53 1.53 0 01-.113-.631c0-.525.136-.908.406-1.148.285-.255.645-.383 1.081-.383.435 0 .796.128 1.081.383.285.24.428.623.428 1.148 0 .391-.06.811-.18 1.261a9.377 9.377 0 01-.473 1.374 7.908 7.908 0 01-.654 1.284c-.24.405-.487.758-.743 1.058l-1.013-.675c.21-.301.39-.646.54-1.036.166-.376.248-.743.248-1.104zm17.407-13.242c.691 0 1.314.135 1.869.406a3.554 3.554 0 011.442 1.193c.405.526.713 1.186.923 1.982.225.781.338 1.689.338 2.725s-.135 1.952-.406 2.747c-.27.781-.638 1.442-1.103 1.982a4.59 4.59 0 01-1.644 1.194 5.356 5.356 0 01-2.027.383 4.738 4.738 0 01-1.914-.383 6 6 0 01-1.554-.969l-.563 1.014h-1.036v-16.891h2.162v6.126c.42-.405.916-.758 1.486-1.058.586-.301 1.261-.451 2.027-.451zm-.473 1.757c-.601 0-1.156.12-1.666.36-.496.24-.954.563-1.374.968v6.824c.345.27.758.496 1.238.676.481.18 1.006.27 1.577.27.886 0 1.606-.368 2.162-1.103.57-.751.856-1.9.856-3.446 0-1.546-.263-2.688-.789-3.423-.51-.751-1.178-1.126-2.004-1.126zm18.129 8.603c0 .24.053.405.158.495.12.075.263.113.428.113.12 0 .247-.015.383-.045a2.91 2.91 0 00.382-.158l.361 1.396c-.24.12-.503.225-.788.316-.286.09-.601.135-.946.135-.526 0-.969-.12-1.329-.361-.36-.24-.586-.69-.676-1.351-.465.451-1.036.848-1.711 1.194-.661.345-1.442.518-2.342.518-1.187 0-2.05-.353-2.59-1.059-.541-.72-.811-1.764-.811-3.13v-8.085h2.162v8.107c0 .811.143 1.419.428 1.825.285.39.766.585 1.441.585.661 0 1.261-.12 1.802-.36a5.609 5.609 0 001.486-.969v-9.188h2.162v10.022zm3.63-10.022h1.712v-2.477l1.711-.451h.451v2.928h3.153v1.576h-3.153v7.793c0 .72.353 1.081 1.058 1.081.466 0 1.044-.211 1.734-.631l.586 1.351a5.317 5.317 0 01-1.532.811 4.764 4.764 0 01-1.576.293c-.796 0-1.404-.263-1.824-.789-.406-.54-.608-1.321-.608-2.342v-7.567h-1.712v-1.576zm15.021 0h1.712v-2.477l1.711-.451h.451v2.928h3.153v1.576h-3.153v7.793c0 .72.353 1.081 1.058 1.081.466 0 1.044-.211 1.734-.631l.586 1.351c-.45.346-.961.616-1.531.811a4.77 4.77 0 01-1.577.293c-.796 0-1.404-.263-1.824-.789-.405-.54-.608-1.321-.608-2.342v-7.567h-1.712v-1.576zm12.014 1.621a4.941 4.941 0 011.622-1.441 4.156 4.156 0 012.027-.518c.705 0 1.306.083 1.801.248.496.165.893.428 1.194.788.315.345.54.803.675 1.374.151.57.226 1.261.226 2.072v7.792h-2.162v-8.017c0-1.667-.744-2.5-2.23-2.5-1.246 0-2.26.525-3.04 1.576v8.941h-2.162v-16.891h2.049v6.576zm16.738 8.896c.765 0 1.426-.143 1.982-.428.57-.3 1.028-.615 1.373-.946l.969 1.171c-.466.526-1.074.984-1.824 1.374-.751.391-1.607.586-2.568.586a6.201 6.201 0 01-2.207-.383 4.862 4.862 0 01-1.756-1.194c-.481-.54-.864-1.201-1.149-1.982-.27-.795-.405-1.711-.405-2.747 0-1.036.135-1.944.405-2.725.27-.796.646-1.456 1.126-1.982a4.4 4.4 0 011.689-1.193 5.585 5.585 0 012.14-.406c.705 0 1.351.113 1.936.338.601.21 1.111.54 1.532.991.42.45.743 1.013.968 1.689.24.661.36 1.441.36 2.342v1.577h-7.882c.09 1.336.436 2.327 1.036 2.972.616.631 1.374.946 2.275.946zm-.203-9.098c-.811 0-1.501.3-2.072.901-.555.585-.893 1.486-1.013 2.702h5.72c0-1.156-.233-2.042-.698-2.657-.451-.631-1.096-.946-1.937-.946zm20.344-1.757c.691 0 1.314.135 1.869.406a3.554 3.554 0 011.442 1.193c.405.526.713 1.186.923 1.982.225.781.338 1.689.338 2.725s-.135 1.952-.406 2.747c-.27.781-.638 1.442-1.103 1.982a4.574 4.574 0 01-1.644 1.194 5.356 5.356 0 01-2.027.383 4.738 4.738 0 01-1.914-.383 6 6 0 01-1.554-.969l-.563 1.014h-1.036v-16.891h2.162v6.126c.42-.405.916-.758 1.486-1.058.586-.301 1.261-.451 2.027-.451zm-.473 1.757c-.6 0-1.156.12-1.666.36-.496.24-.954.563-1.374.968v6.824c.345.27.758.496 1.239.676.48.18 1.005.27 1.576.27.886 0 1.606-.368 2.162-1.103.57-.751.856-1.9.856-3.446 0-1.546-.263-2.688-.788-3.423-.511-.751-1.179-1.126-2.005-1.126zm13.783 9.098c.766 0 1.426-.143 1.982-.428.57-.3 1.028-.615 1.373-.946l.969 1.171c-.466.526-1.074.984-1.824 1.374-.751.391-1.607.586-2.568.586a6.205 6.205 0 01-2.207-.383 4.862 4.862 0 01-1.756-1.194c-.481-.54-.864-1.201-1.149-1.982-.27-.795-.405-1.711-.405-2.747 0-1.036.135-1.944.405-2.725.27-.796.646-1.456 1.126-1.982a4.414 4.414 0 011.689-1.193 5.585 5.585 0 012.14-.406c.705 0 1.351.113 1.936.338.601.21 1.111.54 1.532.991.42.45.743 1.013.968 1.689.24.661.361 1.441.361 2.342v1.577h-7.883c.09 1.336.436 2.327 1.036 2.972.616.631 1.374.946 2.275.946zm-.203-9.098c-.811 0-1.501.3-2.072.901-.555.585-.893 1.486-1.013 2.702h5.72c0-1.156-.233-2.042-.698-2.657-.45-.631-1.096-.946-1.937-.946zm12.112-.113c-.57 0-1.051.128-1.441.383-.39.255-.586.646-.586 1.171 0 .42.15.773.451 1.059.3.27.675.518 1.126.743.45.225.931.45 1.441.675a8.162 8.162 0 011.464.811c.45.3.826.676 1.126 1.126.3.436.45.991.45 1.667 0 1.006-.367 1.816-1.103 2.432-.736.6-1.757.901-3.063.901-1.291 0-2.282-.301-2.973-.901-.675-.616-1.141-1.464-1.396-2.545l1.869-.631c.075.496.195.901.361 1.217.18.315.39.563.63.743.24.18.503.308.788.383.286.06.578.09.879.09.51 0 .961-.12 1.351-.361.39-.255.586-.645.586-1.171 0-.39-.151-.713-.451-.968a5.612 5.612 0 00-1.126-.721c-.45-.225-.938-.45-1.464-.675a8.758 8.758 0 01-1.441-.856 4.457 4.457 0 01-1.126-1.194c-.3-.48-.451-1.073-.451-1.779 0-.345.068-.706.203-1.081.135-.39.36-.743.676-1.058.33-.316.758-.578 1.283-.789.541-.21 1.202-.315 1.982-.315 1.036 0 1.892.233 2.568.698.69.451 1.186 1.216 1.486 2.297l-1.869.631c-.165-.616-.436-1.096-.811-1.441-.375-.361-.848-.541-1.419-.541zm6.426-1.306h1.712v-2.477l1.711-.451h.451v2.928h3.152v1.576h-3.152v7.793c0 .72.352 1.081 1.058 1.081.465 0 1.043-.211 1.734-.631l.586 1.351a5.317 5.317 0 01-1.532.811 4.764 4.764 0 01-1.576.293c-.796 0-1.404-.263-1.824-.789-.406-.54-.608-1.321-.608-2.342v-7.567h-1.712v-1.576zm15.359 5.968c0-1.036.135-1.944.405-2.725.285-.796.668-1.456 1.149-1.982a4.37 4.37 0 011.711-1.193 5.756 5.756 0 012.162-.406c.766 0 1.479.135 2.14.406a4.348 4.348 0 011.734 1.193c.495.526.878 1.186 1.148 1.982.286.781.428 1.689.428 2.725s-.142 1.952-.428 2.747c-.27.781-.653 1.442-1.148 1.982a4.665 4.665 0 01-1.734 1.194 5.894 5.894 0 01-2.14.383 6.076 6.076 0 01-2.162-.383 4.695 4.695 0 01-1.711-1.194c-.481-.54-.864-1.201-1.149-1.982-.27-.795-.405-1.711-.405-2.747zm2.252 0c0 1.546.293 2.695.878 3.446.601.735 1.366 1.103 2.297 1.103.946 0 1.712-.368 2.297-1.103.601-.751.901-1.9.901-3.446 0-1.546-.3-2.688-.901-3.423-.585-.751-1.351-1.126-2.297-1.126-.931 0-1.696.375-2.297 1.126-.585.735-.878 1.877-.878 3.423zm14.279-5.968l.113 1.441a7.713 7.713 0 011.644-1.238c.63-.361 1.336-.541 2.117-.541.705 0 1.306.083 1.801.248.496.165.894.428 1.194.788.315.345.54.803.676 1.374.15.57.225 1.261.225 2.072v7.792h-2.162v-8.017c0-1.667-.758-2.5-2.275-2.5-.525 0-1.043.12-1.554.36-.51.24-.991.571-1.441.991v9.166h-2.162v-11.936h1.824zm14.215 10.022c0 .24.045.405.135.495a.686.686 0 00.406.113c.12 0 .255-.015.405-.045.15-.045.285-.098.406-.158l.36 1.396c-.24.12-.503.225-.788.316-.286.09-.601.135-.946.135-.3 0-.578-.038-.833-.113a1.478 1.478 0 01-.676-.36 1.947 1.947 0 01-.473-.721c-.105-.3-.158-.676-.158-1.126v-14.909h2.162v14.977zm6.664 1.914h-2.162v-11.936h2.162v11.936zm-2.455-15.697c0-.48.128-.833.383-1.058.271-.241.601-.361.991-.361.406 0 .736.12.991.361.27.225.405.578.405 1.058 0 .48-.135.841-.405 1.081-.255.225-.585.338-.991.338a1.5 1.5 0 01-.991-.338c-.255-.24-.383-.601-.383-1.081zm8.781 3.761l.113 1.441a7.713 7.713 0 011.644-1.238c.63-.361 1.336-.541 2.117-.541.705 0 1.306.083 1.801.248.496.165.894.428 1.194.788.315.345.54.803.676 1.374.15.57.225 1.261.225 2.072v7.792h-2.162v-8.017c0-1.667-.758-2.5-2.275-2.5-.525 0-1.043.12-1.554.36-.51.24-.991.571-1.441.991v9.166h-2.162v-11.936h1.824zm16.963 10.517c.766 0 1.426-.143 1.982-.428.57-.3 1.028-.615 1.374-.946l.968 1.171c-.465.526-1.074.984-1.824 1.374-.751.391-1.607.586-2.568.586a6.205 6.205 0 01-2.207-.383 4.862 4.862 0 01-1.756-1.194c-.481-.54-.863-1.201-1.149-1.982-.27-.795-.405-1.711-.405-2.747 0-1.036.135-1.944.405-2.725.27-.796.646-1.456 1.126-1.982a4.414 4.414 0 011.689-1.193 5.585 5.585 0 012.14-.406c.705 0 1.351.113 1.937.338.6.21 1.111.54 1.531.991.42.45.743 1.013.968 1.689.241.661.361 1.441.361 2.342v1.577h-7.883c.091 1.336.436 2.327 1.036 2.972.616.631 1.374.946 2.275.946zm-.203-9.098c-.81 0-1.501.3-2.072.901-.555.585-.893 1.486-1.013 2.702h5.72c0-1.156-.232-2.042-.698-2.657-.45-.631-1.096-.946-1.937-.946zm23.925 8.603c0 .24.053.405.158.495.12.075.263.113.428.113.12 0 .247-.015.383-.045a2.91 2.91 0 00.382-.158l.361 1.396c-.24.12-.503.225-.789.316-.285.09-.6.135-.945.135-.526 0-.969-.12-1.329-.361-.36-.24-.586-.69-.676-1.351-.465.451-1.036.848-1.711 1.194-.661.345-1.442.518-2.342.518-1.187 0-2.05-.353-2.59-1.059-.541-.72-.811-1.764-.811-3.13v-8.085h2.162v8.107c0 .811.143 1.419.428 1.825.285.39.766.585 1.441.585.661 0 1.261-.12 1.802-.36a5.609 5.609 0 001.486-.969v-9.188h2.162v10.022zm6.468-10.022l.112 1.441a7.764 7.764 0 011.644-1.238c.631-.361 1.337-.541 2.117-.541.706 0 1.307.083 1.802.248.495.165.893.428 1.194.788.315.345.54.803.675 1.374.15.57.225 1.261.225 2.072v7.792h-2.162v-8.017c0-1.667-.758-2.5-2.274-2.5-.526 0-1.044.12-1.554.36-.511.24-.991.571-1.441.991v9.166h-2.162v-11.936h1.824zm11.377 5.968c0-1.036.136-1.944.406-2.725.285-.796.668-1.456 1.148-1.982a4.373 4.373 0 011.712-1.193 5.753 5.753 0 012.162-.406c.766 0 1.479.135 2.139.406a4.334 4.334 0 011.734 1.193c.496.526.879 1.186 1.149 1.982.285.781.428 1.689.428 2.725s-.143 1.952-.428 2.747c-.27.781-.653 1.442-1.149 1.982a4.649 4.649 0 01-1.734 1.194 5.884 5.884 0 01-2.139.383 6.072 6.072 0 01-2.162-.383 4.7 4.7 0 01-1.712-1.194c-.48-.54-.863-1.201-1.148-1.982-.27-.795-.406-1.711-.406-2.747zm2.253 0c0 1.546.292 2.695.878 3.446.6.735 1.366 1.103 2.297 1.103.946 0 1.712-.368 2.297-1.103.601-.751.901-1.9.901-3.446 0-1.546-.3-2.688-.901-3.423-.585-.751-1.351-1.126-2.297-1.126-.931 0-1.697.375-2.297 1.126-.586.735-.878 1.877-.878 3.423zm23.434 4.549c.766 0 1.426-.143 1.982-.428.57-.3 1.028-.615 1.374-.946l.968 1.171c-.465.526-1.073.984-1.824 1.374-.751.391-1.607.586-2.568.586a6.205 6.205 0 01-2.207-.383 4.862 4.862 0 01-1.756-1.194c-.481-.54-.863-1.201-1.149-1.982-.27-.795-.405-1.711-.405-2.747 0-1.036.135-1.944.405-2.725.271-.796.646-1.456 1.126-1.982a4.414 4.414 0 011.689-1.193 5.585 5.585 0 012.14-.406c.705 0 1.351.113 1.937.338.6.21 1.111.54 1.531.991.42.45.743 1.013.968 1.689.241.661.361 1.441.361 2.342v1.577h-7.883c.091 1.336.436 2.327 1.036 2.972.616.631 1.374.946 2.275.946zm-.203-9.098c-.81 0-1.501.3-2.072.901-.555.585-.893 1.486-1.013 2.702h5.72c0-1.156-.232-2.042-.698-2.657-.45-.631-1.096-.946-1.937-.946zm12.135 2.77l2.702-4.189h2.117l-3.761 5.855 3.874 6.081h-2.365l-2.77-4.347-2.792 4.347h-2.117l3.873-6.013-3.761-5.923h2.365l2.635 4.189zm7.856-4.189h1.825l.112 1.396c.436-.45.954-.848 1.554-1.193.616-.361 1.344-.541 2.185-.541.69 0 1.313.135 1.869.406.57.255 1.051.653 1.441 1.193.406.526.713 1.186.924 1.982.225.781.337 1.689.337 2.725s-.135 1.952-.405 2.747c-.27.781-.638 1.442-1.104 1.982a4.574 4.574 0 01-1.644 1.194 5.351 5.351 0 01-2.026.383 4.96 4.96 0 01-1.577-.248 5.267 5.267 0 01-1.329-.676v5.878h-2.162v-17.228zm5.203 1.419a3.87 3.87 0 00-1.667.36c-.495.24-.953.563-1.374.968v6.824c.346.27.759.496 1.239.676.48.18 1.006.27 1.576.27.886 0 1.607-.368 2.162-1.103.571-.751.856-1.9.856-3.446 0-1.546-.262-2.688-.788-3.423-.51-.751-1.179-1.126-2.004-1.126zm13.782 9.098c.766 0 1.427-.143 1.982-.428.571-.3 1.029-.615 1.374-.946l.968 1.171c-.465.526-1.073.984-1.824 1.374-.751.391-1.606.586-2.567.586a6.198 6.198 0 01-2.207-.383 4.866 4.866 0 01-1.757-1.194c-.48-.54-.863-1.201-1.148-1.982-.271-.795-.406-1.711-.406-2.747 0-1.036.135-1.944.406-2.725.27-.796.645-1.456 1.126-1.982a4.4 4.4 0 011.689-1.193 5.576 5.576 0 012.139-.406 5.36 5.36 0 011.937.338c.6.21 1.111.54 1.531.991.421.45.743 1.013.969 1.689.24.661.36 1.441.36 2.342v1.577h-7.882c.09 1.336.435 2.327 1.036 2.972.615.631 1.374.946 2.274.946zm-.202-9.098c-.811 0-1.502.3-2.072.901-.556.585-.894 1.486-1.014 2.702h5.721c0-1.156-.233-2.042-.699-2.657-.45-.631-1.096-.946-1.936-.946zm10.423-1.419l.112 1.464a5.312 5.312 0 011.667-1.261 4.885 4.885 0 012.049-.541l.113 1.622-.27.247a5.185 5.185 0 00-1.915.383 4.071 4.071 0 00-1.419.946v9.076h-2.161v-11.936h1.824zm8.563 11.936h-2.162v-11.936h2.162v11.936zm-2.455-15.697c0-.48.128-.833.383-1.058.27-.241.6-.361.991-.361.405 0 .735.12.991.361.27.225.405.578.405 1.058 0 .48-.135.841-.405 1.081-.256.225-.586.338-.991.338-.391 0-.721-.113-.991-.338-.255-.24-.383-.601-.383-1.081zm11.866 14.278c.766 0 1.426-.143 1.982-.428.57-.3 1.028-.615 1.374-.946l.968 1.171c-.465.526-1.073.984-1.824 1.374-.751.391-1.607.586-2.567.586a6.198 6.198 0 01-2.207-.383 4.857 4.857 0 01-1.757-1.194c-.481-.54-.863-1.201-1.149-1.982-.27-.795-.405-1.711-.405-2.747 0-1.036.135-1.944.405-2.725.271-.796.646-1.456 1.126-1.982a4.414 4.414 0 011.689-1.193 5.585 5.585 0 012.14-.406 5.36 5.36 0 011.937.338c.6.21 1.111.54 1.531.991.42.45.743 1.013.968 1.689.241.661.361 1.441.361 2.342v1.577h-7.882c.09 1.336.435 2.327 1.036 2.972.615.631 1.373.946 2.274.946zm-.203-9.098c-.81 0-1.501.3-2.071.901-.556.585-.894 1.486-1.014 2.702h5.72c0-1.156-.232-2.042-.698-2.657-.45-.631-1.096-.946-1.937-.946zm10.423-1.419l.113 1.441a7.713 7.713 0 011.644-1.238c.631-.361 1.336-.541 2.117-.541.706 0 1.306.083 1.802.248.495.165.893.428 1.193.788.316.345.541.803.676 1.374.15.57.225 1.261.225 2.072v7.792h-2.162v-8.017c0-1.667-.758-2.5-2.275-2.5-.525 0-1.043.12-1.553.36-.511.24-.991.571-1.442.991v9.166h-2.162v-11.936h1.824zm19.125 3.288c-.345-1.246-1.111-1.869-2.297-1.869-.931 0-1.696.375-2.297 1.126-.601.735-.901 1.877-.901 3.423s.308 2.695.924 3.446c.615.735 1.396 1.103 2.342 1.103.675 0 1.283-.143 1.824-.428.54-.3.983-.615 1.329-.946l.968 1.171c-.465.526-1.066.984-1.802 1.374a5.052 5.052 0 01-2.409.586 6.022 6.022 0 01-2.185-.383 4.687 4.687 0 01-1.711-1.194c-.481-.54-.856-1.201-1.127-1.982-.27-.795-.405-1.711-.405-2.747 0-1.036.135-1.944.405-2.725.286-.796.669-1.456 1.149-1.982a4.366 4.366 0 011.712-1.193 5.576 5.576 0 012.139-.406c1.021 0 1.892.233 2.612.698.736.451 1.269 1.216 1.599 2.297l-1.869.631zm9.736 7.229c.766 0 1.427-.143 1.982-.428.571-.3 1.029-.615 1.374-.946l.968 1.171c-.465.526-1.073.984-1.824 1.374-.751.391-1.606.586-2.567.586a6.198 6.198 0 01-2.207-.383 4.866 4.866 0 01-1.757-1.194c-.48-.54-.863-1.201-1.148-1.982-.271-.795-.406-1.711-.406-2.747 0-1.036.135-1.944.406-2.725.27-.796.645-1.456 1.126-1.982a4.4 4.4 0 011.689-1.193 5.576 5.576 0 012.139-.406 5.36 5.36 0 011.937.338c.6.21 1.111.54 1.531.991.421.45.744 1.013.969 1.689.24.661.36 1.441.36 2.342v1.577h-7.882c.09 1.336.435 2.327 1.036 2.972.615.631 1.374.946 2.274.946zm-.202-9.098c-.811 0-1.502.3-2.072.901-.556.585-.894 1.486-1.014 2.702h5.721c0-1.156-.233-2.042-.699-2.657-.45-.631-1.096-.946-1.936-.946zM73.525 467.036c.765 0 1.426-.143 1.981-.428.57-.3 1.029-.615 1.374-.946l.969 1.171c-.466.526-1.074.984-1.825 1.374-.75.391-1.606.586-2.567.586a6.2 6.2 0 01-2.207-.383 4.863 4.863 0 01-1.757-1.194c-.48-.54-.863-1.201-1.148-1.982-.27-.795-.406-1.711-.406-2.747 0-1.036.136-1.944.406-2.725.27-.796.645-1.456 1.126-1.982a4.406 4.406 0 011.689-1.193 5.581 5.581 0 012.14-.406c.705 0 1.35.113 1.936.338.6.21 1.111.54 1.531.991.42.45.744 1.013.969 1.689.24.661.36 1.441.36 2.342v1.577h-7.882c.09 1.336.435 2.327 1.036 2.972.615.631 1.374.946 2.275.946zm-.203-9.098c-.81 0-1.502.3-2.072.901-.556.585-.893 1.486-1.013 2.702h5.72c0-1.156-.233-2.042-.698-2.657-.45-.631-1.096-.946-1.937-.946zm13.801 10.517h-2.838l-3.828-11.936h2.23l3.13 9.932 3.13-9.932h2.004l-3.828 11.936zm11.781-1.419c.766 0 1.427-.143 1.982-.428.571-.3 1.029-.615 1.374-.946l.968 1.171c-.465.526-1.073.984-1.824 1.374-.751.391-1.606.586-2.567.586a6.201 6.201 0 01-2.207-.383 4.862 4.862 0 01-1.757-1.194c-.48-.54-.863-1.201-1.148-1.982-.27-.795-.406-1.711-.406-2.747 0-1.036.135-1.944.406-2.725.27-.796.645-1.456 1.126-1.982a4.406 4.406 0 011.689-1.193 5.581 5.581 0 012.139-.406c.706 0 1.351.113 1.937.338.6.21 1.111.54 1.531.991.421.45.743 1.013.969 1.689.24.661.36 1.441.36 2.342v1.577h-7.882c.09 1.336.435 2.327 1.036 2.972.615.631 1.373.946 2.274.946zm-.202-9.098c-.811 0-1.502.3-2.072.901-.556.585-.894 1.486-1.014 2.702h5.72c0-1.156-.232-2.042-.698-2.657-.45-.631-1.096-.946-1.936-.946zm10.423-1.419l.112 1.464a5.312 5.312 0 011.667-1.261 4.88 4.88 0 012.049-.541l.113 1.622-.271.247a5.184 5.184 0 00-1.914.383 4.071 4.071 0 00-1.419.946v9.076H107.3v-11.936h1.825zM155.32 200.431c0 5.584-1.056 10.838-3.167 15.765-2.112 4.879-4.997 9.149-8.657 12.808-3.659 3.613-7.952 6.475-12.879 8.586-4.879 2.112-10.111 3.167-15.694 3.167s-10.838-1.055-15.764-3.167c-4.88-2.111-9.15-4.973-12.809-8.586-3.613-3.659-6.475-7.929-8.586-12.808-2.111-4.927-3.167-10.181-3.167-15.765v-60.594h20.128v60.594c0 2.769.516 5.373 1.548 7.812 1.08 2.44 2.534 4.575 4.364 6.405 1.829 1.829 3.964 3.284 6.404 4.363 2.487 1.032 5.114 1.548 7.882 1.548s5.372-.516 7.812-1.548c2.487-1.079 4.645-2.534 6.475-4.363a19.988 19.988 0 004.293-6.405c1.079-2.439 1.618-5.043 1.618-7.812v-60.594h20.199v60.594zm105.452 40.326h-21.605l-38.919-66.435v66.435H180.05v-100.92h21.606l38.918 66.506v-66.506h20.198v100.92zm124.877-50.038c0 4.786-.633 9.407-1.9 13.865a52.994 52.994 0 01-5.208 12.456 52.08 52.08 0 01-8.163 10.557 54.23 54.23 0 01-10.557 8.234c-3.847 2.252-7.999 3.988-12.457 5.208-4.457 1.267-9.078 1.9-13.864 1.9-4.786 0-9.407-.633-13.864-1.9a52.984 52.984 0 01-12.457-5.208 54.23 54.23 0 01-10.557-8.234 54.17 54.17 0 01-8.234-10.557 55.25 55.25 0 01-5.278-12.456c-1.22-4.458-1.83-9.079-1.83-13.865 0-4.785.61-9.407 1.83-13.864 1.267-4.457 3.026-8.609 5.278-12.457a54.193 54.193 0 018.234-10.556 52.104 52.104 0 0110.557-8.164 52.984 52.984 0 0112.457-5.208c4.457-1.267 9.078-1.9 13.864-1.9 4.786 0 9.407.633 13.864 1.9 4.458 1.22 8.61 2.956 12.457 5.208a52.104 52.104 0 0110.557 8.164 52.1 52.1 0 018.163 10.556c2.252 3.848 3.988 8 5.208 12.457 1.267 4.457 1.9 9.079 1.9 13.864zm-20.057 0c0-4.41-.845-8.562-2.534-12.456-1.689-3.941-3.988-7.343-6.897-10.205-2.862-2.909-6.263-5.208-10.204-6.897-3.894-1.689-8.047-2.534-12.457-2.534-4.457 0-8.633.845-12.527 2.534-3.894 1.689-7.296 3.988-10.205 6.897-2.909 2.862-5.208 6.264-6.897 10.205-1.689 3.894-2.533 8.046-2.533 12.456 0 4.411.844 8.563 2.533 12.457 1.689 3.847 3.988 7.225 6.897 10.134 2.909 2.909 6.311 5.208 10.205 6.897s8.07 2.534 12.527 2.534c4.41 0 8.563-.845 12.457-2.534 3.941-1.689 7.342-3.988 10.204-6.897 2.909-2.909 5.208-6.287 6.897-10.134 1.689-3.894 2.534-8.046 2.534-12.457zm-190.989 140c0 4.786-.634 9.407-1.9 13.865a52.994 52.994 0 01-5.208 12.456 52.084 52.084 0 01-8.164 10.557 54.17 54.17 0 01-10.557 8.234c-3.847 2.252-7.999 3.988-12.456 5.208-4.457 1.267-9.079 1.9-13.865 1.9-4.785 0-9.407-.633-13.864-1.9a53.007 53.007 0 01-12.457-5.208 54.2 54.2 0 01-10.556-8.234 54.155 54.155 0 01-8.234-10.557 55.238 55.238 0 01-5.278-12.456c-1.22-4.458-1.83-9.079-1.83-13.865 0-4.785.61-9.407 1.83-13.864 1.266-4.457 3.026-8.609 5.278-12.457a54.179 54.179 0 018.234-10.556 52.076 52.076 0 0110.556-8.164 53.007 53.007 0 0112.457-5.208c4.457-1.267 9.079-1.9 13.864-1.9 4.786 0 9.408.633 13.865 1.9 4.457 1.22 8.609 2.956 12.456 5.208a52.048 52.048 0 0110.557 8.164 52.106 52.106 0 018.164 10.556c2.252 3.848 3.988 8 5.208 12.457 1.266 4.457 1.9 9.079 1.9 13.864zm-20.058 0c0-4.41-.844-8.562-2.533-12.456-1.689-3.941-3.988-7.343-6.897-10.205-2.862-2.909-6.264-5.208-10.205-6.897-3.894-1.689-8.046-2.534-12.457-2.534-4.457 0-8.632.845-12.527 2.534-3.894 1.689-7.295 3.988-10.204 6.897-2.91 2.862-5.208 6.264-6.897 10.205-1.69 3.894-2.534 8.046-2.534 12.456 0 4.411.845 8.563 2.534 12.457 1.689 3.847 3.988 7.225 6.897 10.134 2.909 2.909 6.31 5.208 10.204 6.897 3.895 1.689 8.07 2.534 12.527 2.534 4.411 0 8.563-.845 12.457-2.534 3.941-1.689 7.343-3.988 10.205-6.897 2.909-2.909 5.208-6.287 6.897-10.134 1.689-3.894 2.533-8.046 2.533-12.457zm121.288 50.038h-21.606l-38.918-66.435v66.435h-20.198v-100.92h21.605l38.919 66.506v-66.506h20.198v100.92zm96.656 0H301.83v-100.92h20.199v80.722h50.46v20.198zm37.961 0h-20.198v-100.92h20.198v100.92zm106.72 0h-21.606l-38.918-66.435v66.435h-20.199v-100.92h21.606l38.919 66.506v-66.506h20.198v100.92zm95.178 0h-69.181v-100.92h69.181v20.198h-48.983v20.198h33.148v20.198h-33.148v20.128h48.983v20.198z"/>
      </g>
    </g>
  </g>
  <defs>
    <filter id="filter0_d_9_138" width="696.839" height="435.881" x="31.198" y="102.744" color-interpolation-filters="sRGB" filterUnits="userSpaceOnUse">
      <feFlood flood-opacity="0" result="BackgroundImageFix"/>
      <feColorMatrix in="SourceAlpha" result="hardAlpha" values="0 0 0 0 0 0 0 0 0 0 0 0 0 0 0 0 0 0 127 0"/>
      <feOffset dx="8.019" dy="8.019"/>
      <feGaussianBlur stdDeviation="4.009"/>
      <feComposite in2="hardAlpha" operator="out"/>
      <feColorMatrix values="0 0 0 0 0.105882 0 0 0 0 0.101961 0 0 0 0 0.180392 0 0 0 0.15 0"/>
      <feBlend in2="BackgroundImageFix" result="effect1_dropShadow_9_138"/>
      <feBlend in="SourceGraphic" in2="effect1_dropShadow_9_138" result="shape"/>
    </filter>
    <filter id="filter1_d_9_138" width="700.951" height="586.037" x=".348" y=".118" color-interpolation-filters="sRGB" filterUnits="userSpaceOnUse">
      <feFlood flood-opacity="0" result="BackgroundImageFix"/>
      <feColorMatrix in="SourceAlpha" result="hardAlpha" values="0 0 0 0 0 0 0 0 0 0 0 0 0 0 0 0 0 0 127 0"/>
      <feOffset dx="8.019" dy="8.019"/>
      <feGaussianBlur stdDeviation="4.009"/>
      <feComposite in2="hardAlpha" operator="out"/>
      <feColorMatrix values="0 0 0 0 0.104109 0 0 0 0 0.103021 0 0 0 0 0.179167 0 0 0 0.15 0"/>
      <feBlend in2="BackgroundImageFix" result="effect1_dropShadow_9_138"/>
      <feBlend in="SourceGraphic" in2="effect1_dropShadow_9_138" result="shape"/>
    </filter>
  </defs>
</svg>
