<svg xmlns="http://www.w3.org/2000/svg" width="1393" height="472" fill="none" viewBox="0 0 1393 472">
  <path stroke="#fff" stroke-dasharray="24 24" stroke-linecap="round" stroke-linejoin="round" stroke-width="12" d="M1387 466H27a4 4 0 0 1-4-4V224"/>
  <path fill="#fff" d="M20.036 202c1.54-2.667 5.388-2.667 6.928 0l8.227 14.25c1.54 2.667-.385 6-3.464 6H15.273c-3.08 0-5.004-3.333-3.464-6L20.036 202Z"/>
  <path stroke="#fff" stroke-dasharray="24 24" stroke-linecap="round" stroke-linejoin="round" stroke-width="12" d="M6 6h1360a4 4 0 0 1 4 4v238"/>
  <path fill="#fff" d="M1372.96 270c-1.54 2.667-5.38 2.667-6.92 0l-8.23-14.25c-1.54-2.667.38-6 3.46-6h16.46c3.08 0 5 3.333 3.46 6l-8.23 14.25Z"/>
</svg>
