<svg xmlns="http://www.w3.org/2000/svg" xmlns:xlink="http://www.w3.org/1999/xlink" width="1063" height="997" fill="none" viewBox="0 0 1063 997">
  <path fill="url(#a)" fill-rule="evenodd" d="m673.742 775.507-.5.001c-214.396.476-388.614-172.805-389.36-387.137h-.001l-.001-.5C283.404 173.309 109.081-.242-105.481.234-320.043.71-493.594 175.033-493.118 389.596c.477 214.562 174.8 388.113 389.362 387.636l.5-.001.672 302.999 397.438-.88c-6.117 27.52-9.314 56.14-9.249 85.52.476 214.56 174.799 388.11 389.361 387.64 214.562-.48 388.114-174.8 387.634-389.37-.47-214.391-174.525-387.839-388.858-387.633Z" clip-rule="evenodd"/>
  <path fill="url(#b)" fill-opacity=".15" fill-rule="evenodd" d="m673.742 775.507-.5.001c-214.396.476-388.614-172.805-389.36-387.137h-.001l-.001-.5C283.404 173.309 109.081-.242-105.481.234-320.043.71-493.594 175.033-493.118 389.596c.477 214.562 174.8 388.113 389.362 387.636l.5-.001.672 302.999 397.438-.88c-6.117 27.52-9.314 56.14-9.249 85.52.476 214.56 174.799 388.11 389.361 387.64 214.562-.48 388.114-174.8 387.634-389.37-.47-214.391-174.525-387.839-388.858-387.633Z" clip-rule="evenodd"/>
  <defs>
    <linearGradient id="a" x1="638.615" x2="-441.019" y1="1168.81" y2="366.879" gradientUnits="userSpaceOnUse">
      <stop stop-color="#264653"/>
      <stop offset="1" stop-color="#74A57F"/>
    </linearGradient>
    <pattern id="b" width=".129" height=".129" patternContentUnits="objectBoundingBox">
      <use xlink:href="#c" transform="scale(.00064)"/>
    </pattern>
  </defs>
</svg>
