<svg xmlns="http://www.w3.org/2000/svg" xmlns:xlink="http://www.w3.org/1999/xlink" width="719" height="1080" fill="none" viewBox="0 0 719 1080">
  <path fill="url(#a)" fill-rule="evenodd" d="m389.424 396.399.5-.001c214.395-.476 388.614 172.805 389.36 387.137l.001.5c.476 214.562 174.799 388.115 389.365 387.635 214.56-.47 388.11-174.798 387.63-389.36-.47-214.562-174.8-388.113-389.36-387.637l-.5.002-.67-303-397.438.882c6.117-27.524 9.314-56.145 9.249-85.52-.477-214.562-174.8-388.113-389.362-387.637C173.637-380.124.086-205.801.562 8.761 1.038 223.157 175.091 396.605 389.425 396.4Z" clip-rule="evenodd"/>
  <path fill="url(#b)" fill-opacity=".15" fill-rule="evenodd" d="m389.424 396.399.5-.001c214.395-.476 388.614 172.805 389.36 387.137l.001.5c.476 214.562 174.799 388.115 389.365 387.635 214.56-.47 388.11-174.798 387.63-389.36-.47-214.562-174.8-388.113-389.36-387.637l-.5.002-.67-303-397.438.882c6.117-27.524 9.314-56.145 9.249-85.52-.477-214.562-174.8-388.113-389.362-387.637C173.637-380.124.086-205.801.562 8.761 1.038 223.157 175.091 396.605 389.425 396.4Z" clip-rule="evenodd"/>
  <defs>
    <linearGradient id="a" x1="424.551" x2="1504.18" y1="3.095" y2="805.027" gradientUnits="userSpaceOnUse">
      <stop stop-color="#74A57F"/>
      <stop offset="1" stop-color="#264653"/>
    </linearGradient>
    <pattern id="b" width=".129" height=".129" patternContentUnits="objectBoundingBox">
      <use xlink:href="#c" transform="scale(.00064)"/>
    </pattern>
  </defs>
</svg>
