<svg width="226" height="365" viewBox="0 0 226 365" fill="none" xmlns="http://www.w3.org/2000/svg">
<rect x="6.13512" y="5.4066" width="213.374" height="352.809" rx="24.6301" fill="#7776BC" stroke="white" stroke-width="10.8132" stroke-linejoin="round"/>
<path d="M55.3895 130.481C106.901 63.0145 174.855 28.3951 207.168 53.1558C239.481 77.9164 223.918 152.681 172.406 220.147C120.894 287.613 52.94 322.232 20.6269 297.472C-11.6862 272.711 3.87755 197.946 55.3895 130.481Z" fill="white"/>
<path d="M48.8079 182.119C48.8079 173.701 50.466 165.364 53.6876 157.587C56.9093 149.809 61.6313 142.742 67.584 136.789C73.5368 130.837 80.6038 126.115 88.3815 122.893C96.1591 119.671 104.495 118.013 112.914 118.013L112.914 182.119L48.8079 182.119Z" fill="#DA4167"/>
<path d="M112.914 118.013C129.916 118.013 146.221 124.767 158.243 136.789C170.266 148.812 177.02 165.117 177.02 182.119L112.914 182.119L112.914 118.013Z" fill="#EFF1C5"/>
<path d="M177.02 182.119C177.02 199.121 170.266 215.426 158.243 227.449C146.221 239.471 129.916 246.225 112.914 246.225L112.914 182.119L177.02 182.119Z" fill="#899D78"/>
<path d="M112.914 246.225C95.9118 246.225 79.6062 239.471 67.584 227.449C55.5619 215.427 48.8079 199.121 48.8079 182.119L112.914 182.119L112.914 246.225Z" fill="#7776BC"/>
</svg>
