<svg width="227" height="365" viewBox="0 0 227 365" fill="none" xmlns="http://www.w3.org/2000/svg">
<rect x="7.12706" y="5.7069" width="213.374" height="352.809" rx="24.6301" fill="#7776BC" stroke="white" stroke-width="10.8132" stroke-linejoin="round"/>
<path d="M56.3815 130.781C107.893 63.3151 175.847 28.6956 208.16 53.4563C240.473 78.217 224.91 152.981 173.398 220.447C121.886 287.913 53.9319 322.533 21.6188 297.772C-10.6943 273.011 4.86949 198.247 56.3815 130.781Z" fill="white"/>
<path d="M163.897 167.351C163.897 175.729 163.047 183.924 161.348 191.938C159.708 199.89 157.311 207.418 154.154 214.52C150.997 221.623 147.142 228.179 142.589 234.189C138.036 240.199 132.876 245.45 127.109 249.942H91.8692C95.5723 247.575 99.154 244.934 102.614 242.02C106.074 239.106 109.353 235.98 112.449 232.641C115.605 229.302 118.519 225.781 121.19 222.078C123.861 218.375 126.229 214.551 128.293 210.605C125.622 212.365 122.769 213.883 119.733 215.158C116.698 216.372 113.572 216.979 110.354 216.979C102.948 216.979 96.3008 215.765 90.4123 213.336C84.5238 210.848 79.4851 207.418 75.2964 203.047C71.1684 198.615 67.9813 193.364 65.7352 187.294C63.5497 181.223 62.457 174.576 62.457 167.351C62.457 160.31 63.7015 153.662 66.1905 147.409C68.7401 141.096 72.2307 135.602 76.6623 130.928C81.0938 126.193 86.3449 122.459 92.4156 119.727C98.4862 116.996 105.073 115.63 112.175 115.63C119.339 115.63 126.047 116.996 132.3 119.727C138.613 122.459 144.107 126.193 148.781 130.928C153.456 135.602 157.128 141.096 159.8 147.409C162.531 153.662 163.897 160.31 163.897 167.351ZM135.942 167.351C135.942 164.013 135.365 160.795 134.212 157.699C133.058 154.603 131.419 151.871 129.295 149.504C127.231 147.136 124.742 145.254 121.828 143.858C118.914 142.462 115.696 141.764 112.175 141.764C108.594 141.764 105.346 142.462 102.432 143.858C99.5789 145.194 97.1203 147.015 95.0563 149.322C92.9923 151.629 91.4139 154.33 90.3212 157.426C89.2285 160.522 88.6821 163.831 88.6821 167.351C88.6821 170.812 89.2285 174.09 90.3212 177.186C91.4139 180.221 92.9923 182.892 95.0563 185.199C97.1203 187.506 99.5789 189.327 102.432 190.663C105.346 191.998 108.594 192.666 112.175 192.666C115.757 192.666 119.005 191.998 121.919 190.663C124.893 189.327 127.413 187.506 129.477 185.199C131.541 182.892 133.119 180.221 134.212 177.186C135.365 174.09 135.942 170.812 135.942 167.351Z" fill="#7776BC"/>
</svg>
