<svg width="226" height="365" viewBox="0 0 226 365" fill="none" xmlns="http://www.w3.org/2000/svg">
<rect x="6.80626" y="5.65319" width="213.374" height="352.809" rx="24.6301" fill="#DA4167" stroke="white" stroke-width="10.8132" stroke-linejoin="round"/>
<path d="M56.0607 130.727C107.573 63.2614 175.526 28.6419 207.839 53.4026C240.152 78.1633 224.589 152.928 173.077 220.394C121.565 287.86 53.6111 322.479 21.298 297.718C-11.0151 272.958 4.54869 198.193 56.0607 130.727Z" fill="white"/>
<path d="M164.214 201.991C164.214 209.033 162.939 215.681 160.389 221.933C157.9 228.186 154.44 233.68 150.009 238.415C145.577 243.09 140.296 246.793 134.164 249.524C128.094 252.256 121.507 253.622 114.404 253.622C107.302 253.622 100.594 252.256 94.2802 249.524C88.0274 246.793 82.5639 243.09 77.8895 238.415C73.2151 233.68 69.512 228.186 66.7802 221.933C64.1092 215.681 62.7736 209.033 62.7736 201.991C62.7736 193.614 63.5932 185.449 65.2322 177.496C66.8713 169.483 69.2692 161.925 72.4259 154.823C75.5827 147.659 79.4375 141.073 83.9905 135.063C88.5434 129.053 93.7035 123.802 99.4706 119.309H134.711C131.068 121.677 127.517 124.318 124.057 127.232C120.596 130.146 117.288 133.272 114.131 136.611C111.035 139.95 108.152 143.471 105.481 147.174C102.809 150.877 100.442 154.732 98.3779 158.738C100.988 156.978 103.811 155.49 106.846 154.276C109.942 153.001 113.099 152.364 116.317 152.364C123.662 152.364 130.279 153.609 136.168 156.097C142.117 158.526 147.155 161.956 151.283 166.387C155.411 170.758 158.598 175.979 160.845 182.049C163.091 188.12 164.214 194.767 164.214 201.991ZM138.08 201.991C138.08 198.531 137.503 195.283 136.35 192.248C135.257 189.152 133.679 186.451 131.615 184.144C129.551 181.776 127.062 179.925 124.148 178.589C121.234 177.254 117.986 176.586 114.404 176.586C110.823 176.586 107.575 177.254 104.661 178.589C101.747 179.925 99.2581 181.776 97.1941 184.144C95.1908 186.451 93.6428 189.152 92.5501 192.248C91.4574 195.283 90.911 198.531 90.911 201.991C90.911 205.33 91.4574 208.548 92.5501 211.644C93.7035 214.679 95.3122 217.38 97.3762 219.748C99.4402 222.116 101.899 223.997 104.752 225.394C107.666 226.79 110.883 227.488 114.404 227.488C117.986 227.488 121.234 226.82 124.148 225.485C127.062 224.149 129.551 222.328 131.615 220.021C133.679 217.654 135.257 214.922 136.35 211.826C137.503 208.73 138.08 205.452 138.08 201.991Z" fill="#DA4167"/>
</svg>
