<svg width="226" height="365" viewBox="0 0 226 365" fill="none" xmlns="http://www.w3.org/2000/svg">
<rect x="6.16368" y="5.97643" width="213.374" height="352.809" rx="24.6301" fill="#DA4167" stroke="white" stroke-width="10.8132" stroke-linejoin="round"/>
<path d="M55.4183 131.05C106.93 63.5836 174.884 28.9642 207.197 53.7248C239.51 78.4855 223.946 153.25 172.434 220.716C120.922 288.182 52.9688 322.801 20.6557 298.041C-11.6574 273.28 3.90636 198.516 55.4183 131.05Z" fill="white"/>
<path d="M139.714 184.922C139.714 170.414 137.286 159.638 132.429 152.596C127.633 145.554 120.925 142.033 112.305 142.033C103.745 142.033 97.0981 145.524 92.363 152.505C87.6279 159.486 85.2604 170.292 85.2604 184.922C85.2604 199.431 87.6279 210.206 92.363 217.248C97.0981 224.29 103.745 227.811 112.305 227.811C116.615 227.811 120.47 226.961 123.87 225.262C127.269 223.501 130.122 220.86 132.429 217.339C134.797 213.819 136.588 209.387 137.802 204.045C139.077 198.642 139.714 192.268 139.714 184.922ZM164.573 184.922C164.573 197.306 163.207 207.778 160.475 216.338C157.744 224.897 154.01 231.818 149.275 237.099C144.54 242.381 138.985 246.205 132.611 248.573C126.298 250.88 119.529 252.033 112.305 252.033C105.081 252.033 98.2819 250.849 91.9077 248.482C85.5943 246.054 80.07 242.199 75.3349 236.917C70.6605 231.575 66.9575 224.655 64.2257 216.156C61.4939 207.596 60.128 197.185 60.128 184.922C60.128 172.538 61.4939 162.097 64.2257 153.598C66.9575 145.038 70.6605 138.118 75.3349 132.836C80.07 127.555 85.5943 123.73 91.9077 121.363C98.2819 118.995 105.081 117.812 112.305 117.812C119.529 117.812 126.298 119.026 132.611 121.454C138.985 123.821 144.54 127.676 149.275 133.018C154.01 138.361 157.744 145.281 160.475 153.78C163.207 162.279 164.573 172.66 164.573 184.922Z" fill="#DA4167"/>
</svg>
