<svg width="226" height="365" viewBox="0 0 226 365" fill="none" xmlns="http://www.w3.org/2000/svg">
<rect x="6.74157" y="5.7069" width="213.374" height="352.809" rx="24.6301" fill="#899D78" stroke="white" stroke-width="10.8132" stroke-linejoin="round"/>
<path d="M55.9962 130.781C107.508 63.3151 175.462 28.6956 207.775 53.4563C240.088 78.217 224.524 152.981 173.012 220.447C121.5 287.913 53.5467 322.533 21.2336 297.772C-11.0795 273.011 4.48424 198.247 55.9962 130.781Z" fill="white"/>
<path d="M161.235 208.875C161.235 215.249 160.112 220.985 157.866 226.085C155.62 231.184 152.615 235.494 148.851 239.015C145.087 242.536 140.717 245.238 135.739 247.12C130.821 249.001 125.661 249.942 120.258 249.942H67.6261V223.808H120.258C122.019 223.808 123.779 223.535 125.54 222.989C127.361 222.442 128.97 221.562 130.366 220.348C131.823 219.134 132.976 217.586 133.826 215.704C134.737 213.822 135.192 211.546 135.192 208.875C135.192 206.446 134.737 204.322 133.826 202.5C132.976 200.619 131.823 199.071 130.366 197.856C128.97 196.582 127.361 195.641 125.54 195.034C123.779 194.366 122.019 194.032 120.258 194.032H67.6261L75.2751 119.363H155.863V145.497H98.7685L96.4009 167.898H120.258C125.661 167.898 130.821 168.839 135.739 170.721C140.717 172.603 145.087 175.334 148.851 178.916C152.615 182.437 155.62 186.747 157.866 191.846C160.112 196.885 161.235 202.561 161.235 208.875Z" fill="#899D78"/>
</svg>
