<svg width="226" height="365" viewBox="0 0 226 365" fill="none" xmlns="http://www.w3.org/2000/svg">
<rect x="6.54918" y="5.7069" width="213.374" height="352.809" rx="24.6301" fill="#EFF1C5" stroke="white" stroke-width="10.8132" stroke-linejoin="round"/>
<path d="M55.8036 130.781C107.316 63.3151 175.269 28.6956 207.582 53.4563C239.895 78.217 224.332 152.981 172.82 220.447C121.308 287.913 53.3541 322.533 21.041 297.772C-11.2721 273.011 4.29161 198.247 55.8036 130.781Z" fill="white"/>
<path d="M161.043 208.875C161.043 215.249 159.92 220.985 157.674 226.085C155.428 231.184 152.423 235.494 148.659 239.015C144.895 242.536 140.524 245.238 135.546 247.12C130.629 249.001 125.469 249.942 120.066 249.942H67.4338V223.808H120.066C121.827 223.808 123.587 223.535 125.348 222.989C127.169 222.442 128.777 221.562 130.174 220.348C131.631 219.134 132.784 217.586 133.634 215.704C134.545 213.822 135 211.546 135 208.875C135 206.446 134.545 204.322 133.634 202.5C132.784 200.619 131.631 199.071 130.174 197.856C128.777 196.582 127.169 195.641 125.348 195.034C123.587 194.366 121.827 194.032 120.066 194.032H67.4338L75.0828 119.363H155.67V145.497H98.5761L96.2085 167.898H120.066C125.469 167.898 130.629 168.839 135.546 170.721C140.524 172.603 144.895 175.334 148.659 178.916C152.423 182.437 155.428 186.747 157.674 191.846C159.92 196.885 161.043 202.561 161.043 208.875Z" fill="#EFF1C5"/>
</svg>
