<svg width="226" height="365" viewBox="0 0 226 365" fill="none" xmlns="http://www.w3.org/2000/svg">
<rect x="6.19152" y="5.65319" width="213.374" height="352.809" rx="24.6301" fill="#EFF1C5" stroke="white" stroke-width="10.8132" stroke-linejoin="round"/>
<path d="M55.4462 130.727C106.958 63.2614 174.912 28.6419 207.225 53.4026C239.538 78.1633 223.974 152.928 172.462 220.394C120.95 287.86 52.9966 322.479 20.6835 297.718C-11.6296 272.958 3.93419 198.193 55.4462 130.727Z" fill="white"/>
<path d="M163.599 201.991C163.599 209.033 162.324 215.681 159.775 221.933C157.286 228.186 153.825 233.68 149.394 238.415C144.962 243.09 139.681 246.793 133.549 249.524C127.479 252.256 120.892 253.622 113.79 253.622C106.687 253.622 99.9789 252.256 93.6654 249.524C87.4127 246.793 81.9491 243.09 77.2748 238.415C72.6004 233.68 68.8973 228.186 66.1655 221.933C63.4944 215.681 62.1589 209.033 62.1589 201.991C62.1589 193.614 62.9784 185.449 64.6175 177.496C66.2566 169.483 68.6545 161.925 71.8112 154.823C74.9679 147.659 78.8228 141.073 83.3757 135.063C87.9287 129.053 93.0887 123.802 98.8558 119.309H134.096C130.453 121.677 126.902 124.318 123.442 127.232C119.982 130.146 116.673 133.272 113.516 136.611C110.42 139.95 107.537 143.471 104.866 147.174C102.195 150.877 99.8271 154.732 97.7631 158.738C100.373 156.978 103.196 155.49 106.232 154.276C109.328 153.001 112.484 152.364 115.702 152.364C123.047 152.364 129.664 153.609 135.553 156.097C141.502 158.526 146.541 161.956 150.669 166.387C154.797 170.758 157.984 175.979 160.23 182.049C162.476 188.12 163.599 194.767 163.599 201.991ZM137.465 201.991C137.465 198.531 136.888 195.283 135.735 192.248C134.642 189.152 133.064 186.451 131 184.144C128.936 181.776 126.447 179.925 123.533 178.589C120.619 177.254 117.371 176.586 113.79 176.586C110.208 176.586 106.96 177.254 104.046 178.589C101.132 179.925 98.6434 181.776 96.5793 184.144C94.576 186.451 93.028 189.152 91.9353 192.248C90.8426 195.283 90.2962 198.531 90.2962 201.991C90.2962 205.33 90.8426 208.548 91.9353 211.644C93.0887 214.679 94.6975 217.38 96.7615 219.748C98.8255 222.116 101.284 223.997 104.137 225.394C107.051 226.79 110.269 227.488 113.79 227.488C117.371 227.488 120.619 226.82 123.533 225.485C126.447 224.149 128.936 222.328 131 220.021C133.064 217.654 134.642 214.922 135.735 211.826C136.888 208.73 137.465 205.452 137.465 201.991Z" fill="#EFF1C5"/>
</svg>
