<svg width="226" height="365" viewBox="0 0 226 365" fill="none" xmlns="http://www.w3.org/2000/svg">
<rect x="6.64122" y="5.59948" width="213.374" height="352.809" rx="24.6301" fill="#7776BC" stroke="white" stroke-width="10.8132" stroke-linejoin="round"/>
<path d="M55.8959 130.674C107.408 63.2077 175.361 28.5882 207.675 53.3489C239.988 78.1095 224.424 152.874 172.912 220.34C121.4 287.806 53.4463 322.425 21.1332 297.665C-11.1799 272.904 4.38389 198.14 55.8959 130.674Z" fill="white"/>
<path d="M171.044 95.0107C173.034 93.7376 175.632 95.2378 175.525 97.5979L173.254 147.464C173.155 149.646 170.778 150.947 168.886 149.855L129.107 126.888C127.215 125.796 127.153 123.087 128.993 121.91L171.044 95.0107Z" fill="#7776BC"/>
<path d="M149.147 130.915C151.758 127.692 156.864 130.64 155.378 134.512L138.663 178.067C137.861 180.157 135.38 181.036 133.441 179.916L120.795 172.615C118.856 171.496 118.377 168.908 119.786 167.168L149.147 130.915Z" fill="#7776BC"/>
<path d="M55.5839 269.34C53.5937 270.613 50.9954 269.113 51.1028 266.753L53.3732 216.887C53.4726 214.705 55.8492 213.404 57.7411 214.496L97.5207 237.463C99.4126 238.555 99.4742 241.264 97.6339 242.441L55.5839 269.34Z" fill="#7776BC"/>
<path d="M77.4801 233.436C74.8697 236.659 69.763 233.711 71.2491 229.839L87.9647 186.284C88.7669 184.194 91.2474 183.315 93.1864 184.435L105.832 191.736C107.771 192.855 108.251 195.443 106.842 197.183L77.4801 233.436Z" fill="#7776BC"/>
</svg>
