<svg width="226" height="365" viewBox="0 0 226 365" fill="none" xmlns="http://www.w3.org/2000/svg">
<rect x="6.4486" y="5.59948" width="213.374" height="352.809" rx="24.6301" fill="#DA4167" stroke="white" stroke-width="10.8132" stroke-linejoin="round"/>
<path d="M55.7032 130.674C107.215 63.2077 175.169 28.5882 207.482 53.3489C239.795 78.1095 224.231 152.874 172.719 220.34C121.207 287.806 53.2537 322.425 20.9406 297.665C-11.3725 272.904 4.19127 198.14 55.7032 130.674Z" fill="white"/>
<path d="M170.852 95.011C172.842 93.7378 175.44 95.238 175.333 97.5981L173.062 147.464C172.963 149.646 170.586 150.947 168.694 149.855L128.915 126.888C127.023 125.796 126.961 123.087 128.802 121.91L170.852 95.011Z" fill="#DA4167"/>
<path d="M148.955 130.915C151.566 127.692 156.673 130.64 155.186 134.513L138.471 178.067C137.669 180.158 135.188 181.036 133.249 179.917L120.603 172.615C118.664 171.496 118.185 168.908 119.594 167.169L148.955 130.915Z" fill="#DA4167"/>
<path d="M55.392 269.34C53.4019 270.613 50.8035 269.113 50.9109 266.753L53.1813 216.887C53.2807 214.705 55.6573 213.404 57.5492 214.496L97.3288 237.463C99.2207 238.555 99.2823 241.264 97.4421 242.441L55.392 269.34Z" fill="#DA4167"/>
<path d="M77.2882 233.436C74.6779 236.659 69.5711 233.711 71.0572 229.839L87.7728 186.284C88.575 184.194 91.0555 183.315 92.9945 184.435L105.64 191.736C107.579 192.855 108.059 195.443 106.65 197.183L77.2882 233.436Z" fill="#DA4167"/>
</svg>
