<svg width="226" height="365" viewBox="0 0 226 365" fill="none" xmlns="http://www.w3.org/2000/svg">
<rect x="6.35631" y="5.7069" width="213.374" height="352.809" rx="24.6301" fill="#7776BC" stroke="white" stroke-width="10.8132" stroke-linejoin="round"/>
<path d="M55.6107 130.781C107.123 63.3151 175.076 28.6956 207.389 53.4563C239.703 78.217 224.139 152.981 172.627 220.447C121.115 287.913 53.1612 322.533 20.8481 297.772C-11.465 273.011 4.09874 198.247 55.6107 130.781Z" fill="white"/>
<path d="M160.85 208.875C160.85 215.249 159.727 220.985 157.481 226.085C155.235 231.184 152.23 235.494 148.466 239.015C144.702 242.536 140.331 245.238 135.354 247.12C130.436 249.001 125.276 249.942 119.873 249.942H67.2411V223.808H119.873C121.634 223.808 123.394 223.535 125.155 222.989C126.976 222.442 128.585 221.562 129.981 220.348C131.438 219.134 132.591 217.586 133.441 215.704C134.352 213.822 134.807 211.546 134.807 208.875C134.807 206.446 134.352 204.322 133.441 202.5C132.591 200.619 131.438 199.071 129.981 197.856C128.585 196.582 126.976 195.641 125.155 195.034C123.394 194.366 121.634 194.032 119.873 194.032H67.2411L74.8901 119.363H155.478V145.497H98.3835L96.0159 167.898H119.873C125.276 167.898 130.436 168.839 135.354 170.721C140.331 172.603 144.702 175.334 148.466 178.916C152.23 182.437 155.235 186.747 157.481 191.846C159.727 196.885 160.85 202.561 160.85 208.875Z" fill="#7776BC"/>
</svg>
