<svg width="226" height="365" viewBox="0 0 226 365" fill="none" xmlns="http://www.w3.org/2000/svg">
<rect x="6.93419" y="5.7069" width="213.374" height="352.809" rx="24.6301" fill="#DA4167" stroke="white" stroke-width="10.8132" stroke-linejoin="round"/>
<path d="M56.1886 130.781C107.701 63.3151 175.654 28.6956 207.967 53.4563C240.28 78.217 224.717 152.981 173.205 220.447C121.693 287.913 53.7391 322.533 21.426 297.772C-10.8871 273.011 4.67662 198.247 56.1886 130.781Z" fill="white"/>
<path d="M163.705 167.351C163.705 175.729 162.855 183.924 161.155 191.938C159.516 199.89 157.118 207.418 153.961 214.52C150.804 221.623 146.95 228.179 142.397 234.189C137.844 240.199 132.684 245.45 126.917 249.942H91.6766C95.3797 247.575 98.9613 244.934 102.422 242.02C105.882 239.106 109.16 235.98 112.256 232.641C115.413 229.302 118.327 225.781 120.998 222.078C123.669 218.375 126.036 214.551 128.1 210.605C125.429 212.365 122.576 213.883 119.541 215.158C116.505 216.372 113.379 216.979 110.162 216.979C102.755 216.979 96.1081 215.765 90.2196 213.336C84.3311 210.848 79.2925 207.418 75.1038 203.047C70.9757 198.615 67.7887 193.364 65.5425 187.294C63.3571 181.223 62.2644 174.576 62.2644 167.351C62.2644 160.31 63.5089 153.662 65.9978 147.409C68.5475 141.096 72.0381 135.602 76.4697 130.928C80.9012 126.193 86.1523 122.459 92.2229 119.727C98.2936 116.996 104.88 115.63 111.983 115.63C119.146 115.63 125.854 116.996 132.107 119.727C138.42 122.459 143.914 126.193 148.589 130.928C153.263 135.602 156.936 141.096 159.607 147.409C162.339 153.662 163.705 160.31 163.705 167.351ZM135.749 167.351C135.749 164.013 135.173 160.795 134.019 157.699C132.866 154.603 131.227 151.871 129.102 149.504C127.038 147.136 124.549 145.254 121.635 143.858C118.721 142.462 115.504 141.764 111.983 141.764C108.401 141.764 105.153 142.462 102.239 143.858C99.3863 145.194 96.9277 147.015 94.8637 149.322C92.7996 151.629 91.2213 154.33 90.1286 157.426C89.0359 160.522 88.4895 163.831 88.4895 167.351C88.4895 170.812 89.0359 174.09 90.1286 177.186C91.2213 180.221 92.7996 182.892 94.8637 185.199C96.9277 187.506 99.3863 189.327 102.239 190.663C105.153 191.998 108.401 192.666 111.983 192.666C115.565 192.666 118.812 191.998 121.726 190.663C124.701 189.327 127.22 187.506 129.284 185.199C131.348 182.892 132.926 180.221 134.019 177.186C135.173 174.09 135.749 170.812 135.749 167.351Z" fill="#DA4167"/>
</svg>
