<svg width="226" height="365" viewBox="0 0 226 365" fill="none" xmlns="http://www.w3.org/2000/svg">
<rect x="6.74157" y="5.86803" width="213.374" height="352.809" rx="24.6301" fill="#899D78" stroke="white" stroke-width="10.8132" stroke-linejoin="round"/>
<path d="M55.9962 130.942C107.508 63.4762 175.462 28.8567 207.775 53.6174C240.088 78.3781 224.524 153.143 173.012 220.609C121.5 288.074 53.5467 322.694 21.2336 297.933C-11.0795 273.173 4.48424 198.408 55.9962 130.942Z" fill="white"/>
<path d="M159.323 158.68C159.323 164.083 158.291 169.183 156.227 173.978C154.163 178.713 151.34 182.872 147.758 186.453C144.237 189.974 140.109 192.767 135.374 194.831C130.639 196.895 125.57 197.927 120.167 197.927H107.055C105.234 197.927 103.534 198.261 101.956 198.929C100.377 199.596 98.9809 200.537 97.7668 201.751C96.6134 202.905 95.7028 204.271 95.035 205.849C94.3673 207.427 94.0334 209.127 94.0334 210.948V223.97H155.772V250.104H67.8993V210.948C67.8993 205.546 68.9313 200.477 70.9953 195.742C73.0594 190.946 75.8518 186.787 79.3728 183.266C82.9545 179.685 87.1129 176.892 91.8479 174.889C96.583 172.825 101.652 171.793 107.055 171.793H120.167C121.989 171.793 123.688 171.459 125.267 170.791C126.845 170.123 128.211 169.213 129.364 168.059C130.579 166.845 131.52 165.449 132.187 163.871C132.855 162.232 133.189 160.502 133.189 158.68C133.189 156.859 132.855 155.159 132.187 153.581C131.52 152.003 130.579 150.637 129.364 149.483C128.211 148.269 126.845 147.328 125.267 146.661C123.688 145.993 121.989 145.659 120.167 145.659H73.545V119.525H120.167C125.57 119.525 130.639 120.557 135.374 122.621C140.109 124.685 144.237 127.508 147.758 131.089C151.34 134.61 154.163 138.738 156.227 143.473C158.291 148.209 159.323 153.277 159.323 158.68Z" fill="#899D78"/>
</svg>
