<svg width="226" height="365" viewBox="0 0 226 365" fill="none" xmlns="http://www.w3.org/2000/svg">
<rect x="6.54918" y="5.81432" width="213.374" height="352.809" rx="24.6301" fill="#EFF1C5" stroke="white" stroke-width="10.8132" stroke-linejoin="round"/>
<path d="M55.8036 130.888C107.316 63.4225 175.269 28.803 207.582 53.5637C239.895 78.3244 224.332 153.089 172.82 220.555C121.308 288.021 53.3541 322.64 21.041 297.88C-11.2721 273.119 4.29161 198.354 55.8036 130.888Z" fill="white"/>
<path d="M158.766 210.894C158.766 216.297 157.734 221.366 155.67 226.101C153.606 230.836 150.783 234.995 147.202 238.576C143.681 242.097 139.553 244.89 134.818 246.954C130.083 249.018 125.014 250.05 119.611 250.05H67.3427V223.916H119.611C121.432 223.916 123.132 223.582 124.71 222.914C126.289 222.246 127.654 221.336 128.808 220.182C130.022 218.968 130.963 217.572 131.631 215.994C132.298 214.415 132.632 212.715 132.632 210.894C132.632 209.073 132.298 207.373 131.631 205.795C130.963 204.217 130.022 202.851 128.808 201.697C127.654 200.483 126.289 199.542 124.71 198.874C123.132 198.207 121.432 197.873 119.611 197.873H84.0066V171.739H119.611C121.432 171.739 123.132 171.405 124.71 170.737C126.289 170.069 127.654 169.159 128.808 168.005C130.022 166.791 130.963 165.395 131.631 163.817C132.298 162.177 132.632 160.447 132.632 158.626C132.632 156.805 132.298 155.105 131.631 153.527C130.963 151.948 130.022 150.583 128.808 149.429C127.654 148.215 126.289 147.274 124.71 146.606C123.132 145.939 121.432 145.605 119.611 145.605H67.3427V119.471H119.611C125.014 119.471 130.083 120.503 134.818 122.567C139.553 124.631 143.681 127.453 147.202 131.035C150.783 134.556 153.606 138.684 155.67 143.419C157.734 148.154 158.766 153.223 158.766 158.626C158.766 163.422 157.886 168.096 156.126 172.649C154.365 177.142 151.876 181.179 148.659 184.76C151.876 188.342 154.365 192.409 156.126 196.962C157.886 201.454 158.766 206.098 158.766 210.894Z" fill="#EFF1C5"/>
</svg>
