<svg width="226" height="365" viewBox="0 0 226 365" fill="none" xmlns="http://www.w3.org/2000/svg">
<rect x="6.16368" y="5.7069" width="213.374" height="352.809" rx="24.6301" fill="#DA4167" stroke="white" stroke-width="10.8132" stroke-linejoin="round"/>
<path d="M55.4183 130.781C106.93 63.3151 174.884 28.6956 207.197 53.4563C239.51 78.217 223.946 152.981 172.434 220.447C120.922 287.913 52.9688 322.533 20.6557 297.772C-11.6574 273.011 3.90636 198.247 55.4183 130.781Z" fill="white"/>
<path d="M160.658 208.875C160.658 215.249 159.535 220.985 157.288 226.085C155.042 231.184 152.037 235.494 148.274 239.015C144.51 242.536 140.139 245.238 135.161 247.12C130.244 249.001 125.084 249.942 119.681 249.942H67.0485V223.808H119.681C121.441 223.808 123.202 223.535 124.962 222.989C126.783 222.442 128.392 221.562 129.788 220.348C131.245 219.134 132.399 217.586 133.249 215.704C134.159 213.822 134.615 211.546 134.615 208.875C134.615 206.446 134.159 204.322 133.249 202.5C132.399 200.619 131.245 199.071 129.788 197.856C128.392 196.582 126.783 195.641 124.962 195.034C123.202 194.366 121.441 194.032 119.681 194.032H67.0485L74.6975 119.363H155.285V145.497H98.1908L95.8233 167.898H119.681C125.084 167.898 130.244 168.839 135.161 170.721C140.139 172.603 144.51 175.334 148.274 178.916C152.037 182.437 155.042 186.747 157.288 191.846C159.535 196.885 160.658 202.561 160.658 208.875Z" fill="#DA4167"/>
</svg>
