<svg width="226" height="365" viewBox="0 0 226 365" fill="none" xmlns="http://www.w3.org/2000/svg">
<rect x="6.35631" y="5.86803" width="213.374" height="352.809" rx="24.6301" fill="#7776BC" stroke="white" stroke-width="10.8132" stroke-linejoin="round"/>
<path d="M55.6107 130.942C107.123 63.4762 175.076 28.8567 207.389 53.6174C239.703 78.3781 224.139 153.143 172.627 220.609C121.115 288.074 53.1612 322.694 20.8481 297.933C-11.465 273.173 4.09874 198.408 55.6107 130.942Z" fill="white"/>
<path d="M158.938 158.68C158.938 164.083 157.906 169.183 155.842 173.978C153.778 178.713 150.955 182.872 147.373 186.453C143.852 189.974 139.724 192.767 134.989 194.831C130.254 196.895 125.185 197.927 119.782 197.927H106.67C104.849 197.927 103.149 198.261 101.571 198.929C99.9922 199.596 98.5959 200.537 97.3818 201.751C96.2284 202.905 95.3178 204.271 94.65 205.849C93.9822 207.427 93.6484 209.127 93.6484 210.948V223.97H155.387V250.104H67.5143V210.948C67.5143 205.546 68.5463 200.477 70.6103 195.742C72.6743 190.946 75.4668 186.787 78.9878 183.266C82.5695 179.685 86.7278 176.892 91.4629 174.889C96.198 172.825 101.267 171.793 106.67 171.793H119.782C121.604 171.793 123.303 171.459 124.882 170.791C126.46 170.123 127.826 169.213 128.979 168.059C130.194 166.845 131.134 165.449 131.802 163.871C132.47 162.232 132.804 160.502 132.804 158.68C132.804 156.859 132.47 155.159 131.802 153.581C131.134 152.003 130.194 150.637 128.979 149.483C127.826 148.269 126.46 147.328 124.882 146.661C123.303 145.993 121.604 145.659 119.782 145.659H73.16V119.525H119.782C125.185 119.525 130.254 120.557 134.989 122.621C139.724 124.685 143.852 127.508 147.373 131.089C150.955 134.61 153.778 138.738 155.842 143.473C157.906 148.209 158.938 153.277 158.938 158.68Z" fill="#7776BC"/>
</svg>
