<svg width="226" height="365" viewBox="0 0 226 365" fill="none" xmlns="http://www.w3.org/2000/svg">
<rect x="6.7047" y="5.81432" width="213.374" height="352.809" rx="24.6301" fill="#264653" stroke="white" stroke-width="10.8132" stroke-linejoin="round"/>
<path d="M55.9591 130.888C107.471 63.4225 175.425 28.803 207.738 53.5637C240.051 78.3244 224.487 153.089 172.975 220.555C121.463 288.021 53.5096 322.64 21.1965 297.88C-11.1166 273.119 4.44713 198.354 55.9591 130.888Z" fill="white"/>
<rect x="113.483" y="86.3677" width="64.1058" height="96.1587" rx="7.28475" fill="#EFF1C5"/>
<rect x="49.3773" y="182.527" width="64.1058" height="96.1587" rx="7.28475" fill="#7776BC"/>
<rect width="64.1058" height="96.1587" rx="7.28475" transform="matrix(-1 0 0 1 113.483 86.3677)" fill="#DA4167"/>
<rect width="64.1058" height="96.1587" rx="7.28475" transform="matrix(-1 0 0 1 177.589 182.527)" fill="#899D78"/>
<path d="M164.112 223.916H151.091V250.05H124.957V223.916H59.6671L74.2366 119.471H100.371L88.9882 197.873H124.957V132.583H151.091V197.873H164.112V223.916Z" fill="white"/>
<path d="M80.399 105.135H55.5397V80.2759H29.6789V55.5077H55.5397V28.6452H80.399V55.5077H106.169V80.2759H80.399V105.135Z" fill="white"/>
<path d="M171.458 335.333H146.599V310.474H120.738V285.706H146.599V258.843H171.458V285.706H197.228V310.474H171.458V335.333Z" fill="white"/>
</svg>
