<svg width="226" height="365" viewBox="0 0 226 365" fill="none" xmlns="http://www.w3.org/2000/svg">
<rect x="6.70458" y="5.4066" width="213.374" height="352.809" rx="24.6301" fill="#DA4167" stroke="white" stroke-width="10.8132" stroke-linejoin="round"/>
<path d="M55.9591 130.481C107.471 63.0145 175.425 28.3951 207.738 53.1558C240.051 77.9164 224.487 152.681 172.975 220.147C121.463 287.613 53.5096 322.232 21.1965 297.472C-11.1166 272.711 4.44713 197.946 55.9591 130.481Z" fill="white"/>
<path d="M49.3773 182.119C49.3773 173.701 51.0355 165.364 54.2571 157.587C57.4787 149.809 62.2007 142.742 68.1535 136.789C74.1063 130.837 81.1732 126.115 88.9509 122.893C96.7286 119.671 105.065 118.013 113.483 118.013L113.483 182.119L49.3773 182.119Z" fill="#DA4167"/>
<path d="M113.483 118.013C130.485 118.013 146.791 124.767 158.813 136.789C170.835 148.812 177.589 165.117 177.589 182.119L113.483 182.119L113.483 118.013Z" fill="#EFF1C5"/>
<path d="M177.589 182.119C177.589 199.121 170.835 215.426 158.813 227.449C146.791 239.471 130.485 246.225 113.483 246.225L113.483 182.119L177.589 182.119Z" fill="#899D78"/>
<path d="M113.483 246.225C96.4812 246.225 80.1757 239.471 68.1535 227.449C56.1313 215.427 49.3773 199.121 49.3773 182.119L113.483 182.119L113.483 246.225Z" fill="#7776BC"/>
</svg>
