<svg width="226" height="365" viewBox="0 0 226 365" fill="none" xmlns="http://www.w3.org/2000/svg">
<rect x="6.70458" y="5.76061" width="213.374" height="352.809" rx="24.6301" fill="#264653" stroke="white" stroke-width="10.8132" stroke-linejoin="round"/>
<path d="M55.9591 130.835C107.471 63.3688 175.425 28.7493 207.738 53.51C240.051 78.2707 224.487 153.035 172.975 220.501C121.463 287.967 53.5096 322.587 21.1965 297.826C-11.1166 273.065 4.44713 198.301 55.9591 130.835Z" fill="white"/>
<path d="M49.3773 182.473C49.3773 174.054 51.0355 165.718 54.2571 157.941C57.4787 150.163 62.2007 143.096 68.1535 137.143C74.1063 131.19 81.1732 126.468 88.9509 123.247C96.7286 120.025 105.065 118.367 113.483 118.367L113.483 182.473L49.3773 182.473Z" fill="#DA4167"/>
<path d="M113.483 118.367C130.485 118.367 146.791 125.121 158.813 137.143C170.835 149.165 177.589 165.471 177.589 182.473L113.483 182.473L113.483 118.367Z" fill="#EFF1C5"/>
<path d="M177.589 182.473C177.589 199.475 170.835 215.78 158.813 227.802C146.791 239.825 130.485 246.579 113.483 246.579L113.483 182.473L177.589 182.473Z" fill="#899D78"/>
<path d="M113.483 246.579C96.4812 246.579 80.1757 239.825 68.1535 227.802C56.1313 215.78 49.3773 199.475 49.3773 182.473L113.483 182.473L113.483 246.579Z" fill="#7776BC"/>
</svg>
