<svg width="226" height="365" viewBox="0 0 226 365" fill="none" xmlns="http://www.w3.org/2000/svg">
<rect x="6.38414" y="5.65319" width="213.374" height="352.809" rx="24.6301" fill="#899D78" stroke="white" stroke-width="10.8132" stroke-linejoin="round"/>
<path d="M55.6385 130.727C107.151 63.2614 175.104 28.6419 207.417 53.4026C239.73 78.1633 224.167 152.928 172.655 220.394C121.143 287.86 53.189 322.479 20.8759 297.718C-11.4372 272.958 4.12657 198.193 55.6385 130.727Z" fill="white"/>
<path d="M163.792 201.991C163.792 209.033 162.517 215.681 159.967 221.933C157.478 228.186 154.018 233.68 149.586 238.415C145.155 243.09 139.873 246.793 133.742 249.524C127.671 252.256 121.085 253.622 113.982 253.622C106.88 253.622 100.172 252.256 93.8581 249.524C87.6053 246.793 82.1418 243.09 77.4674 238.415C72.793 233.68 69.0899 228.186 66.3581 221.933C63.6871 215.681 62.3515 209.033 62.3515 201.991C62.3515 193.614 63.1711 185.449 64.8101 177.496C66.4492 169.483 68.8471 161.925 72.0038 154.823C75.1605 147.659 79.0154 141.073 83.5684 135.063C88.1213 129.053 93.2814 123.802 99.0485 119.309H134.288C130.646 121.677 127.095 124.318 123.635 127.232C120.174 130.146 116.866 133.272 113.709 136.611C110.613 139.95 107.729 143.471 105.058 147.174C102.387 150.877 100.02 154.732 97.9557 158.738C100.566 156.978 103.389 155.49 106.424 154.276C109.52 153.001 112.677 152.364 115.894 152.364C123.24 152.364 129.857 153.609 135.745 156.097C141.695 158.526 146.733 161.956 150.861 166.387C154.989 170.758 158.176 175.979 160.423 182.049C162.669 188.12 163.792 194.767 163.792 201.991ZM137.658 201.991C137.658 198.531 137.081 195.283 135.928 192.248C134.835 189.152 133.256 186.451 131.192 184.144C129.128 181.776 126.639 179.925 123.726 178.589C120.812 177.254 117.564 176.586 113.982 176.586C110.401 176.586 107.153 177.254 104.239 178.589C101.325 179.925 98.836 181.776 96.772 184.144C94.7687 186.451 93.2207 189.152 92.1279 192.248C91.0352 195.283 90.4889 198.531 90.4889 201.991C90.4889 205.33 91.0352 208.548 92.1279 211.644C93.2814 214.679 94.8901 217.38 96.9541 219.748C99.0181 222.116 101.477 223.997 104.33 225.394C107.244 226.79 110.461 227.488 113.982 227.488C117.564 227.488 120.812 226.82 123.726 225.485C126.639 224.149 129.128 222.328 131.192 220.021C133.256 217.654 134.835 214.922 135.928 211.826C137.081 208.73 137.658 205.452 137.658 201.991Z" fill="#899D78"/>
</svg>
