<svg width="226" height="365" viewBox="0 0 226 365" fill="none" xmlns="http://www.w3.org/2000/svg">
<rect x="6.51207" y="5.7069" width="213.374" height="352.809" rx="24.6301" fill="#899D78" stroke="white" stroke-width="10.8132" stroke-linejoin="round"/>
<path d="M55.7666 130.781C107.279 63.3151 175.232 28.6956 207.545 53.4563C239.858 78.217 224.295 152.981 172.783 220.447C121.271 287.913 53.3171 322.533 21.004 297.772C-11.3091 273.011 4.25462 198.247 55.7666 130.781Z" fill="white"/>
<path d="M163.282 167.351C163.282 175.729 162.432 183.924 160.733 191.938C159.093 199.89 156.696 207.418 153.539 214.52C150.382 221.623 146.527 228.179 141.974 234.189C137.421 240.199 132.261 245.45 126.494 249.942H91.2542C94.9573 247.575 98.539 244.934 101.999 242.02C105.459 239.106 108.738 235.98 111.834 232.641C114.99 229.302 117.904 225.781 120.575 222.078C123.246 218.375 125.614 214.551 127.678 210.605C125.007 212.365 122.154 213.883 119.118 215.158C116.083 216.372 112.957 216.979 109.739 216.979C102.333 216.979 95.6858 215.765 89.7973 213.336C83.9088 210.848 78.8701 207.418 74.6814 203.047C70.5534 198.615 67.3663 193.364 65.1202 187.294C62.9347 181.223 61.842 174.576 61.842 167.351C61.842 160.31 63.0865 153.662 65.5755 147.409C68.1251 141.096 71.6157 135.602 76.0473 130.928C80.4789 126.193 85.7299 122.459 91.8006 119.727C97.8712 116.996 104.458 115.63 111.56 115.63C118.724 115.63 125.432 116.996 131.685 119.727C137.998 122.459 143.492 126.193 148.166 130.928C152.841 135.602 156.513 141.096 159.185 147.409C161.916 153.662 163.282 160.31 163.282 167.351ZM135.327 167.351C135.327 164.013 134.75 160.795 133.597 157.699C132.443 154.603 130.804 151.871 128.68 149.504C126.616 147.136 124.127 145.254 121.213 143.858C118.299 142.462 115.081 141.764 111.56 141.764C107.979 141.764 104.731 142.462 101.817 143.858C98.9639 145.194 96.5053 147.015 94.4413 149.322C92.3773 151.629 90.7989 154.33 89.7062 157.426C88.6135 160.522 88.0671 163.831 88.0671 167.351C88.0671 170.812 88.6135 174.09 89.7062 177.186C90.7989 180.221 92.3773 182.892 94.4413 185.199C96.5053 187.506 98.9639 189.327 101.817 190.663C104.731 191.998 107.979 192.666 111.56 192.666C115.142 192.666 118.39 191.998 121.304 190.663C124.278 189.327 126.798 187.506 128.862 185.199C130.926 182.892 132.504 180.221 133.597 177.186C134.75 174.09 135.327 170.812 135.327 167.351Z" fill="#899D78"/>
</svg>
