<svg width="226" height="365" viewBox="0 0 226 365" fill="none" xmlns="http://www.w3.org/2000/svg">
<rect x="6.93419" y="5.76061" width="213.374" height="352.809" rx="24.6301" fill="#DA4167" stroke="white" stroke-width="10.8132" stroke-linejoin="round"/>
<path d="M56.1886 130.835C107.701 63.3688 175.654 28.7493 207.967 53.51C240.28 78.2707 224.717 153.035 173.205 220.501C121.693 287.967 53.7391 322.587 21.426 297.826C-10.8871 273.065 4.67662 198.301 56.1886 130.835Z" fill="white"/>
<path d="M164.433 212.662C164.433 218.55 163.098 223.983 160.426 228.961C157.755 233.939 154.083 238.249 149.408 241.892C144.795 245.473 139.392 248.266 133.2 250.269C127.008 252.333 120.391 253.365 113.349 253.365C106.307 253.365 99.6898 252.333 93.4978 250.269C87.3057 248.266 81.8725 245.473 77.1981 241.892C72.5845 238.249 68.9421 233.939 66.271 228.961C63.5999 223.983 62.2644 218.55 62.2644 212.662C62.2644 209.262 62.7197 205.954 63.6303 202.736C64.5409 199.458 65.8461 196.392 67.5458 193.539C69.3063 190.686 71.4007 188.076 73.8289 185.708C76.2572 183.28 78.989 181.216 82.0243 179.516C80.1424 177.877 78.4426 175.995 76.925 173.87C75.468 171.746 74.1932 169.5 73.1005 167.132C72.0685 164.764 71.2793 162.336 70.7329 159.847C70.1866 157.298 69.9134 154.778 69.9134 152.289C69.9134 147.19 71.0364 142.425 73.2826 137.993C75.5894 133.501 78.7158 129.585 82.6617 126.246C86.6076 122.847 91.2213 120.176 96.5027 118.233C101.784 116.291 107.4 115.319 113.349 115.319C119.359 115.319 125.004 116.291 130.286 118.233C135.567 120.176 140.181 122.847 144.127 126.246C148.133 129.585 151.26 133.501 153.506 137.993C155.813 142.425 156.966 147.19 156.966 152.289C156.966 154.778 156.663 157.298 156.056 159.847C155.509 162.336 154.72 164.795 153.688 167.223C152.656 169.591 151.381 171.837 149.864 173.961C148.407 176.086 146.737 177.998 144.855 179.698C147.83 181.398 150.531 183.432 152.96 185.799C155.388 188.167 157.452 190.777 159.152 193.63C160.851 196.484 162.157 199.519 163.067 202.736C163.978 205.954 164.433 209.262 164.433 212.662ZM131.378 155.112C131.378 152.987 130.893 151.015 129.922 149.193C129.011 147.311 127.736 145.672 126.097 144.276C124.519 142.88 122.637 141.787 120.451 140.998C118.266 140.209 115.959 139.814 113.531 139.814C111.042 139.814 108.705 140.209 106.519 140.998C104.334 141.787 102.422 142.88 100.783 144.276C99.2042 145.672 97.9293 147.311 96.958 149.193C96.0474 151.015 95.5921 152.987 95.5921 155.112C95.5921 157.237 96.0474 159.21 96.958 161.031C97.9293 162.852 99.2042 164.431 100.783 165.766C102.422 167.102 104.334 168.164 106.519 168.953C108.705 169.742 111.042 170.137 113.531 170.137C115.959 170.137 118.266 169.742 120.451 168.953C122.637 168.164 124.519 167.102 126.097 165.766C127.736 164.431 129.011 162.852 129.922 161.031C130.893 159.21 131.378 157.237 131.378 155.112ZM138.481 211.933C138.481 209.019 137.813 206.318 136.478 203.829C135.203 201.279 133.412 199.064 131.105 197.182C128.859 195.3 126.188 193.812 123.092 192.72C120.057 191.627 116.809 191.081 113.349 191.081C109.888 191.081 106.641 191.627 103.605 192.72C100.57 193.812 97.899 195.3 95.5921 197.182C93.346 199.064 91.5552 201.279 90.2196 203.829C88.9448 206.318 88.3074 209.019 88.3074 211.933C88.3074 214.847 88.9448 217.518 90.2196 219.946C91.5552 222.375 93.346 224.469 95.5921 226.23C97.899 227.99 100.57 229.386 103.605 230.418C106.641 231.39 109.888 231.875 113.349 231.875C116.809 231.875 120.057 231.39 123.092 230.418C126.188 229.386 128.859 227.99 131.105 226.23C133.412 224.469 135.203 222.375 136.478 219.946C137.813 217.518 138.481 214.847 138.481 211.933Z" fill="#DA4167"/>
</svg>
