<svg width="226" height="365" viewBox="0 0 226 365" fill="none" xmlns="http://www.w3.org/2000/svg">
<rect x="6.31957" y="5.7069" width="213.374" height="352.809" rx="24.6301" fill="#EFF1C5" stroke="white" stroke-width="10.8132" stroke-linejoin="round"/>
<path d="M55.574 130.781C107.086 63.3151 175.04 28.6956 207.353 53.4563C239.666 78.217 224.102 152.981 172.59 220.447C121.078 287.913 53.1244 322.533 20.8113 297.772C-11.5018 273.011 4.06199 198.247 55.574 130.781Z" fill="white"/>
<path d="M163.09 167.351C163.09 175.729 162.24 183.924 160.54 191.938C158.901 199.89 156.503 207.418 153.346 214.52C150.19 221.623 146.335 228.179 141.782 234.189C137.229 240.199 132.069 245.45 126.302 249.942H91.0616C94.7647 247.575 98.3463 244.934 101.807 242.02C105.267 239.106 108.545 235.98 111.641 232.641C114.798 229.302 117.712 225.781 120.383 222.078C123.054 218.375 125.421 214.551 127.485 210.605C124.814 212.365 121.961 213.883 118.926 215.158C115.89 216.372 112.764 216.979 109.547 216.979C102.14 216.979 95.4932 215.765 89.6046 213.336C83.7161 210.848 78.6775 207.418 74.4888 203.047C70.3608 198.615 67.1737 193.364 64.9275 187.294C62.7421 181.223 61.6494 174.576 61.6494 167.351C61.6494 160.31 62.8939 153.662 65.3828 147.409C67.9325 141.096 71.4231 135.602 75.8547 130.928C80.2862 126.193 85.5373 122.459 91.6079 119.727C97.6786 116.996 104.265 115.63 111.368 115.63C118.531 115.63 125.239 116.996 131.492 119.727C137.805 122.459 143.299 126.193 147.974 130.928C152.648 135.602 156.321 141.096 158.992 147.409C161.724 153.662 163.09 160.31 163.09 167.351ZM135.134 167.351C135.134 164.013 134.558 160.795 133.404 157.699C132.251 154.603 130.612 151.871 128.487 149.504C126.423 147.136 123.934 145.254 121.02 143.858C118.106 142.462 114.889 141.764 111.368 141.764C107.786 141.764 104.538 142.462 101.624 143.858C98.7713 145.194 96.3127 147.015 94.2487 149.322C92.1847 151.629 90.6063 154.33 89.5136 157.426C88.4209 160.522 87.8745 163.831 87.8745 167.351C87.8745 170.812 88.4209 174.09 89.5136 177.186C90.6063 180.221 92.1847 182.892 94.2487 185.199C96.3127 187.506 98.7713 189.327 101.624 190.663C104.538 191.998 107.786 192.666 111.368 192.666C114.95 192.666 118.197 191.998 121.111 190.663C124.086 189.327 126.605 187.506 128.669 185.199C130.733 182.892 132.312 180.221 133.404 177.186C134.558 174.09 135.134 170.812 135.134 167.351Z" fill="#EFF1C5"/>
</svg>
