<svg width="226" height="365" viewBox="0 0 226 365" fill="none" xmlns="http://www.w3.org/2000/svg">
<rect x="6.51207" y="5.76061" width="213.374" height="352.809" rx="24.6301" fill="#899D78" stroke="white" stroke-width="10.8132" stroke-linejoin="round"/>
<path d="M55.7666 130.835C107.279 63.3688 175.232 28.7493 207.545 53.51C239.858 78.2707 224.295 153.035 172.783 220.501C121.271 287.967 53.3171 322.587 21.004 297.826C-11.3091 273.065 4.25462 198.301 55.7666 130.835Z" fill="white"/>
<path d="M164.011 212.662C164.011 218.55 162.675 223.983 160.004 228.961C157.333 233.939 153.66 238.249 148.986 241.892C144.372 245.473 138.969 248.266 132.777 250.269C126.585 252.333 119.968 253.365 112.926 253.365C105.884 253.365 99.2674 252.333 93.0754 250.269C86.8834 248.266 81.4502 245.473 76.7758 241.892C72.1621 238.249 68.5197 233.939 65.8486 228.961C63.1776 223.983 61.842 218.55 61.842 212.662C61.842 209.262 62.2973 205.954 63.2079 202.736C64.1185 199.458 65.4237 196.392 67.1235 193.539C68.884 190.686 70.9783 188.076 73.4066 185.708C75.8348 183.28 78.5666 181.216 81.6019 179.516C79.72 177.877 78.0203 175.995 76.5026 173.87C75.0456 171.746 73.7708 169.5 72.6781 167.132C71.6461 164.764 70.8569 162.336 70.3106 159.847C69.7642 157.298 69.491 154.778 69.491 152.289C69.491 147.19 70.6141 142.425 72.8602 137.993C75.1671 133.501 78.2934 129.585 82.2393 126.246C86.1852 122.847 90.7989 120.176 96.0804 118.233C101.362 116.291 106.977 115.319 112.926 115.319C118.936 115.319 124.582 116.291 129.863 118.233C135.145 120.176 139.759 122.847 143.704 126.246C147.711 129.585 150.837 133.501 153.084 137.993C155.39 142.425 156.544 147.19 156.544 152.289C156.544 154.778 156.24 157.298 155.633 159.847C155.087 162.336 154.298 164.795 153.266 167.223C152.234 169.591 150.959 171.837 149.441 173.961C147.984 176.086 146.315 177.998 144.433 179.698C147.408 181.398 150.109 183.432 152.537 185.799C154.965 188.167 157.029 190.777 158.729 193.63C160.429 196.484 161.734 199.519 162.645 202.736C163.555 205.954 164.011 209.262 164.011 212.662ZM130.956 155.112C130.956 152.987 130.47 151.015 129.499 149.193C128.589 147.311 127.314 145.672 125.675 144.276C124.096 142.88 122.214 141.787 120.029 140.998C117.844 140.209 115.537 139.814 113.108 139.814C110.62 139.814 108.282 140.209 106.097 140.998C103.911 141.787 101.999 142.88 100.36 144.276C98.7818 145.672 97.507 147.311 96.5357 149.193C95.6251 151.015 95.1698 152.987 95.1698 155.112C95.1698 157.237 95.6251 159.21 96.5357 161.031C97.507 162.852 98.7818 164.431 100.36 165.766C101.999 167.102 103.911 168.164 106.097 168.953C108.282 169.742 110.62 170.137 113.108 170.137C115.537 170.137 117.844 169.742 120.029 168.953C122.214 168.164 124.096 167.102 125.675 165.766C127.314 164.431 128.589 162.852 129.499 161.031C130.47 159.21 130.956 157.237 130.956 155.112ZM138.059 211.933C138.059 209.019 137.391 206.318 136.055 203.829C134.781 201.279 132.99 199.064 130.683 197.182C128.437 195.3 125.766 193.812 122.67 192.72C119.634 191.627 116.387 191.081 112.926 191.081C109.466 191.081 106.218 191.627 103.183 192.72C100.148 193.812 97.4766 195.3 95.1698 197.182C92.9236 199.064 91.1328 201.279 89.7973 203.829C88.5224 206.318 87.885 209.019 87.885 211.933C87.885 214.847 88.5224 217.518 89.7973 219.946C91.1328 222.375 92.9236 224.469 95.1698 226.23C97.4766 227.99 100.148 229.386 103.183 230.418C106.218 231.39 109.466 231.875 112.926 231.875C116.387 231.875 119.634 231.39 122.67 230.418C125.766 229.386 128.437 227.99 130.683 226.23C132.99 224.469 134.781 222.375 136.055 219.946C137.391 217.518 138.059 214.847 138.059 211.933Z" fill="#899D78"/>
</svg>
