<svg width="226" height="365" viewBox="0 0 226 365" fill="none" xmlns="http://www.w3.org/2000/svg">
<rect x="6.35631" y="5.97643" width="213.374" height="352.809" rx="24.6301" fill="#7776BC" stroke="white" stroke-width="10.8132" stroke-linejoin="round"/>
<path d="M55.6107 131.05C107.123 63.5836 175.076 28.9642 207.389 53.7248C239.703 78.4855 224.139 153.25 172.627 220.716C121.115 288.182 53.1612 322.801 20.8481 298.041C-11.465 273.28 4.09874 198.516 55.6107 131.05Z" fill="white"/>
<path d="M139.907 184.922C139.907 170.414 137.478 159.638 132.622 152.596C127.826 145.554 121.118 142.033 112.498 142.033C103.938 142.033 97.2907 145.524 92.5557 152.505C87.8206 159.486 85.453 170.292 85.453 184.922C85.453 199.431 87.8206 210.206 92.5557 217.248C97.2907 224.29 103.938 227.811 112.498 227.811C116.808 227.811 120.663 226.961 124.062 225.262C127.462 223.501 130.315 220.86 132.622 217.339C134.989 213.819 136.78 209.387 137.994 204.045C139.269 198.642 139.907 192.268 139.907 184.922ZM164.766 184.922C164.766 197.306 163.4 207.778 160.668 216.338C157.936 224.897 154.203 231.818 149.468 237.099C144.733 242.381 139.178 246.205 132.804 248.573C126.49 250.88 119.722 252.033 112.498 252.033C105.274 252.033 98.4745 250.849 92.1004 248.482C85.7869 246.054 80.2626 242.199 75.5275 236.917C70.8532 231.575 67.1501 224.655 64.4183 216.156C61.6865 207.596 60.3206 197.185 60.3206 184.922C60.3206 172.538 61.6865 162.097 64.4183 153.598C67.1501 145.038 70.8532 138.118 75.5275 132.836C80.2626 127.555 85.7869 123.73 92.1004 121.363C98.4745 118.995 105.274 117.812 112.498 117.812C119.722 117.812 126.49 119.026 132.804 121.454C139.178 123.821 144.733 127.676 149.468 133.018C154.203 138.361 157.936 145.281 160.668 153.78C163.4 162.279 164.766 172.66 164.766 184.922Z" fill="#7776BC"/>
</svg>
