<svg width="226" height="365" viewBox="0 0 226 365" fill="none" xmlns="http://www.w3.org/2000/svg">
<rect x="6.54918" y="5.97643" width="213.374" height="352.809" rx="24.6301" fill="#EFF1C5" stroke="white" stroke-width="10.8132" stroke-linejoin="round"/>
<path d="M55.8036 131.05C107.316 63.5836 175.269 28.9642 207.582 53.7248C239.895 78.4855 224.332 153.25 172.82 220.716C121.308 288.182 53.3541 322.801 21.041 298.041C-11.2721 273.28 4.29161 198.516 55.8036 131.05Z" fill="white"/>
<path d="M140.099 184.922C140.099 170.414 137.671 159.638 132.814 152.596C128.019 145.554 121.311 142.033 112.69 142.033C104.131 142.033 97.4834 145.524 92.7483 152.505C88.0132 159.486 85.6456 170.292 85.6456 184.922C85.6456 199.431 88.0132 210.206 92.7483 217.248C97.4834 224.29 104.131 227.811 112.69 227.811C117 227.811 120.855 226.961 124.255 225.262C127.654 223.501 130.508 220.86 132.814 217.339C135.182 213.819 136.973 209.387 138.187 204.045C139.462 198.642 140.099 192.268 140.099 184.922ZM164.958 184.922C164.958 197.306 163.593 207.778 160.861 216.338C158.129 224.897 154.396 231.818 149.66 237.099C144.925 242.381 139.371 246.205 132.997 248.573C126.683 250.88 119.914 252.033 112.69 252.033C105.466 252.033 98.6671 250.849 92.293 248.482C85.9795 246.054 80.4553 242.199 75.7202 236.917C71.0458 231.575 67.3427 224.655 64.6109 216.156C61.8791 207.596 60.5132 197.185 60.5132 184.922C60.5132 172.538 61.8791 162.097 64.6109 153.598C67.3427 145.038 71.0458 138.118 75.7202 132.836C80.4553 127.555 85.9795 123.73 92.293 121.363C98.6671 118.995 105.466 117.812 112.69 117.812C119.914 117.812 126.683 119.026 132.997 121.454C139.371 123.821 144.925 127.676 149.66 133.018C154.396 138.361 158.129 145.281 160.861 153.78C163.593 162.279 164.958 172.66 164.958 184.922Z" fill="#EFF1C5"/>
</svg>
