<svg width="226" height="365" viewBox="0 0 226 365" fill="none" xmlns="http://www.w3.org/2000/svg">
<rect x="6.74157" y="5.97643" width="213.374" height="352.809" rx="24.6301" fill="#899D78" stroke="white" stroke-width="10.8132" stroke-linejoin="round"/>
<path d="M55.9962 131.05C107.508 63.5836 175.462 28.9642 207.775 53.7248C240.088 78.4855 224.524 153.25 173.012 220.716C121.5 288.182 53.5467 322.801 21.2336 298.041C-11.0795 273.28 4.48424 198.516 55.9962 131.05Z" fill="white"/>
<path d="M140.292 184.922C140.292 170.414 137.863 159.638 133.007 152.596C128.211 145.554 121.503 142.033 112.883 142.033C104.323 142.033 97.6758 145.524 92.9407 152.505C88.2056 159.486 85.838 170.292 85.838 184.922C85.838 199.431 88.2056 210.206 92.9407 217.248C97.6758 224.29 104.323 227.811 112.883 227.811C117.193 227.811 121.048 226.961 124.447 225.262C127.847 223.501 130.7 220.86 133.007 217.339C135.374 213.819 137.165 209.387 138.379 204.045C139.654 198.642 140.292 192.268 140.292 184.922ZM165.151 184.922C165.151 197.306 163.785 207.778 161.053 216.338C158.321 224.897 154.588 231.818 149.853 237.099C145.118 242.381 139.563 246.205 133.189 248.573C126.875 250.88 120.107 252.033 112.883 252.033C105.659 252.033 98.8595 250.849 92.4854 248.482C86.1719 246.054 80.6476 242.199 75.9126 236.917C71.2382 231.575 67.5351 224.655 64.8033 216.156C62.0715 207.596 60.7056 197.185 60.7056 184.922C60.7056 172.538 62.0715 162.097 64.8033 153.598C67.5351 145.038 71.2382 138.118 75.9126 132.836C80.6476 127.555 86.1719 123.73 92.4854 121.363C98.8595 118.995 105.659 117.812 112.883 117.812C120.107 117.812 126.875 119.026 133.189 121.454C139.563 123.821 145.118 127.676 149.853 133.018C154.588 138.361 158.321 145.281 161.053 153.78C163.785 162.279 165.151 172.66 165.151 184.922Z" fill="#899D78"/>
</svg>
