<svg width="226" height="365" viewBox="0 0 226 365" fill="none" xmlns="http://www.w3.org/2000/svg">
<rect x="6.35631" y="5.81432" width="213.374" height="352.809" rx="24.6301" fill="#7776BC" stroke="white" stroke-width="10.8132" stroke-linejoin="round"/>
<path d="M55.6107 130.888C107.123 63.4225 175.076 28.803 207.389 53.5637C239.703 78.3244 224.139 153.089 172.627 220.555C121.115 288.021 53.1612 322.64 20.8481 297.88C-11.465 273.119 4.09874 198.354 55.6107 130.888Z" fill="white"/>
<path d="M158.574 210.894C158.574 216.297 157.542 221.366 155.478 226.101C153.414 230.836 150.591 234.995 147.009 238.576C143.488 242.097 139.36 244.89 134.625 246.954C129.89 249.018 124.821 250.05 119.418 250.05H67.1501V223.916H119.418C121.239 223.916 122.939 223.582 124.518 222.914C126.096 222.246 127.462 221.336 128.615 220.182C129.829 218.968 130.77 217.572 131.438 215.994C132.106 214.415 132.44 212.715 132.44 210.894C132.44 209.073 132.106 207.373 131.438 205.795C130.77 204.217 129.829 202.851 128.615 201.697C127.462 200.483 126.096 199.542 124.518 198.874C122.939 198.207 121.239 197.873 119.418 197.873H83.814V171.739H119.418C121.239 171.739 122.939 171.405 124.518 170.737C126.096 170.069 127.462 169.159 128.615 168.005C129.829 166.791 130.77 165.395 131.438 163.817C132.106 162.177 132.44 160.447 132.44 158.626C132.44 156.805 132.106 155.105 131.438 153.527C130.77 151.948 129.829 150.583 128.615 149.429C127.462 148.215 126.096 147.274 124.518 146.606C122.939 145.939 121.239 145.605 119.418 145.605H67.1501V119.471H119.418C124.821 119.471 129.89 120.503 134.625 122.567C139.36 124.631 143.488 127.453 147.009 131.035C150.591 134.556 153.414 138.684 155.478 143.419C157.542 148.154 158.574 153.223 158.574 158.626C158.574 163.422 157.693 168.096 155.933 172.649C154.173 177.142 151.684 181.179 148.466 184.76C151.684 188.342 154.173 192.409 155.933 196.962C157.693 201.454 158.574 206.098 158.574 210.894Z" fill="#7776BC"/>
</svg>
