<svg width="226" height="365" viewBox="0 0 226 365" fill="none" xmlns="http://www.w3.org/2000/svg">
<rect x="6.83385" y="5.59948" width="213.374" height="352.809" rx="24.6301" fill="#EFF1C5" stroke="white" stroke-width="10.8132" stroke-linejoin="round"/>
<path d="M56.0882 130.674C107.6 63.2077 175.554 28.5882 207.867 53.3489C240.18 78.1095 224.616 152.874 173.104 220.34C121.592 287.806 53.6387 322.425 21.3256 297.665C-10.9875 272.904 4.57628 198.14 56.0882 130.674Z" fill="white"/>
<path d="M171.236 95.0107C173.227 93.7376 175.825 95.2378 175.717 97.5979L173.447 147.464C173.348 149.646 170.971 150.947 169.079 149.855L129.3 126.888C127.408 125.796 127.346 123.087 129.186 121.91L171.236 95.0107Z" fill="#EFF1C5"/>
<path d="M149.34 130.915C151.951 127.692 157.057 130.64 155.571 134.512L138.856 178.067C138.053 180.157 135.573 181.036 133.634 179.916L120.988 172.615C119.049 171.496 118.57 168.908 119.979 167.168L149.34 130.915Z" fill="#EFF1C5"/>
<path d="M55.7771 269.34C53.7869 270.613 51.1885 269.113 51.2959 266.753L53.5664 216.887C53.6657 214.705 56.0423 213.404 57.9342 214.496L97.7138 237.463C99.6057 238.555 99.6673 241.264 97.8271 242.441L55.7771 269.34Z" fill="#EFF1C5"/>
<path d="M77.6732 233.436C75.0629 236.659 69.9561 233.711 71.4422 229.839L88.1578 186.284C88.96 184.194 91.4405 183.315 93.3795 184.435L106.025 191.736C107.964 192.855 108.444 195.443 107.035 197.183L77.6732 233.436Z" fill="#EFF1C5"/>
</svg>
