<svg width="226" height="365" viewBox="0 0 226 365" fill="none" xmlns="http://www.w3.org/2000/svg">
<rect x="7.02648" y="5.59948" width="213.374" height="352.809" rx="24.6301" fill="#899D78" stroke="white" stroke-width="10.8132" stroke-linejoin="round"/>
<path d="M56.2811 130.674C107.793 63.2077 175.747 28.5882 208.06 53.3489C240.373 78.1095 224.809 152.874 173.297 220.34C121.785 287.806 53.8316 322.425 21.5185 297.665C-10.7946 272.904 4.76915 198.14 56.2811 130.674Z" fill="white"/>
<path d="M172.263 95.1469C174.253 93.8738 176.852 95.374 176.744 97.7341L174.474 147.6C174.375 149.782 171.998 151.083 170.106 149.991L130.326 127.024C128.435 125.932 128.373 123.223 130.213 122.046L172.263 95.1469Z" fill="#899D78"/>
<path d="M150.367 131.051C152.977 127.828 158.084 130.776 156.598 134.648L139.882 178.203C139.08 180.293 136.6 181.172 134.661 180.052L122.015 172.751C120.076 171.632 119.596 169.044 121.006 167.304L150.367 131.051Z" fill="#899D78"/>
<path d="M56.8037 269.476C54.8135 270.749 52.2151 269.249 52.3226 266.889L54.593 217.023C54.6923 214.841 57.0689 213.54 58.9608 214.632L98.7404 237.599C100.632 238.691 100.694 241.4 98.8537 242.577L56.8037 269.476Z" fill="#899D78"/>
<path d="M78.6998 233.572C76.0895 236.795 70.9827 233.847 72.4688 229.975L89.1844 186.42C89.9866 184.33 92.4671 183.451 94.4061 184.571L107.052 191.872C108.991 192.991 109.471 195.579 108.061 197.319L78.6998 233.572Z" fill="#899D78"/>
<path d="M171.429 95.011C173.419 93.7378 176.018 95.238 175.91 97.5981L173.64 147.464C173.541 149.646 171.164 150.947 169.272 149.855L129.493 126.888C127.601 125.796 127.539 123.087 129.379 121.91L171.429 95.011Z" fill="#899D78"/>
<path d="M149.533 130.915C152.143 127.692 157.25 130.64 155.764 134.513L139.049 178.067C138.246 180.158 135.766 181.036 133.827 179.917L121.181 172.615C119.242 171.496 118.762 168.908 120.172 167.169L149.533 130.915Z" fill="#899D78"/>
<path d="M55.9699 269.34C53.9797 270.613 51.3814 269.113 51.4888 266.753L53.7592 216.887C53.8586 214.705 56.2352 213.404 58.1271 214.496L97.9067 237.463C99.7986 238.555 99.8602 241.264 98.0199 242.441L55.9699 269.34Z" fill="#899D78"/>
<path d="M77.8661 233.436C75.2557 236.659 70.149 233.711 71.6351 229.839L88.3507 186.284C89.1529 184.194 91.6334 183.315 93.5724 184.435L106.218 191.736C108.157 192.855 108.637 195.443 107.228 197.183L77.8661 233.436Z" fill="#899D78"/>
</svg>
