<svg width="226" height="365" viewBox="0 0 226 365" fill="none" xmlns="http://www.w3.org/2000/svg">
<rect x="6.16368" y="5.81432" width="213.374" height="352.809" rx="24.6301" fill="#DA4167" stroke="white" stroke-width="10.8132" stroke-linejoin="round"/>
<path d="M55.4183 130.888C106.93 63.4225 174.884 28.803 207.197 53.5637C239.51 78.3244 223.946 153.089 172.434 220.555C120.922 288.021 52.9688 322.64 20.6557 297.88C-11.6574 273.119 3.90636 198.354 55.4183 130.888Z" fill="white"/>
<path d="M158.381 210.894C158.381 216.297 157.349 221.366 155.285 226.101C153.221 230.836 150.398 234.995 146.817 238.576C143.296 242.097 139.168 244.89 134.432 246.954C129.697 249.018 124.628 250.05 119.226 250.05H66.9575V223.916H119.226C121.047 223.916 122.747 223.582 124.325 222.914C125.903 222.246 127.269 221.336 128.423 220.182C129.637 218.968 130.578 217.572 131.245 215.994C131.913 214.415 132.247 212.715 132.247 210.894C132.247 209.073 131.913 207.373 131.245 205.795C130.578 204.217 129.637 202.851 128.423 201.697C127.269 200.483 125.903 199.542 124.325 198.874C122.747 198.207 121.047 197.873 119.226 197.873H83.6213V171.739H119.226C121.047 171.739 122.747 171.405 124.325 170.737C125.903 170.069 127.269 169.159 128.423 168.005C129.637 166.791 130.578 165.395 131.245 163.817C131.913 162.177 132.247 160.447 132.247 158.626C132.247 156.805 131.913 155.105 131.245 153.527C130.578 151.948 129.637 150.583 128.423 149.429C127.269 148.215 125.903 147.274 124.325 146.606C122.747 145.939 121.047 145.605 119.226 145.605H66.9575V119.471H119.226C124.628 119.471 129.697 120.503 134.432 122.567C139.168 124.631 143.296 127.453 146.817 131.035C150.398 134.556 153.221 138.684 155.285 143.419C157.349 148.154 158.381 153.223 158.381 158.626C158.381 163.422 157.501 168.096 155.74 172.649C153.98 177.142 151.491 181.179 148.274 184.76C151.491 188.342 153.98 192.409 155.74 196.962C157.501 201.454 158.381 206.098 158.381 210.894Z" fill="#DA4167"/>
</svg>
