<svg width="226" height="365" viewBox="0 0 226 365" fill="none" xmlns="http://www.w3.org/2000/svg">
<rect x="6.99889" y="5.65319" width="213.374" height="352.809" rx="24.6301" fill="#7776BC" stroke="white" stroke-width="10.8132" stroke-linejoin="round"/>
<path d="M56.2533 130.727C107.765 63.2614 175.719 28.6419 208.032 53.4026C240.345 78.1633 224.781 152.928 173.269 220.394C121.757 287.86 53.8038 322.479 21.4907 297.718C-10.8224 272.958 4.74132 198.193 56.2533 130.727Z" fill="white"/>
<path d="M164.407 201.991C164.407 209.033 163.132 215.681 160.582 221.933C158.093 228.186 154.633 233.68 150.201 238.415C145.77 243.09 140.488 246.793 134.357 249.524C128.286 252.256 121.7 253.622 114.597 253.622C107.495 253.622 100.787 252.256 94.4731 249.524C88.2203 246.793 82.7568 243.09 78.0824 238.415C73.408 233.68 69.7049 228.186 66.9731 221.933C64.302 215.681 62.9665 209.033 62.9665 201.991C62.9665 193.614 63.786 185.449 65.4251 177.496C67.0642 169.483 69.4621 161.925 72.6188 154.823C75.7755 147.659 79.6304 141.073 84.1833 135.063C88.7363 129.053 93.8964 123.802 99.6635 119.309H134.903C131.261 121.677 127.71 124.318 124.249 127.232C120.789 130.146 117.481 133.272 114.324 136.611C111.228 139.95 108.344 143.471 105.673 147.174C103.002 150.877 100.635 154.732 98.5707 158.738C101.181 156.978 104.004 155.49 107.039 154.276C110.135 153.001 113.292 152.364 116.509 152.364C123.855 152.364 130.472 153.609 136.36 156.097C142.31 158.526 147.348 161.956 151.476 166.387C155.604 170.758 158.791 175.979 161.037 182.049C163.284 188.12 164.407 194.767 164.407 201.991ZM138.273 201.991C138.273 198.531 137.696 195.283 136.543 192.248C135.45 189.152 133.871 186.451 131.807 184.144C129.743 181.776 127.254 179.925 124.341 178.589C121.427 177.254 118.179 176.586 114.597 176.586C111.016 176.586 107.768 177.254 104.854 178.589C101.94 179.925 99.451 181.776 97.387 184.144C95.3837 186.451 93.8356 189.152 92.7429 192.248C91.6502 195.283 91.1039 198.531 91.1039 201.991C91.1039 205.33 91.6502 208.548 92.7429 211.644C93.8964 214.679 95.5051 217.38 97.5691 219.748C99.6331 222.116 102.092 223.997 104.945 225.394C107.859 226.79 111.076 227.488 114.597 227.488C118.179 227.488 121.427 226.82 124.341 225.485C127.254 224.149 129.743 222.328 131.807 220.021C133.871 217.654 135.45 214.922 136.543 211.826C137.696 208.73 138.273 205.452 138.273 201.991Z" fill="#7776BC"/>
</svg>
