<svg width="226" height="365" viewBox="0 0 226 365" fill="none" xmlns="http://www.w3.org/2000/svg">
<rect x="6.31957" y="5.76061" width="213.374" height="352.809" rx="24.6301" fill="#EFF1C5" stroke="white" stroke-width="10.8132" stroke-linejoin="round"/>
<path d="M55.574 130.835C107.086 63.3688 175.04 28.7493 207.353 53.51C239.666 78.2707 224.102 153.035 172.59 220.501C121.078 287.967 53.1244 322.587 20.8113 297.826C-11.5018 273.065 4.06199 198.301 55.574 130.835Z" fill="white"/>
<path d="M163.818 212.662C163.818 218.55 162.483 223.983 159.811 228.961C157.14 233.939 153.468 238.249 148.793 241.892C144.18 245.473 138.777 248.266 132.585 250.269C126.393 252.333 119.776 253.365 112.734 253.365C105.692 253.365 99.0748 252.333 92.8828 250.269C86.6907 248.266 81.2575 245.473 76.5831 241.892C71.9695 238.249 68.3271 233.939 65.656 228.961C62.9849 223.983 61.6494 218.55 61.6494 212.662C61.6494 209.262 62.1047 205.954 63.0153 202.736C63.9259 199.458 65.2311 196.392 66.9308 193.539C68.6913 190.686 70.7857 188.076 73.2139 185.708C75.6422 183.28 78.374 181.216 81.4093 179.516C79.5274 177.877 77.8276 175.995 76.31 173.87C74.853 171.746 73.5782 169.5 72.4855 167.132C71.4535 164.764 70.6643 162.336 70.1179 159.847C69.5716 157.298 69.2984 154.778 69.2984 152.289C69.2984 147.19 70.4215 142.425 72.6676 137.993C74.9744 133.501 78.1008 129.585 82.0467 126.246C85.9926 122.847 90.6063 120.176 95.8877 118.233C101.169 116.291 106.785 115.319 112.734 115.319C118.744 115.319 124.389 116.291 129.671 118.233C134.952 120.176 139.566 122.847 143.512 126.246C147.518 129.585 150.645 133.501 152.891 137.993C155.198 142.425 156.351 147.19 156.351 152.289C156.351 154.778 156.048 157.298 155.441 159.847C154.894 162.336 154.105 164.795 153.073 167.223C152.041 169.591 150.766 171.837 149.249 173.961C147.792 176.086 146.122 177.998 144.24 179.698C147.215 181.398 149.916 183.432 152.345 185.799C154.773 188.167 156.837 190.777 158.537 193.63C160.236 196.484 161.542 199.519 162.452 202.736C163.363 205.954 163.818 209.262 163.818 212.662ZM130.763 155.112C130.763 152.987 130.278 151.015 129.307 149.193C128.396 147.311 127.121 145.672 125.482 144.276C123.904 142.88 122.022 141.787 119.836 140.998C117.651 140.209 115.344 139.814 112.916 139.814C110.427 139.814 108.09 140.209 105.904 140.998C103.719 141.787 101.807 142.88 100.168 144.276C98.5892 145.672 97.3143 147.311 96.343 149.193C95.4324 151.015 94.9771 152.987 94.9771 155.112C94.9771 157.237 95.4324 159.21 96.343 161.031C97.3143 162.852 98.5892 164.431 100.168 165.766C101.807 167.102 103.719 168.164 105.904 168.953C108.09 169.742 110.427 170.137 112.916 170.137C115.344 170.137 117.651 169.742 119.836 168.953C122.022 168.164 123.904 167.102 125.482 165.766C127.121 164.431 128.396 162.852 129.307 161.031C130.278 159.21 130.763 157.237 130.763 155.112ZM137.866 211.933C137.866 209.019 137.198 206.318 135.863 203.829C134.588 201.279 132.797 199.064 130.49 197.182C128.244 195.3 125.573 193.812 122.477 192.72C119.442 191.627 116.194 191.081 112.734 191.081C109.273 191.081 106.026 191.627 102.99 192.72C99.9551 193.812 97.284 195.3 94.9771 197.182C92.731 199.064 90.9402 201.279 89.6046 203.829C88.3298 206.318 87.6924 209.019 87.6924 211.933C87.6924 214.847 88.3298 217.518 89.6046 219.946C90.9402 222.375 92.731 224.469 94.9771 226.23C97.284 227.99 99.9551 229.386 102.99 230.418C106.026 231.39 109.273 231.875 112.734 231.875C116.194 231.875 119.442 231.39 122.477 230.418C125.573 229.386 128.244 227.99 130.49 226.23C132.797 224.469 134.588 222.375 135.863 219.946C137.198 217.518 137.866 214.847 137.866 211.933Z" fill="#EFF1C5"/>
</svg>
