<svg width="226" height="365" viewBox="0 0 226 365" fill="none" xmlns="http://www.w3.org/2000/svg">
<rect x="6.84117" y="6.18151" width="213.374" height="352.809" rx="24.6301" fill="#3093A8" stroke="white" stroke-width="10.8132" stroke-linejoin="round"/>
<path d="M56.2257 131.05C107.738 63.5836 175.691 28.9642 208.004 53.7248C240.318 78.4855 224.754 153.25 173.242 220.716C121.73 288.182 53.7762 322.801 21.4631 298.041C-10.85 273.28 4.71373 198.516 56.2257 131.05Z" fill="white"/>
<path d="M196.855 323.013L196.855 324.647L189.923 327.818L196.855 327.818L196.855 328.972L188.445 328.972L188.445 327.338L195.389 324.166L188.445 324.166L188.445 323.013L196.855 323.013ZM193.671 320.967C193.119 320.967 192.634 320.895 192.218 320.75C191.793 320.598 191.441 320.394 191.16 320.138C190.872 319.881 190.66 319.577 190.523 319.224C190.379 318.864 190.307 318.48 190.307 318.071C190.307 317.663 190.379 317.282 190.523 316.93C190.66 316.569 190.872 316.261 191.16 316.005C191.441 315.74 191.793 315.536 192.218 315.392C192.634 315.24 193.119 315.164 193.671 315.164C194.224 315.164 194.713 315.24 195.137 315.392C195.554 315.536 195.906 315.74 196.194 316.005C196.475 316.261 196.687 316.569 196.831 316.93C196.967 317.282 197.035 317.663 197.035 318.071C197.035 318.48 196.967 318.864 196.831 319.224C196.687 319.577 196.475 319.881 196.194 320.138C195.906 320.394 195.554 320.598 195.137 320.75C194.713 320.895 194.224 320.967 193.671 320.967ZM193.671 319.765C194.496 319.765 195.109 319.609 195.51 319.297C195.902 318.976 196.098 318.568 196.098 318.071C196.098 317.566 195.902 317.158 195.51 316.846C195.109 316.525 194.496 316.365 193.671 316.365C192.846 316.365 192.238 316.525 191.845 316.846C191.445 317.158 191.244 317.566 191.244 318.071C191.244 318.568 191.445 318.976 191.845 319.297C192.238 319.609 192.846 319.765 193.671 319.765ZM190.487 313.661L190.487 312.748L189.166 312.748L188.926 311.835L188.926 311.595L190.487 311.595L190.487 309.913L191.328 309.913L191.328 311.595L195.486 311.595C195.87 311.595 196.062 311.406 196.062 311.03C196.062 310.782 195.95 310.473 195.726 310.105L196.447 309.792C196.631 310.033 196.775 310.305 196.879 310.609C196.983 310.906 197.035 311.186 197.035 311.45C197.035 311.875 196.895 312.199 196.615 312.424C196.327 312.64 195.91 312.748 195.365 312.748L191.328 312.748L191.328 313.661L190.487 313.661ZM190.487 305.647L190.487 304.734L189.166 304.734L188.926 303.821L188.926 303.581L190.487 303.581L190.487 301.899L191.328 301.899L191.328 303.581L195.486 303.581C195.87 303.581 196.062 303.393 196.062 303.016C196.062 302.768 195.95 302.46 195.726 302.091L196.447 301.779C196.631 302.019 196.775 302.291 196.879 302.596C196.983 302.892 197.035 303.172 197.035 303.437C197.035 303.861 196.895 304.186 196.615 304.41C196.327 304.626 195.91 304.734 195.365 304.734L191.328 304.734L191.328 305.647L190.487 305.647ZM191.353 299.238C191.024 298.998 190.768 298.709 190.584 298.373C190.399 298.037 190.307 297.676 190.307 297.292C190.307 296.915 190.351 296.595 190.439 296.331C190.527 296.066 190.668 295.854 190.86 295.694C191.044 295.526 191.288 295.405 191.593 295.333C191.897 295.253 192.266 295.213 192.698 295.213L196.855 295.213L196.855 296.367L192.578 296.367C191.689 296.367 191.244 296.763 191.244 297.556C191.244 298.221 191.525 298.762 192.085 299.178L196.855 299.178L196.855 300.331L187.844 300.331L187.844 299.238L191.353 299.238ZM196.098 290.309C196.098 289.9 196.022 289.548 195.87 289.251C195.71 288.947 195.542 288.703 195.365 288.518L195.99 288.002C196.271 288.25 196.515 288.575 196.723 288.975C196.931 289.376 197.035 289.832 197.035 290.345C197.035 290.769 196.967 291.162 196.831 291.522C196.687 291.883 196.475 292.195 196.194 292.459C195.906 292.716 195.554 292.92 195.137 293.072C194.713 293.216 194.224 293.288 193.671 293.288C193.119 293.288 192.634 293.216 192.218 293.072C191.793 292.928 191.441 292.728 191.16 292.471C190.872 292.215 190.66 291.915 190.523 291.57C190.379 291.218 190.307 290.837 190.307 290.429C190.307 290.052 190.367 289.708 190.487 289.396C190.6 289.075 190.776 288.803 191.016 288.579C191.256 288.354 191.557 288.182 191.917 288.062C192.27 287.934 192.686 287.87 193.167 287.87L194.008 287.87L194.008 292.075C194.721 292.027 195.249 291.843 195.594 291.522C195.93 291.194 196.098 290.789 196.098 290.309ZM191.244 290.417C191.244 290.849 191.405 291.218 191.725 291.522C192.037 291.818 192.518 291.999 193.167 292.063L193.167 289.011C192.55 289.011 192.077 289.135 191.749 289.384C191.413 289.624 191.244 289.968 191.244 290.417ZM190.487 283.132L190.487 282.219L189.755 282.219C189.002 282.219 188.465 282.058 188.145 281.738C187.824 281.41 187.664 280.937 187.664 280.32C187.664 279.912 187.748 279.571 187.916 279.299C188.085 279.019 188.405 278.79 188.877 278.614L189.202 279.575C189.01 279.647 188.861 279.74 188.757 279.852C188.653 279.964 188.601 280.124 188.601 280.332C188.601 280.573 188.685 280.757 188.853 280.885C189.014 281.005 189.274 281.065 189.634 281.065L190.487 281.065L190.487 279.503L191.328 279.503L191.328 281.065L196.855 281.065L196.855 282.219L191.328 282.219L191.328 283.132L190.487 283.132ZM196.855 276.873L196.855 278.027L190.487 278.027L190.487 276.873L196.855 276.873ZM188.481 278.183C188.225 278.183 188.036 278.115 187.916 277.979C187.788 277.835 187.724 277.658 187.724 277.45C187.724 277.234 187.788 277.058 187.916 276.921C188.036 276.777 188.225 276.705 188.481 276.705C188.737 276.705 188.93 276.777 189.058 276.921C189.178 277.058 189.238 277.234 189.238 277.45C189.238 277.658 189.178 277.835 189.058 277.979C188.93 278.115 188.737 278.183 188.481 278.183ZM190.487 273.499L191.268 273.438C190.988 273.19 190.764 272.894 190.596 272.549C190.419 272.205 190.323 271.84 190.307 271.456L191.172 271.396L191.304 271.54C191.312 271.917 191.381 272.257 191.509 272.561C191.629 272.858 191.797 273.11 192.013 273.318L196.855 273.318L196.855 274.472L190.487 274.472L190.487 273.499ZM191.184 268.209C191.184 268.514 191.252 268.77 191.389 268.978C191.525 269.186 191.733 269.291 192.013 269.291C192.238 269.291 192.426 269.21 192.578 269.05C192.722 268.89 192.854 268.69 192.974 268.45C193.095 268.209 193.215 267.953 193.335 267.681C193.455 267.4 193.599 267.14 193.767 266.9C193.928 266.659 194.128 266.459 194.368 266.299C194.6 266.139 194.897 266.059 195.257 266.059C195.794 266.059 196.226 266.255 196.555 266.647C196.875 267.04 197.035 267.584 197.035 268.281C197.035 268.97 196.875 269.499 196.555 269.867C196.226 270.228 195.774 270.476 195.197 270.612L194.861 269.615C195.125 269.575 195.341 269.511 195.51 269.423C195.678 269.327 195.81 269.214 195.906 269.086C196.002 268.958 196.07 268.818 196.11 268.666C196.142 268.514 196.158 268.357 196.158 268.197C196.158 267.925 196.094 267.685 195.966 267.476C195.83 267.268 195.622 267.164 195.341 267.164C195.133 267.164 194.961 267.244 194.825 267.404C194.689 267.564 194.56 267.765 194.44 268.005C194.32 268.245 194.2 268.506 194.08 268.786C193.952 269.058 193.799 269.315 193.623 269.555C193.447 269.795 193.235 269.995 192.986 270.156C192.73 270.316 192.414 270.396 192.037 270.396C191.853 270.396 191.661 270.36 191.461 270.288C191.252 270.216 191.064 270.096 190.896 269.927C190.728 269.751 190.588 269.523 190.475 269.243C190.363 268.954 190.307 268.602 190.307 268.185C190.307 267.633 190.431 267.176 190.68 266.816C190.92 266.447 191.328 266.183 191.905 266.023L192.242 267.02C191.913 267.108 191.657 267.252 191.473 267.452C191.28 267.653 191.184 267.905 191.184 268.209ZM190.487 264.781L190.487 263.868L189.166 263.868L188.926 262.955L188.926 262.715L190.487 262.715L190.487 261.033L191.328 261.033L191.328 262.715L195.486 262.715C195.87 262.715 196.062 262.526 196.062 262.15C196.062 261.902 195.95 261.593 195.726 261.225L196.447 260.912C196.631 261.153 196.775 261.425 196.879 261.729C196.983 262.026 197.035 262.306 197.035 262.57C197.035 262.995 196.895 263.319 196.615 263.544C196.327 263.76 195.91 263.868 195.365 263.868L191.328 263.868L191.328 264.781L190.487 264.781ZM197.372 259.681C197.244 259.681 197.136 259.701 197.047 259.741C196.959 259.781 196.879 259.826 196.807 259.874C196.727 259.922 196.643 259.966 196.555 260.006C196.467 260.046 196.355 260.066 196.218 260.066C195.938 260.066 195.734 259.994 195.606 259.85C195.47 259.697 195.401 259.505 195.401 259.273C195.401 259.041 195.47 258.848 195.606 258.696C195.734 258.544 195.938 258.468 196.218 258.468C196.427 258.468 196.651 258.5 196.891 258.564C197.14 258.628 197.384 258.712 197.624 258.816C197.864 258.912 198.093 259.029 198.309 259.165C198.525 259.293 198.713 259.425 198.874 259.561L198.513 260.102C198.353 259.99 198.169 259.894 197.961 259.814C197.76 259.725 197.564 259.681 197.372 259.681ZM190.307 250.395C190.307 250.026 190.379 249.694 190.523 249.398C190.66 249.093 190.872 248.837 191.16 248.629C191.441 248.412 191.793 248.248 192.218 248.136C192.634 248.016 193.119 247.956 193.671 247.956C194.224 247.956 194.713 248.028 195.137 248.172C195.554 248.316 195.906 248.513 196.194 248.761C196.475 249.009 196.687 249.302 196.831 249.638C196.967 249.974 197.035 250.335 197.035 250.719C197.035 251.088 196.967 251.428 196.831 251.741C196.695 252.053 196.523 252.329 196.315 252.57L196.855 252.87L196.855 253.423L187.844 253.423L187.844 252.269L191.112 252.269C190.896 252.045 190.708 251.781 190.548 251.476C190.387 251.164 190.307 250.803 190.307 250.395ZM191.244 250.647C191.244 250.968 191.308 251.264 191.437 251.536C191.565 251.801 191.737 252.045 191.953 252.269L195.594 252.269C195.738 252.085 195.858 251.865 195.954 251.608C196.05 251.352 196.098 251.072 196.098 250.767C196.098 250.295 195.902 249.91 195.51 249.614C195.109 249.31 194.496 249.157 193.671 249.157C192.846 249.157 192.238 249.298 191.845 249.578C191.445 249.85 191.244 250.207 191.244 250.647ZM195.834 240.975C195.962 240.975 196.05 240.947 196.098 240.891C196.138 240.827 196.158 240.751 196.158 240.663C196.158 240.599 196.15 240.531 196.134 240.459C196.11 240.387 196.082 240.319 196.05 240.254L196.795 240.062C196.859 240.19 196.915 240.331 196.963 240.483C197.011 240.635 197.035 240.803 197.035 240.987C197.035 241.268 196.971 241.504 196.843 241.696C196.715 241.888 196.475 242.009 196.122 242.057C196.363 242.305 196.575 242.609 196.759 242.97C196.943 243.322 197.035 243.739 197.035 244.219C197.035 244.852 196.847 245.313 196.471 245.601C196.086 245.889 195.53 246.034 194.801 246.034L190.487 246.034L190.487 244.88L194.813 244.88C195.245 244.88 195.57 244.804 195.786 244.652C195.994 244.5 196.098 244.243 196.098 243.883C196.098 243.53 196.034 243.21 195.906 242.922C195.778 242.633 195.606 242.369 195.389 242.129L190.487 242.129L190.487 240.975L195.834 240.975ZM190.487 239.039L190.487 238.126L189.166 238.126L188.926 237.213L188.926 236.972L190.487 236.972L190.487 235.29L191.328 235.29L191.328 236.972L195.486 236.972C195.87 236.972 196.062 236.784 196.062 236.408C196.062 236.159 195.95 235.851 195.726 235.482L196.447 235.17C196.631 235.41 196.775 235.683 196.879 235.987C196.983 236.283 197.035 236.564 197.035 236.828C197.035 237.253 196.895 237.577 196.615 237.801C196.327 238.017 195.91 238.126 195.365 238.126L191.328 238.126L191.328 239.039L190.487 239.039ZM190.487 231.025L190.487 230.112L189.166 230.112L188.926 229.199L188.926 228.959L190.487 228.959L190.487 227.276L191.328 227.276L191.328 228.959L195.486 228.959C195.87 228.959 196.062 228.77 196.062 228.394C196.062 228.146 195.95 227.837 195.726 227.469L196.447 227.156C196.631 227.397 196.775 227.669 196.879 227.973C196.983 228.27 197.035 228.55 197.035 228.814C197.035 229.239 196.895 229.563 196.615 229.788C196.327 230.004 195.91 230.112 195.365 230.112L191.328 230.112L191.328 231.025L190.487 231.025ZM191.352 224.616C191.024 224.375 190.768 224.087 190.584 223.751C190.399 223.414 190.307 223.054 190.307 222.669C190.307 222.293 190.351 221.972 190.439 221.708C190.527 221.444 190.668 221.232 190.86 221.071C191.044 220.903 191.288 220.783 191.593 220.711C191.897 220.631 192.266 220.591 192.698 220.591L196.855 220.591L196.855 221.744L192.578 221.744C191.689 221.744 191.244 222.141 191.244 222.934C191.244 223.598 191.525 224.139 192.085 224.556L196.855 224.556L196.855 225.709L187.844 225.709L187.844 224.616L191.352 224.616ZM196.098 215.686C196.098 215.278 196.022 214.925 195.87 214.629C195.71 214.325 195.542 214.08 195.365 213.896L195.99 213.379C196.271 213.628 196.515 213.952 196.723 214.353C196.931 214.753 197.035 215.21 197.035 215.722C197.035 216.147 196.967 216.539 196.831 216.9C196.687 217.26 196.475 217.573 196.194 217.837C195.906 218.093 195.554 218.297 195.137 218.45C194.713 218.594 194.224 218.666 193.671 218.666C193.119 218.666 192.634 218.594 192.218 218.45C191.793 218.305 191.441 218.105 191.16 217.849C190.872 217.593 190.66 217.292 190.523 216.948C190.379 216.595 190.307 216.215 190.307 215.806C190.307 215.43 190.367 215.086 190.487 214.773C190.6 214.453 190.776 214.18 191.016 213.956C191.256 213.732 191.557 213.56 191.917 213.44C192.27 213.311 192.686 213.247 193.167 213.247L194.008 213.247L194.008 217.452C194.721 217.404 195.249 217.22 195.594 216.9C195.93 216.571 196.098 216.167 196.098 215.686ZM191.244 215.794C191.244 216.227 191.405 216.595 191.725 216.9C192.037 217.196 192.518 217.376 193.167 217.44L193.167 214.389C192.55 214.389 192.077 214.513 191.749 214.761C191.413 215.001 191.244 215.346 191.244 215.794ZM190.307 204.941C190.307 204.572 190.379 204.24 190.523 203.944C190.66 203.639 190.872 203.383 191.16 203.175C191.441 202.958 191.793 202.794 192.218 202.682C192.634 202.562 193.119 202.502 193.671 202.502C194.224 202.502 194.713 202.574 195.137 202.718C195.554 202.862 195.906 203.059 196.194 203.307C196.475 203.555 196.687 203.848 196.831 204.184C196.967 204.52 197.035 204.881 197.035 205.265C197.035 205.634 196.967 205.974 196.831 206.287C196.695 206.599 196.523 206.875 196.315 207.116L196.855 207.416L196.855 207.969L187.844 207.969L187.844 206.815L191.112 206.815C190.896 206.591 190.708 206.327 190.548 206.022C190.387 205.71 190.307 205.349 190.307 204.941ZM191.244 205.193C191.244 205.514 191.308 205.81 191.437 206.082C191.565 206.347 191.737 206.591 191.953 206.815L195.594 206.815C195.738 206.631 195.858 206.411 195.954 206.154C196.05 205.898 196.098 205.618 196.098 205.313C196.098 204.841 195.902 204.456 195.51 204.16C195.109 203.856 194.496 203.703 193.671 203.703C192.846 203.703 192.238 203.844 191.845 204.124C191.445 204.396 191.244 204.753 191.244 205.193ZM196.098 197.84C196.098 197.432 196.022 197.079 195.87 196.783C195.71 196.479 195.542 196.234 195.365 196.05L195.99 195.533C196.271 195.782 196.515 196.106 196.723 196.507C196.931 196.907 197.035 197.364 197.035 197.876C197.035 198.301 196.967 198.693 196.831 199.054C196.687 199.414 196.475 199.727 196.194 199.991C195.906 200.247 195.554 200.451 195.137 200.604C194.713 200.748 194.224 200.82 193.671 200.82C193.119 200.82 192.634 200.748 192.218 200.604C191.793 200.459 191.441 200.259 191.16 200.003C190.872 199.747 190.66 199.446 190.523 199.102C190.379 198.749 190.307 198.369 190.307 197.96C190.307 197.584 190.367 197.239 190.487 196.927C190.6 196.607 190.776 196.334 191.016 196.11C191.256 195.886 191.557 195.714 191.917 195.593C192.27 195.465 192.686 195.401 193.167 195.401L194.008 195.401L194.008 199.606C194.721 199.558 195.249 199.374 195.594 199.054C195.93 198.725 196.098 198.321 196.098 197.84ZM191.244 197.948C191.244 198.381 191.405 198.749 191.725 199.054C192.037 199.35 192.518 199.53 193.167 199.594L193.167 196.543C192.55 196.543 192.077 196.667 191.749 196.915C191.413 197.155 191.244 197.5 191.244 197.948ZM191.184 191.487C191.184 191.791 191.252 192.047 191.389 192.256C191.525 192.464 191.733 192.568 192.013 192.568C192.238 192.568 192.426 192.488 192.578 192.328C192.722 192.167 192.854 191.967 192.974 191.727C193.095 191.487 193.215 191.23 193.335 190.958C193.455 190.678 193.599 190.417 193.767 190.177C193.928 189.937 194.128 189.736 194.368 189.576C194.6 189.416 194.897 189.336 195.257 189.336C195.794 189.336 196.226 189.532 196.555 189.925C196.875 190.317 197.035 190.862 197.035 191.559C197.035 192.248 196.875 192.776 196.555 193.145C196.226 193.505 195.774 193.753 195.197 193.89L194.861 192.892C195.125 192.852 195.341 192.788 195.51 192.7C195.678 192.604 195.81 192.492 195.906 192.364C196.002 192.236 196.07 192.095 196.11 191.943C196.142 191.791 196.158 191.635 196.158 191.475C196.158 191.202 196.094 190.962 195.966 190.754C195.83 190.545 195.622 190.441 195.341 190.441C195.133 190.441 194.961 190.521 194.825 190.682C194.689 190.842 194.56 191.042 194.44 191.282C194.32 191.523 194.2 191.783 194.08 192.063C193.952 192.336 193.799 192.592 193.623 192.832C193.447 193.073 193.235 193.273 192.986 193.433C192.73 193.593 192.414 193.673 192.037 193.673C191.853 193.673 191.661 193.637 191.461 193.565C191.252 193.493 191.064 193.373 190.896 193.205C190.728 193.029 190.588 192.8 190.475 192.52C190.363 192.232 190.307 191.879 190.307 191.463C190.307 190.91 190.431 190.453 190.68 190.093C190.92 189.724 191.328 189.46 191.905 189.3L192.242 190.297C191.913 190.385 191.657 190.529 191.473 190.73C191.28 190.93 191.184 191.182 191.184 191.487ZM190.487 188.058L190.487 187.145L189.166 187.145L188.926 186.232L188.926 185.992L190.487 185.992L190.487 184.31L191.328 184.31L191.328 185.992L195.486 185.992C195.87 185.992 196.062 185.804 196.062 185.427C196.062 185.179 195.95 184.871 195.726 184.502L196.447 184.19C196.631 184.43 196.775 184.702 196.879 185.007C196.983 185.303 197.035 185.583 197.035 185.848C197.035 186.272 196.895 186.597 196.615 186.821C196.327 187.037 195.91 187.145 195.365 187.145L191.328 187.145L191.328 188.058L190.487 188.058ZM193.671 179.865C193.119 179.865 192.634 179.792 192.218 179.648C191.793 179.496 191.441 179.292 191.16 179.036C190.872 178.779 190.66 178.475 190.523 178.122C190.379 177.762 190.307 177.378 190.307 176.969C190.307 176.561 190.379 176.18 190.523 175.828C190.66 175.467 190.872 175.159 191.16 174.903C191.441 174.638 191.793 174.434 192.218 174.29C192.634 174.138 193.119 174.061 193.671 174.061C194.224 174.061 194.713 174.138 195.137 174.29C195.554 174.434 195.906 174.638 196.194 174.903C196.475 175.159 196.687 175.467 196.831 175.828C196.967 176.18 197.035 176.561 197.035 176.969C197.035 177.378 196.967 177.762 196.831 178.122C196.687 178.475 196.475 178.779 196.194 179.036C195.906 179.292 195.554 179.496 195.137 179.648C194.713 179.792 194.224 179.865 193.671 179.865ZM193.671 178.663C194.496 178.663 195.109 178.507 195.51 178.195C195.902 177.874 196.098 177.466 196.098 176.969C196.098 176.464 195.902 176.056 195.51 175.744C195.109 175.423 194.496 175.263 193.671 175.263C192.846 175.263 192.238 175.423 191.845 175.744C191.445 176.056 191.244 176.464 191.244 176.969C191.244 177.466 191.445 177.874 191.845 178.195C192.238 178.507 192.846 178.663 193.671 178.663ZM190.487 171.045L191.256 170.985C191.008 170.737 190.788 170.445 190.596 170.108C190.403 169.772 190.307 169.395 190.307 168.979C190.307 168.602 190.351 168.282 190.439 168.018C190.527 167.753 190.668 167.541 190.86 167.381C191.044 167.213 191.288 167.092 191.593 167.02C191.897 166.94 192.266 166.9 192.698 166.9L196.855 166.9L196.855 168.054L192.578 168.054C191.689 168.054 191.244 168.458 191.244 169.267C191.244 169.547 191.308 169.824 191.437 170.096C191.565 170.368 191.741 170.625 191.965 170.865L196.855 170.865L196.855 172.018L190.487 172.018L190.487 171.045ZM195.834 163.461C195.962 163.461 196.05 163.437 196.098 163.389C196.138 163.333 196.158 163.261 196.158 163.173C196.158 163.109 196.15 163.037 196.134 162.957C196.11 162.877 196.082 162.805 196.05 162.741L196.795 162.548C196.859 162.676 196.915 162.817 196.963 162.969C197.011 163.121 197.035 163.289 197.035 163.473C197.035 163.634 197.015 163.782 196.975 163.918C196.943 164.054 196.879 164.174 196.783 164.278C196.687 164.383 196.559 164.467 196.399 164.531C196.238 164.587 196.038 164.615 195.798 164.615L187.844 164.615L187.844 163.461L195.834 163.461ZM196.855 159.906L196.855 161.06L190.487 161.06L190.487 159.906L196.855 159.906ZM188.481 161.216C188.225 161.216 188.036 161.148 187.916 161.012C187.788 160.867 187.724 160.691 187.724 160.483C187.724 160.267 187.788 160.091 187.916 159.954C188.036 159.81 188.225 159.738 188.481 159.738C188.737 159.738 188.93 159.81 189.058 159.954C189.178 160.091 189.238 160.267 189.238 160.483C189.238 160.691 189.178 160.867 189.058 161.012C188.93 161.148 188.737 161.216 188.481 161.216ZM190.487 156.531L191.256 156.471C191.008 156.223 190.788 155.931 190.596 155.594C190.403 155.258 190.307 154.881 190.307 154.465C190.307 154.088 190.351 153.768 190.439 153.504C190.527 153.239 190.668 153.027 190.86 152.867C191.044 152.699 191.288 152.579 191.593 152.507C191.897 152.426 192.266 152.386 192.698 152.386L196.855 152.386L196.855 153.54L192.578 153.54C191.689 153.54 191.244 153.944 191.244 154.753C191.244 155.034 191.308 155.31 191.437 155.582C191.565 155.855 191.741 156.111 191.965 156.351L196.855 156.351L196.855 157.505L190.487 157.505L190.487 156.531ZM196.098 147.482C196.098 147.073 196.022 146.721 195.87 146.425C195.71 146.12 195.542 145.876 195.365 145.692L195.99 145.175C196.271 145.423 196.515 145.748 196.723 146.148C196.931 146.549 197.035 147.005 197.035 147.518C197.035 147.942 196.967 148.335 196.831 148.695C196.687 149.056 196.475 149.368 196.194 149.632C195.906 149.889 195.554 150.093 195.137 150.245C194.713 150.389 194.224 150.461 193.671 150.461C193.119 150.461 192.634 150.389 192.218 150.245C191.793 150.101 191.441 149.901 191.16 149.644C190.872 149.388 190.66 149.088 190.523 148.743C190.379 148.391 190.307 148.01 190.307 147.602C190.307 147.226 190.367 146.881 190.487 146.569C190.6 146.248 190.776 145.976 191.016 145.752C191.256 145.527 191.557 145.355 191.917 145.235C192.27 145.107 192.686 145.043 193.167 145.043L194.008 145.043L194.008 149.248C194.721 149.2 195.249 149.016 195.594 148.695C195.93 148.367 196.098 147.962 196.098 147.482ZM191.244 147.59C191.244 148.022 191.405 148.391 191.725 148.695C192.037 148.992 192.518 149.172 193.167 149.236L193.167 146.184C192.55 146.184 192.077 146.308 191.749 146.557C191.413 146.797 191.244 147.141 191.244 147.59ZM195.834 134.826C195.962 134.826 196.05 134.798 196.098 134.742C196.138 134.678 196.158 134.602 196.158 134.514C196.158 134.45 196.15 134.382 196.134 134.31C196.11 134.237 196.082 134.169 196.05 134.105L196.795 133.913C196.859 134.041 196.915 134.181 196.963 134.334C197.011 134.486 197.035 134.654 197.035 134.838C197.035 135.119 196.971 135.355 196.843 135.547C196.715 135.739 196.475 135.859 196.122 135.907C196.363 136.156 196.575 136.46 196.759 136.821C196.943 137.173 197.035 137.59 197.035 138.07C197.035 138.703 196.847 139.163 196.471 139.452C196.086 139.74 195.53 139.884 194.801 139.884L190.487 139.884L190.487 138.731L194.813 138.731C195.245 138.731 195.57 138.655 195.786 138.503C195.994 138.35 196.098 138.094 196.098 137.734C196.098 137.381 196.034 137.061 195.906 136.773C195.778 136.484 195.606 136.22 195.389 135.98L190.487 135.98L190.487 134.826L195.834 134.826ZM190.487 131.376L191.256 131.316C191.008 131.067 190.788 130.775 190.596 130.439C190.403 130.102 190.307 129.726 190.307 129.309C190.307 128.933 190.351 128.612 190.439 128.348C190.527 128.084 190.668 127.871 190.86 127.711C191.044 127.543 191.288 127.423 191.593 127.351C191.897 127.271 192.266 127.231 192.698 127.231L196.855 127.231L196.855 128.384L192.578 128.384C191.689 128.384 191.244 128.789 191.244 129.598C191.244 129.878 191.308 130.154 191.437 130.427C191.565 130.699 191.741 130.955 191.965 131.195L196.855 131.195L196.855 132.349L190.487 132.349L190.487 131.376ZM193.671 125.306C193.119 125.306 192.634 125.234 192.218 125.089C191.793 124.937 191.441 124.733 191.16 124.477C190.872 124.22 190.66 123.916 190.523 123.564C190.379 123.203 190.307 122.819 190.307 122.41C190.307 122.002 190.379 121.621 190.523 121.269C190.66 120.908 190.872 120.6 191.16 120.344C191.441 120.079 191.793 119.875 192.218 119.731C192.634 119.579 193.119 119.503 193.671 119.503C194.224 119.503 194.713 119.579 195.137 119.731C195.554 119.875 195.906 120.079 196.194 120.344C196.475 120.6 196.687 120.908 196.831 121.269C196.967 121.621 197.035 122.002 197.035 122.41C197.035 122.819 196.967 123.203 196.831 123.564C196.687 123.916 196.475 124.22 196.194 124.477C195.906 124.733 195.554 124.937 195.137 125.089C194.713 125.234 194.224 125.306 193.671 125.306ZM193.671 124.104C194.496 124.104 195.109 123.948 195.51 123.636C195.902 123.315 196.098 122.907 196.098 122.41C196.098 121.906 195.902 121.497 195.51 121.185C195.109 120.864 194.496 120.704 193.671 120.704C192.846 120.704 192.238 120.864 191.845 121.185C191.445 121.497 191.244 121.906 191.244 122.41C191.244 122.907 191.445 123.315 191.845 123.636C192.238 123.948 192.846 124.104 193.671 124.104ZM196.098 111.602C196.098 111.194 196.022 110.841 195.87 110.545C195.71 110.24 195.542 109.996 195.365 109.812L195.99 109.295C196.271 109.544 196.515 109.868 196.723 110.268C196.931 110.669 197.035 111.125 197.035 111.638C197.035 112.063 196.967 112.455 196.831 112.816C196.687 113.176 196.475 113.488 196.194 113.753C195.906 114.009 195.554 114.213 195.137 114.365C194.713 114.51 194.224 114.582 193.671 114.582C193.119 114.582 192.634 114.51 192.218 114.365C191.793 114.221 191.441 114.021 191.16 113.765C190.872 113.508 190.66 113.208 190.523 112.864C190.379 112.511 190.307 112.131 190.307 111.722C190.307 111.346 190.367 111.001 190.487 110.689C190.6 110.369 190.776 110.096 191.016 109.872C191.256 109.648 191.557 109.475 191.917 109.355C192.27 109.227 192.686 109.163 193.167 109.163L194.008 109.163L194.008 113.368C194.721 113.32 195.249 113.136 195.594 112.816C195.93 112.487 196.098 112.083 196.098 111.602ZM191.244 111.71C191.244 112.143 191.405 112.511 191.725 112.816C192.037 113.112 192.518 113.292 193.167 113.356L193.167 110.304C192.55 110.304 192.077 110.429 191.749 110.677C191.413 110.917 191.244 111.262 191.244 111.71ZM192.722 105.236L190.487 103.795L190.487 102.665L193.611 104.672L196.855 102.605L196.855 103.867L194.536 105.345L196.855 106.834L196.855 107.964L193.647 105.897L190.487 107.904L190.487 106.642L192.722 105.236ZM190.487 101.045L190.487 100.072L191.232 100.012C190.992 99.7795 190.78 99.5031 190.596 99.1827C190.403 98.8543 190.307 98.4659 190.307 98.0173C190.307 97.6489 190.379 97.3165 190.523 97.0201C190.66 96.7157 190.872 96.4594 191.16 96.2512C191.441 96.0349 191.793 95.8707 192.218 95.7586C192.634 95.6384 193.119 95.5783 193.671 95.5783C194.224 95.5783 194.713 95.6504 195.137 95.7946C195.554 95.9388 195.906 96.135 196.194 96.3833C196.475 96.6316 196.687 96.924 196.831 97.2604C196.967 97.5968 197.035 97.9573 197.035 98.3417C197.035 98.6381 196.991 98.9184 196.903 99.1827C196.815 99.4391 196.695 99.6753 196.543 99.8916L199.679 99.8916L199.679 101.045L190.487 101.045ZM191.244 98.2696C191.244 98.59 191.308 98.8864 191.437 99.1587C191.565 99.423 191.737 99.6673 191.953 99.8916L195.594 99.8916C195.738 99.7074 195.858 99.4871 195.954 99.2308C196.05 98.9745 196.098 98.6942 196.098 98.3898C196.098 97.9172 195.902 97.5327 195.51 97.2364C195.109 96.932 194.496 96.7798 193.671 96.7798C192.846 96.7798 192.238 96.92 191.845 97.2003C191.445 97.4727 191.244 97.8291 191.244 98.2696ZM196.098 90.9167C196.098 90.5082 196.022 90.1557 195.87 89.8594C195.71 89.555 195.542 89.3107 195.365 89.1265L195.99 88.6098C196.27 88.8581 196.515 89.1825 196.723 89.583C196.931 89.9835 197.035 90.4401 197.035 90.9527C197.035 91.3772 196.967 91.7697 196.831 92.1301C196.687 92.4906 196.475 92.803 196.194 93.0673C195.906 93.3236 195.554 93.5278 195.137 93.68C194.713 93.8242 194.224 93.8963 193.671 93.8963C193.119 93.8963 192.634 93.8242 192.218 93.68C191.793 93.5359 191.441 93.3356 191.16 93.0793C190.872 92.823 190.66 92.5226 190.523 92.1782C190.379 91.8258 190.307 91.4453 190.307 91.0368C190.307 90.6603 190.367 90.3159 190.487 90.0035C190.6 89.6831 190.776 89.4108 191.016 89.1865C191.256 88.9623 191.557 88.7901 191.917 88.6699C192.27 88.5418 192.686 88.4777 193.167 88.4777L194.008 88.4777L194.008 92.6828C194.721 92.6348 195.249 92.4505 195.594 92.1301C195.93 91.8017 196.098 91.3972 196.098 90.9167ZM191.244 91.0248C191.244 91.4573 191.405 91.8258 191.725 92.1301C192.037 92.4265 192.518 92.6067 193.167 92.6708L193.167 89.6191C192.55 89.6191 192.077 89.7432 191.749 89.9915C191.413 90.2318 191.244 90.5762 191.244 91.0248ZM190.487 85.4641L191.268 85.4041C190.988 85.1558 190.764 84.8594 190.596 84.515C190.419 84.1706 190.323 83.8061 190.307 83.4216L191.172 83.3616L191.304 83.5057C191.312 83.8822 191.381 84.2226 191.509 84.527C191.629 84.8234 191.797 85.0757 192.013 85.2839L196.855 85.2839L196.855 86.4373L190.487 86.4373L190.487 85.4641ZM196.855 80.8957L196.855 82.0492L190.487 82.0492L190.487 80.8957L196.855 80.8957ZM188.481 82.2053C188.225 82.2053 188.036 82.1373 187.916 82.0011C187.788 81.8569 187.724 81.6807 187.724 81.4725C187.724 81.2562 187.788 81.08 187.916 80.9438C188.036 80.7996 188.225 80.7275 188.481 80.7275C188.737 80.7275 188.93 80.7996 189.058 80.9438C189.178 81.08 189.238 81.2562 189.238 81.4725C189.238 81.6807 189.178 81.8569 189.058 82.0011C188.93 82.1373 188.737 82.2053 188.481 82.2053ZM196.098 75.8748C196.098 75.4663 196.022 75.1139 195.87 74.8176C195.71 74.5132 195.542 74.2689 195.365 74.0847L195.99 73.568C196.27 73.8163 196.515 74.1407 196.723 74.5412C196.931 74.9417 197.035 75.3983 197.035 75.9109C197.035 76.3354 196.967 76.7279 196.831 77.0883C196.687 77.4488 196.475 77.7611 196.194 78.0255C195.906 78.2818 195.554 78.486 195.137 78.6382C194.713 78.7824 194.224 78.8545 193.671 78.8545C193.119 78.8545 192.634 78.7824 192.218 78.6382C191.793 78.494 191.441 78.2938 191.16 78.0375C190.872 77.7812 190.66 77.4808 190.523 77.1364C190.379 76.784 190.307 76.4035 190.307 75.995C190.307 75.6185 190.367 75.2741 190.487 74.9617C190.6 74.6413 190.776 74.369 191.016 74.1447C191.256 73.9205 191.557 73.7482 191.917 73.6281C192.27 73.4999 192.686 73.4359 193.167 73.4359L194.008 73.4359L194.008 77.641C194.721 77.5929 195.249 77.4087 195.594 77.0883C195.93 76.7599 196.098 76.3554 196.098 75.8748ZM191.244 75.983C191.244 76.4155 191.405 76.784 191.725 77.0883C192.037 77.3847 192.518 77.5649 193.167 77.629L193.167 74.5773C192.55 74.5773 192.077 74.7014 191.749 74.9497C191.413 75.19 191.244 75.5344 191.244 75.983ZM190.487 70.4223L191.256 70.3623C191.008 70.114 190.788 69.8216 190.596 69.4852C190.403 69.1488 190.307 68.7723 190.307 68.3558C190.307 67.9793 190.351 67.659 190.439 67.3946C190.527 67.1303 190.668 66.918 190.86 66.7579C191.044 66.5896 191.288 66.4695 191.593 66.3974C191.897 66.3173 192.266 66.2773 192.698 66.2773L196.855 66.2773L196.855 67.4307L192.578 67.4307C191.689 67.4307 191.244 67.8352 191.244 68.6442C191.244 68.9245 191.308 69.2008 191.437 69.4732C191.565 69.7455 191.741 70.0018 191.965 70.2421L196.855 70.2421L196.855 71.3955L190.487 71.3955L190.487 70.4223ZM192.242 60.2193C191.577 60.4036 191.244 60.8121 191.244 61.4448C191.244 61.9414 191.445 62.3499 191.845 62.6703C192.238 62.9907 192.846 63.1509 193.671 63.1509C194.496 63.1509 195.109 62.9867 195.51 62.6583C195.902 62.3299 196.098 61.9134 196.098 61.4088C196.098 61.0484 196.022 60.724 195.87 60.4356C195.71 60.1473 195.542 59.911 195.365 59.7267L195.99 59.2101C196.27 59.4584 196.515 59.7788 196.723 60.1713C196.931 60.5638 197.035 60.9923 197.035 61.4569C197.035 61.8814 196.967 62.2698 196.831 62.6223C196.687 62.9747 196.475 63.2791 196.194 63.5354C195.906 63.7917 195.554 63.992 195.137 64.1361C194.713 64.2803 194.224 64.3524 193.671 64.3524C193.119 64.3524 192.634 64.2803 192.218 64.1361C191.793 63.9839 191.441 63.7797 191.16 63.5234C190.872 63.2671 190.66 62.9627 190.523 62.6103C190.379 62.2578 190.307 61.8774 190.307 61.4689C190.307 60.9242 190.431 60.4596 190.68 60.0752C190.92 59.6827 191.328 59.3983 191.905 59.2221L192.242 60.2193ZM196.098 55.0252C196.098 54.6167 196.022 54.2642 195.87 53.9679C195.71 53.6635 195.542 53.4192 195.365 53.235L195.99 52.7183C196.27 52.9666 196.515 53.291 196.723 53.6915C196.931 54.092 197.035 54.5486 197.035 55.0612C197.035 55.4857 196.967 55.8782 196.831 56.2386C196.687 56.5991 196.475 56.9115 196.194 57.1758C195.906 57.4321 195.554 57.6363 195.137 57.7885C194.713 57.9327 194.224 58.0048 193.671 58.0048C193.119 58.0048 192.634 57.9327 192.218 57.7885C191.793 57.6444 191.441 57.4441 191.16 57.1878C190.872 56.9315 190.66 56.6311 190.523 56.2867C190.379 55.9343 190.307 55.5538 190.307 55.1453C190.307 54.7688 190.367 54.4244 190.487 54.112C190.6 53.7917 190.776 53.5193 191.016 53.295C191.256 53.0708 191.557 52.8986 191.917 52.7784C192.27 52.6503 192.686 52.5862 193.167 52.5862L194.008 52.5862L194.008 56.7913C194.721 56.7433 195.249 56.559 195.594 56.2386C195.93 55.9102 196.098 55.5057 196.098 55.0252ZM191.244 55.1333C191.244 55.5658 191.405 55.9343 191.725 56.2386C192.037 56.535 192.518 56.7152 193.167 56.7793L193.167 53.7276C192.55 53.7276 192.077 53.8517 191.749 54.1C191.413 54.3403 191.244 54.6847 191.244 55.1333ZM196.098 44.6883C196.098 44.2798 196.022 43.9274 195.87 43.631C195.71 43.3266 195.542 43.0823 195.365 42.8981L195.99 42.3815C196.27 42.6298 196.515 42.9542 196.723 43.3547C196.931 43.7552 197.035 44.2117 197.035 44.7243C197.035 45.1489 196.967 45.5413 196.831 45.9018C196.687 46.2622 196.475 46.5746 196.194 46.8389C195.906 47.0952 195.554 47.2995 195.137 47.4517C194.713 47.5959 194.224 47.6679 193.671 47.6679C193.119 47.6679 192.634 47.5959 192.218 47.4517C191.793 47.3075 191.441 47.1073 191.16 46.8509C190.872 46.5946 190.66 46.2943 190.523 45.9498C190.379 45.5974 190.307 45.217 190.307 44.8085C190.307 44.432 190.367 44.0876 190.487 43.7752C190.6 43.4548 190.776 43.1825 191.016 42.9582C191.256 42.7339 191.557 42.5617 191.917 42.4416C192.27 42.3134 192.686 42.2493 193.167 42.2493L194.008 42.2493L194.008 46.4545C194.721 46.4064 195.249 46.2222 195.594 45.9018C195.93 45.5734 196.098 45.1689 196.098 44.6883ZM191.244 44.7964C191.244 45.229 191.405 45.5974 191.725 45.9018C192.037 46.1981 192.518 46.3784 193.167 46.4424L193.167 43.3907C192.55 43.3907 192.077 43.5149 191.749 43.7632C191.413 44.0035 191.244 44.3479 191.244 44.7964ZM196.855 37.4336L196.855 38.9475L190.487 40.9899L190.487 39.8005L195.786 38.1305L190.487 36.4604L190.487 35.3911L196.855 37.4336ZM196.098 31.1483C196.098 30.7398 196.022 30.3874 195.87 30.091C195.71 29.7867 195.542 29.5424 195.365 29.3581L195.99 28.8415C196.27 29.0898 196.515 29.4142 196.723 29.8147C196.931 30.2152 197.035 30.6717 197.035 31.1844C197.035 31.6089 196.967 32.0014 196.831 32.3618C196.687 32.7222 196.475 33.0346 196.194 33.299C195.906 33.5553 195.554 33.7595 195.137 33.9117C194.713 34.0559 194.224 34.128 193.671 34.128C193.119 34.128 192.634 34.0559 192.218 33.9117C191.793 33.7675 191.441 33.5673 191.16 33.311C190.872 33.0547 190.66 32.7543 190.523 32.4099C190.379 32.0574 190.307 31.677 190.307 31.2685C190.307 30.892 190.367 30.5476 190.487 30.2352C190.6 29.9148 190.776 29.6425 191.016 29.4182C191.256 29.1939 191.557 29.0217 191.917 28.9016C192.27 28.7734 192.686 28.7093 193.167 28.7093L194.008 28.7093L194.008 32.9145C194.721 32.8664 195.249 32.6822 195.594 32.3618C195.93 32.0334 196.098 31.6289 196.098 31.1483ZM191.244 31.2565C191.244 31.689 191.405 32.0574 191.725 32.3618C192.037 32.6582 192.518 32.8384 193.167 32.9025L193.167 29.8507C192.55 29.8507 192.077 29.9749 191.749 30.2232C191.413 30.4635 191.244 30.8079 191.244 31.2565ZM190.487 25.6958L191.268 25.6358C190.988 25.3875 190.764 25.0911 190.596 24.7467C190.419 24.4022 190.323 24.0378 190.307 23.6533L191.172 23.5933L191.304 23.7374C191.312 24.1139 191.381 24.4543 191.509 24.7587C191.629 25.055 191.797 25.3074 192.013 25.5156L196.855 25.5156L196.855 26.669L190.487 26.669L190.487 25.6958Z" fill="#264653"/>
<path d="M69.5045 282.715C72.4832 282.715 75.2866 283.279 77.9148 284.405C80.518 285.531 82.7958 287.071 84.7481 289.023C86.6755 290.975 88.2024 293.266 89.3287 295.894C90.4551 298.497 91.0183 301.288 91.0183 304.267C91.0183 307.245 90.4551 310.049 89.3287 312.677C88.2024 315.28 86.6755 317.558 84.7482 319.51C82.7958 321.438 80.518 322.965 77.9148 324.091C75.2866 325.217 72.4832 325.78 69.5045 325.78L37.1775 325.78L37.1775 315.042L69.5045 315.042C70.9813 315.042 72.3705 314.767 73.6721 314.216C74.9737 313.641 76.1126 312.865 77.0888 311.889C78.065 310.912 78.8409 309.773 79.4166 308.472C79.9673 307.145 80.2426 305.743 80.2426 304.267C80.2426 302.79 79.9673 301.401 79.4166 300.099C78.8409 298.772 78.065 297.621 77.0888 296.645C76.1126 295.669 74.9737 294.905 73.6721 294.355C72.3705 293.779 70.9813 293.491 69.5045 293.491L37.1775 293.491L37.1775 282.715L69.5045 282.715ZM91.0183 226.457L91.0183 237.983L55.575 258.746L91.0183 258.746L91.0183 269.522L37.1775 269.522L37.1775 257.995L72.6584 237.232L37.1775 237.232L37.1775 226.457L91.0183 226.457ZM64.3232 159.835C66.8763 159.835 69.3418 160.173 71.7197 160.849C74.0726 161.5 76.2878 162.426 78.3653 163.627C80.4179 164.829 82.2951 166.281 83.9972 167.983C85.6993 169.685 87.1636 171.562 88.3901 173.615C89.5916 175.667 90.5177 177.882 91.1685 180.26C91.8443 182.638 92.1822 185.104 92.1822 187.657C92.1822 190.21 91.8443 192.675 91.1685 195.053C90.5177 197.406 89.5916 199.621 88.3901 201.699C87.1636 203.751 85.6993 205.629 83.9972 207.331C82.2951 209.033 80.4179 210.497 78.3653 211.724C76.2878 212.925 74.0726 213.864 71.7197 214.54C69.3418 215.19 66.8763 215.516 64.3232 215.516C61.7701 215.516 59.3046 215.19 56.9267 214.54C54.5488 213.864 52.3336 212.925 50.281 211.724C48.2285 210.497 46.3512 209.033 44.6492 207.331C42.9471 205.629 41.4953 203.751 40.2938 201.699C39.0924 199.621 38.1662 197.406 37.5154 195.053C36.8396 192.675 36.5017 190.21 36.5017 187.657C36.5017 185.104 36.8396 182.638 37.5154 180.26C38.1662 177.882 39.0924 175.667 40.2938 173.615C41.4953 171.562 42.9471 169.685 44.6492 167.983C46.3512 166.281 48.2285 164.829 50.281 163.627C52.3335 162.426 54.5488 161.5 56.9267 160.849C59.3046 160.173 61.7701 159.835 64.3232 159.835ZM64.3232 170.536C61.9703 170.536 59.7551 170.986 57.6776 171.887C55.575 172.789 53.7603 174.015 52.2334 175.567C50.6815 177.094 49.455 178.909 48.5539 181.011C47.6528 183.089 47.2023 185.304 47.2023 187.657C47.2023 190.035 47.6528 192.262 48.5539 194.34C49.455 196.417 50.6815 198.232 52.2334 199.784C53.7603 201.336 55.575 202.562 57.6776 203.464C59.7551 204.365 61.9703 204.815 64.3232 204.815C66.6761 204.815 68.8913 204.365 70.9688 203.464C73.0213 202.562 74.8235 201.336 76.3754 199.784C77.9273 198.232 79.1538 196.417 80.0549 194.34C80.956 192.262 81.4066 190.035 81.4066 187.657C81.4066 185.304 80.956 183.089 80.0549 181.011C79.1538 178.909 77.9273 177.094 76.3754 175.567C74.8235 174.015 73.0213 172.789 70.9688 171.887C68.8913 170.986 66.6761 170.536 64.3232 170.536ZM139.323 272.428C141.876 272.428 144.342 272.766 146.72 273.442C149.073 274.092 151.288 275.018 153.365 276.22C155.418 277.421 157.295 278.873 158.997 280.575C160.699 282.277 162.164 284.155 163.39 286.207C164.592 288.26 165.518 290.475 166.168 292.853C166.844 295.231 167.182 297.696 167.182 300.249C167.182 302.802 166.844 305.268 166.168 307.646C165.518 309.999 164.592 312.214 163.39 314.291C162.164 316.344 160.699 318.221 158.997 319.923C157.295 321.625 155.418 323.09 153.365 324.316C151.288 325.518 149.073 326.456 146.72 327.132C144.342 327.783 141.876 328.108 139.323 328.108C136.77 328.108 134.305 327.783 131.927 327.132C129.549 326.456 127.334 325.518 125.281 324.316C123.229 323.09 121.351 321.625 119.649 319.923C117.947 318.221 116.495 316.344 115.294 314.291C114.092 312.214 113.166 309.999 112.515 307.646C111.84 305.268 111.502 302.802 111.502 300.249C111.502 297.696 111.84 295.231 112.515 292.853C113.166 290.475 114.092 288.26 115.294 286.207C116.495 284.155 117.947 282.277 119.649 280.575C121.351 278.873 123.229 277.421 125.281 276.22C127.334 275.018 129.549 274.092 131.927 273.442C134.305 272.766 136.77 272.428 139.323 272.428ZM139.323 283.128C136.97 283.128 134.755 283.579 132.678 284.48C130.575 285.381 128.76 286.608 127.233 288.16C125.682 289.686 124.455 291.501 123.554 293.604C122.653 295.681 122.202 297.896 122.202 300.249C122.202 302.627 122.653 304.855 123.554 306.932C124.455 309.01 125.682 310.825 127.233 312.377C128.76 313.928 130.575 315.155 132.678 316.056C134.755 316.957 136.97 317.408 139.323 317.408C141.676 317.408 143.891 316.957 145.969 316.056C148.021 315.155 149.824 313.928 151.375 312.377C152.927 310.825 154.154 309.01 155.055 306.932C155.956 304.855 156.407 302.627 156.407 300.249C156.407 297.896 155.956 295.681 155.055 293.604C154.154 291.501 152.927 289.686 151.375 288.16C149.824 286.608 148.021 285.381 145.969 284.48C143.891 283.579 141.676 283.128 139.323 283.128ZM166.018 218.422L166.018 229.948L130.575 250.711L166.018 250.711L166.018 261.487L112.178 261.487L112.178 249.96L147.658 229.197L112.178 229.197L112.178 218.422L166.018 218.422ZM166.018 166.856L166.018 204.552L112.178 204.552L112.178 193.777L155.243 193.777L155.243 166.856L166.018 166.856ZM166.018 146.604L166.018 157.38L112.178 157.38L112.178 146.604L166.018 146.604ZM166.018 89.6695L166.018 101.196L130.575 121.959L166.018 121.959L166.018 132.735L112.178 132.735L112.178 121.208L147.658 100.445L112.178 100.445L112.178 89.6695L166.018 89.6695ZM166.018 38.8925L166.018 75.8001L112.178 75.8001L112.178 38.8925L122.953 38.8925L122.953 65.0244L133.729 65.0244L133.729 47.3403L144.505 47.3403L144.505 65.0244L155.243 65.0244L155.243 38.8925L166.018 38.8925Z" fill="#264653"/>
</svg>
