<svg width="226" height="365" viewBox="0 0 226 365" fill="none" xmlns="http://www.w3.org/2000/svg">
<rect x="6.74157" y="5.81432" width="213.374" height="352.809" rx="24.6301" fill="#899D78" stroke="white" stroke-width="10.8132" stroke-linejoin="round"/>
<path d="M55.9962 130.888C107.508 63.4225 175.462 28.803 207.775 53.5637C240.088 78.3244 224.524 153.089 173.012 220.555C121.5 288.021 53.5467 322.64 21.2336 297.88C-11.0795 273.119 4.48424 198.354 55.9962 130.888Z" fill="white"/>
<path d="M158.959 210.894C158.959 216.297 157.927 221.366 155.863 226.101C153.799 230.836 150.976 234.995 147.394 238.576C143.873 242.097 139.745 244.89 135.01 246.954C130.275 249.018 125.206 250.05 119.803 250.05H67.5351V223.916H119.803C121.624 223.916 123.324 223.582 124.903 222.914C126.481 222.246 127.847 221.336 129 220.182C130.214 218.968 131.155 217.572 131.823 215.994C132.491 214.415 132.825 212.715 132.825 210.894C132.825 209.073 132.491 207.373 131.823 205.795C131.155 204.217 130.214 202.851 129 201.697C127.847 200.483 126.481 199.542 124.903 198.874C123.324 198.207 121.624 197.873 119.803 197.873H84.199V171.739H119.803C121.624 171.739 123.324 171.405 124.903 170.737C126.481 170.069 127.847 169.159 129 168.005C130.214 166.791 131.155 165.395 131.823 163.817C132.491 162.177 132.825 160.447 132.825 158.626C132.825 156.805 132.491 155.105 131.823 153.527C131.155 151.948 130.214 150.583 129 149.429C127.847 148.215 126.481 147.274 124.903 146.606C123.324 145.939 121.624 145.605 119.803 145.605H67.5351V119.471H119.803C125.206 119.471 130.275 120.503 135.01 122.567C139.745 124.631 143.873 127.453 147.394 131.035C150.976 134.556 153.799 138.684 155.863 143.419C157.927 148.154 158.959 153.223 158.959 158.626C158.959 163.422 158.079 168.096 156.318 172.649C154.558 177.142 152.069 181.179 148.851 184.76C152.069 188.342 154.558 192.409 156.318 196.962C158.079 201.454 158.959 206.098 158.959 210.894Z" fill="#899D78"/>
</svg>
