<svg width="227" height="365" viewBox="0 0 227 365" fill="none" xmlns="http://www.w3.org/2000/svg">
<rect x="7.12706" y="5.76061" width="213.374" height="352.809" rx="24.6301" fill="#7776BC" stroke="white" stroke-width="10.8132" stroke-linejoin="round"/>
<path d="M56.3815 130.835C107.893 63.3688 175.847 28.7493 208.16 53.51C240.473 78.2707 224.91 153.035 173.398 220.501C121.886 287.967 53.9319 322.587 21.6188 297.826C-10.6943 273.065 4.86949 198.301 56.3815 130.835Z" fill="white"/>
<path d="M164.626 212.662C164.626 218.55 163.29 223.983 160.619 228.961C157.948 233.939 154.275 238.249 149.601 241.892C144.987 245.473 139.584 248.266 133.392 250.269C127.2 252.333 120.583 253.365 113.541 253.365C106.499 253.365 99.8824 252.333 93.6904 250.269C87.4984 248.266 82.0651 245.473 77.3908 241.892C72.7771 238.249 69.1347 233.939 66.4636 228.961C63.7926 223.983 62.457 218.55 62.457 212.662C62.457 209.262 62.9123 205.954 63.8229 202.736C64.7335 199.458 66.0387 196.392 67.7385 193.539C69.4989 190.686 71.5933 188.076 74.0216 185.708C76.4498 183.28 79.1816 181.216 82.2169 179.516C80.335 177.877 78.6352 175.995 77.1176 173.87C75.6606 171.746 74.3858 169.5 73.2931 167.132C72.2611 164.764 71.4719 162.336 70.9255 159.847C70.3792 157.298 70.106 154.778 70.106 152.289C70.106 147.19 71.2291 142.425 73.4752 137.993C75.782 133.501 78.9084 129.585 82.8543 126.246C86.8002 122.847 91.4139 120.176 96.6954 118.233C101.977 116.291 107.592 115.319 113.541 115.319C119.551 115.319 125.197 116.291 130.478 118.233C135.76 120.176 140.374 122.847 144.319 126.246C148.326 129.585 151.452 133.501 153.699 137.993C156.005 142.425 157.159 147.19 157.159 152.289C157.159 154.778 156.855 157.298 156.248 159.847C155.702 162.336 154.913 164.795 153.881 167.223C152.849 169.591 151.574 171.837 150.056 173.961C148.599 176.086 146.93 177.998 145.048 179.698C148.023 181.398 150.724 183.432 153.152 185.799C155.58 188.167 157.644 190.777 159.344 193.63C161.044 196.484 162.349 199.519 163.26 202.736C164.17 205.954 164.626 209.262 164.626 212.662ZM131.571 155.112C131.571 152.987 131.085 151.015 130.114 149.193C129.204 147.311 127.929 145.672 126.29 144.276C124.711 142.88 122.829 141.787 120.644 140.998C118.459 140.209 116.152 139.814 113.723 139.814C111.235 139.814 108.897 140.209 106.712 140.998C104.526 141.787 102.614 142.88 100.975 144.276C99.3968 145.672 98.122 147.311 97.1507 149.193C96.2401 151.015 95.7848 152.987 95.7848 155.112C95.7848 157.237 96.2401 159.21 97.1507 161.031C98.122 162.852 99.3968 164.431 100.975 165.766C102.614 167.102 104.526 168.164 106.712 168.953C108.897 169.742 111.235 170.137 113.723 170.137C116.152 170.137 118.459 169.742 120.644 168.953C122.829 168.164 124.711 167.102 126.29 165.766C127.929 164.431 129.204 162.852 130.114 161.031C131.085 159.21 131.571 157.237 131.571 155.112ZM138.674 211.933C138.674 209.019 138.006 206.318 136.67 203.829C135.396 201.279 133.605 199.064 131.298 197.182C129.052 195.3 126.381 193.812 123.285 192.72C120.249 191.627 117.002 191.081 113.541 191.081C110.081 191.081 106.833 191.627 103.798 192.72C100.763 193.812 98.0916 195.3 95.7848 197.182C93.5386 199.064 91.7478 201.279 90.4123 203.829C89.1374 206.318 88.5 209.019 88.5 211.933C88.5 214.847 89.1374 217.518 90.4123 219.946C91.7478 222.375 93.5386 224.469 95.7848 226.23C98.0916 227.99 100.763 229.386 103.798 230.418C106.833 231.39 110.081 231.875 113.541 231.875C117.002 231.875 120.249 231.39 123.285 230.418C126.381 229.386 129.052 227.99 131.298 226.23C133.605 224.469 135.396 222.375 136.67 219.946C138.006 217.518 138.674 214.847 138.674 211.933Z" fill="#7776BC"/>
</svg>
