<svg width="226" height="365" viewBox="0 0 226 365" fill="none" xmlns="http://www.w3.org/2000/svg">
<rect x="6.16368" y="5.86803" width="213.374" height="352.809" rx="24.6301" fill="#DA4167" stroke="white" stroke-width="10.8132" stroke-linejoin="round"/>
<path d="M55.4183 130.942C106.93 63.4762 174.884 28.8567 207.197 53.6174C239.51 78.3781 223.946 153.143 172.434 220.609C120.922 288.074 52.9688 322.694 20.6557 297.933C-11.6574 273.173 3.90636 198.408 55.4183 130.942Z" fill="white"/>
<path d="M158.745 158.68C158.745 164.083 157.713 169.183 155.649 173.978C153.585 178.713 150.762 182.872 147.181 186.453C143.66 189.974 139.532 192.767 134.797 194.831C130.062 196.895 124.993 197.927 119.59 197.927H106.477C104.656 197.927 102.956 198.261 101.378 198.929C99.7995 199.596 98.4033 200.537 97.1892 201.751C96.0358 202.905 95.1252 204.271 94.4574 205.849C93.7896 207.427 93.4557 209.127 93.4557 210.948V223.97H155.194V250.104H67.3217V210.948C67.3217 205.546 68.3537 200.477 70.4177 195.742C72.4817 190.946 75.2742 186.787 78.7952 183.266C82.3768 179.685 86.5352 176.892 91.2703 174.889C96.0054 172.825 101.074 171.793 106.477 171.793H119.59C121.411 171.793 123.111 171.459 124.689 170.791C126.267 170.123 127.633 169.213 128.787 168.059C130.001 166.845 130.942 165.449 131.61 163.871C132.277 162.232 132.611 160.502 132.611 158.68C132.611 156.859 132.277 155.159 131.61 153.581C130.942 152.003 130.001 150.637 128.787 149.483C127.633 148.269 126.267 147.328 124.689 146.661C123.111 145.993 121.411 145.659 119.59 145.659H72.9674V119.525H119.59C124.993 119.525 130.062 120.557 134.797 122.621C139.532 124.685 143.66 127.508 147.181 131.089C150.762 134.61 153.585 138.738 155.649 143.473C157.713 148.209 158.745 153.277 158.745 158.68Z" fill="#DA4167"/>
</svg>
