<svg width="226" height="365" viewBox="0 0 226 365" fill="none" xmlns="http://www.w3.org/2000/svg">
<rect x="6.54918" y="5.86803" width="213.374" height="352.809" rx="24.6301" fill="#EFF1C5" stroke="white" stroke-width="10.8132" stroke-linejoin="round"/>
<path d="M55.8036 130.942C107.316 63.4762 175.269 28.8567 207.582 53.6174C239.895 78.3781 224.332 153.143 172.82 220.609C121.308 288.074 53.3541 322.694 21.041 297.933C-11.2721 273.173 4.29161 198.408 55.8036 130.942Z" fill="white"/>
<path d="M159.131 158.68C159.131 164.083 158.099 169.183 156.035 173.978C153.971 178.713 151.148 182.872 147.566 186.453C144.045 189.974 139.917 192.767 135.182 194.831C130.447 196.895 125.378 197.927 119.975 197.927H106.862C105.041 197.927 103.342 198.261 101.763 198.929C100.185 199.596 98.7886 200.537 97.5744 201.751C96.421 202.905 95.5104 204.271 94.8426 205.849C94.1749 207.427 93.841 209.127 93.841 210.948V223.97H155.579V250.104H67.7069V210.948C67.7069 205.546 68.7389 200.477 70.803 195.742C72.867 190.946 75.6595 186.787 79.1804 183.266C82.7621 179.685 86.9205 176.892 91.6556 174.889C96.3907 172.825 101.46 171.793 106.862 171.793H119.975C121.796 171.793 123.496 171.459 125.074 170.791C126.653 170.123 128.019 169.213 129.172 168.059C130.386 166.845 131.327 165.449 131.995 163.871C132.663 162.232 132.997 160.502 132.997 158.68C132.997 156.859 132.663 155.159 131.995 153.581C131.327 152.003 130.386 150.637 129.172 149.483C128.019 148.269 126.653 147.328 125.074 146.661C123.496 145.993 121.796 145.659 119.975 145.659H73.3526V119.525H119.975C125.378 119.525 130.447 120.557 135.182 122.621C139.917 124.685 144.045 127.508 147.566 131.089C151.148 134.61 153.971 138.738 156.035 143.473C158.099 148.209 159.131 153.277 159.131 158.68Z" fill="#EFF1C5"/>
</svg>
